<?xml version="1.0" encoding="UTF-8" standalone="no"?>
<svg xmlns:ffdec="https://www.free-decompiler.com/flash" xmlns:xlink="http://www.w3.org/1999/xlink" ffdec:objectType="shape" height="30.4px" width="61.9px" xmlns="http://www.w3.org/2000/svg">
  <g transform="matrix(1.0, 0.0, 0.0, 1.0, -0.4, -0.8)">
    <path d="M32.4 0.8 L35.4 6.0 38.8 5.05 37.9 13.8 44.55 17.7 40.75 21.05 42.8 25.7 36.55 25.7 33.75 31.2 29.15 27.05 23.05 28.3 26.15 20.3 19.15 16.7 24.0 11.2 21.3 3.45 28.25 6.05 32.4 0.8 M35.55 10.55 L33.4 10.35 33.15 7.95 30.25 10.05 26.8 9.3 27.3 13.8 24.65 15.05 28.25 18.7 28.25 23.3 30.15 23.3 32.75 25.2 33.55 22.95 38.05 22.6 36.3 19.1 38.9 17.8 35.55 15.3 35.55 10.55" fill="#000000" fill-rule="evenodd" stroke="none"/>
    <path d="M53.8 8.55 Q57.15 8.85 58.9 9.45 62.6 10.8 62.3 13.8 62.05 16.8 57.9 18.25 L53.8 19.1 55.4 15.3 Q55.95 13.95 54.9 11.1 L53.8 8.55 M59.75 12.1 Q58.9 11.45 58.05 11.45 L57.4 11.45 57.4 16.0 Q57.25 16.6 58.6 16.0 59.95 15.45 60.4 14.2 60.85 12.95 59.75 12.1" fill="#000000" fill-rule="evenodd" stroke="none"/>
    <path d="M0.4 13.45 Q0.2 11.2 2.25 8.45 4.7 5.1 8.4 5.85 9.3 15.2 10.15 15.55 10.95 15.95 10.15 16.55 L3.15 17.75 1.7 16.3 Q0.5 14.75 0.4 13.45 M8.2 14.9 Q7.8 14.6 5.45 8.8 4.75 9.05 3.9 10.75 2.8 12.75 3.05 14.45 3.25 16.05 5.25 16.15 L7.2 15.95 Q8.65 15.2 8.2 14.9" fill="#000000" fill-rule="evenodd" stroke="none"/>
  </g>
</svg>
