<?xml version="1.0" encoding="UTF-8" standalone="no"?>
<svg xmlns:ffdec="https://www.free-decompiler.com/flash" xmlns:xlink="http://www.w3.org/1999/xlink" ffdec:objectType="shape" height="23.7px" width="22.8px" xmlns="http://www.w3.org/2000/svg">
  <g transform="matrix(1.0, 0.0, 0.0, 1.0, 44.4, 5.5)">
    <path d="M-32.6 -2.3 Q-31.75 -0.3 -32.55 1.65 L-30.9 1.6 Q-28.65 1.85 -27.1 3.3 L-24.1 1.0 Q-24.1 2.75 -24.5 4.1 L-21.6 2.6 Q-22.35 6.75 -24.8 8.35 L-24.8 9.0 Q-25.2 12.3 -27.9 14.05 L-26.65 18.2 -31.05 15.05 -32.2 15.05 Q-33.8 14.9 -35.2 14.0 L-35.15 14.15 -40.9 15.9 -37.5 11.5 Q-38.45 9.65 -38.25 7.7 -38.1 6.25 -37.4 5.0 -38.95 5.0 -40.25 4.2 -41.6 3.3 -42.25 1.85 -42.65 0.9 -42.65 -0.25 L-44.3 -1.1 -42.6 -1.15 -42.55 -1.3 -44.4 -2.3 -42.2 -2.35 Q-41.4 -4.2 -39.5 -5.05 -37.5 -5.9 -35.5 -5.1 -33.45 -4.3 -32.6 -2.3" fill="#000000" fill-rule="evenodd" stroke="none"/>
  </g>
</svg>
