<?xml version="1.0" encoding="UTF-8" standalone="no"?>
<svg xmlns:ffdec="https://www.free-decompiler.com/flash" xmlns:xlink="http://www.w3.org/1999/xlink" ffdec:objectType="shape" height="22.25px" width="21.5px" xmlns="http://www.w3.org/2000/svg">
  <g transform="matrix(1.0, 0.0, 0.0, 1.0, 70.0, 4.95)">
    <path d="M-58.2 -1.75 Q-57.55 -0.35 -57.85 1.25 L-56.8 1.25 Q-55.05 1.45 -53.6 2.45 L-51.45 -0.5 Q-50.95 1.2 -50.95 2.6 L-48.55 0.3 Q-48.1 5.2 -50.75 7.45 L-50.75 8.65 Q-50.9 9.95 -51.5 11.1 L-49.0 16.45 -54.1 13.8 Q-55.85 14.85 -58.0 14.7 L-60.75 17.3 -60.15 14.2 Q-62.15 13.3 -63.25 11.45 -64.4 9.55 -64.2 7.35 L-63.75 5.5 Q-66.65 5.1 -67.8 2.4 L-68.25 0.3 -69.9 -0.55 -68.15 -0.6 -68.15 -0.75 -70.0 -1.75 -67.8 -1.8 Q-67.0 -3.65 -65.1 -4.5 -63.05 -5.35 -61.05 -4.55 -59.05 -3.75 -58.2 -1.75" fill="#000000" fill-rule="evenodd" stroke="none"/>
  </g>
</svg>
