<?xml version="1.0" encoding="UTF-8" standalone="no"?>
<svg xmlns:ffdec="https://www.free-decompiler.com/flash" xmlns:xlink="http://www.w3.org/1999/xlink" ffdec:objectType="shape" height="24.6px" width="19.85px" xmlns="http://www.w3.org/2000/svg">
  <g transform="matrix(1.0, 0.0, 0.0, 1.0, 23.15, 5.95)">
    <path d="M-11.1 -3.9 L-12.7 -2.2 -10.8 -2.75 -12.65 -0.85 -12.65 -0.15 -12.95 1.1 -12.6 1.1 Q-10.4 1.3 -8.8 2.75 L-5.8 0.5 Q-5.8 2.25 -6.2 3.6 L-3.3 2.1 Q-4.05 6.2 -6.5 7.8 L-6.5 8.5 Q-6.65 9.7 -7.2 10.9 L-3.85 14.85 -9.75 13.6 Q-10.75 14.2 -11.9 14.45 L-13.25 18.65 -14.6 14.45 Q-17.15 13.9 -18.65 11.85 -20.2 9.75 -19.95 7.15 -19.8 5.7 -19.05 4.4 -20.95 3.95 -22.1 2.35 -23.3 0.8 -23.1 -1.2 -22.85 -3.35 -21.2 -4.75 -19.5 -6.1 -17.35 -5.9 -14.65 -5.65 -13.3 -3.25 L-11.1 -3.9" fill="#000000" fill-rule="evenodd" stroke="none"/>
  </g>
</svg>
