<?xml version="1.0" encoding="UTF-8" standalone="no"?>
<svg xmlns:ffdec="https://www.free-decompiler.com/flash" xmlns:xlink="http://www.w3.org/1999/xlink" ffdec:objectType="shape" height="30.05px" width="30.5px" xmlns="http://www.w3.org/2000/svg">
  <g transform="matrix(1.0, 0.0, 0.0, 1.0, 6.45, 29.1)">
    <path d="M19.25 -4.9 Q20.55 -4.6 22.3 -3.3 L24.0 -1.75 Q24.15 -1.4 23.7 -0.95 23.25 -0.5 22.8 -0.65 20.35 -4.4 19.25 -4.9" fill="#000000" fill-rule="evenodd" stroke="none"/>
    <path d="M17.6 0.05 L17.35 0.8 Q17.3 1.05 16.8 0.9 16.3 0.75 16.35 0.5 16.45 0.1 14.85 -2.4 17.3 -0.8 17.6 0.05" fill="#000000" fill-rule="evenodd" stroke="none"/>
    <path d="M4.3 -21.7 L5.05 -21.75 6.6 -21.55 Q6.95 -23.05 8.1 -23.85 10.0 -25.05 11.6 -25.1 14.2 -25.25 17.25 -23.05 14.4 -22.4 12.7 -21.6 11.25 -20.85 9.95 -19.6 11.8 -17.65 11.8 -15.0 L11.7 -13.8 14.35 -11.2 10.85 -11.6 Q9.95 -10.05 8.45 -9.15 6.9 -8.25 5.05 -8.25 L5.0 -8.25 3.55 -5.7 3.25 -8.5 Q0.35 -9.25 -1.05 -12.1 -2.85 -10.55 -4.65 -6.9 -6.05 -10.4 -5.3 -12.9 -4.8 -14.45 -3.2 -15.95 -2.5 -16.65 -1.45 -16.8 L-0.65 -18.6 Q-2.8 -18.65 -4.25 -20.15 -5.75 -21.7 -5.75 -23.85 -5.75 -24.85 -5.35 -25.9 L-6.45 -27.35 -4.9 -26.7 -4.8 -26.85 -6.1 -28.5 -4.05 -27.65 Q-2.6 -29.1 -0.5 -29.1 1.7 -29.1 3.2 -27.55 4.75 -26.0 4.75 -23.85 L4.3 -21.7" fill="#000000" fill-rule="evenodd" stroke="none"/>
  </g>
</svg>
