<?xml version="1.0" encoding="UTF-8" standalone="no"?>
<svg xmlns:ffdec="https://www.free-decompiler.com/flash" xmlns:xlink="http://www.w3.org/1999/xlink" ffdec:objectType="shape" height="30.4px" width="61.55px" xmlns="http://www.w3.org/2000/svg">
  <g transform="matrix(1.0, 0.0, 0.0, 1.0, -3.15, 0.05)">
    <path d="M38.65 8.45 L35.2 9.2 32.3 7.1 32.05 9.5 29.9 9.7 29.9 14.45 26.55 16.95 29.15 18.25 27.4 21.75 31.9 22.1 32.7 24.35 35.3 22.45 37.2 22.45 37.2 17.85 40.8 14.2 38.15 12.95 38.65 8.45 M26.65 4.2 L30.05 5.15 33.05 -0.05 37.2 5.2 44.15 2.6 41.45 10.35 46.3 15.85 39.3 19.45 42.35 27.45 36.3 26.2 31.7 30.35 28.9 24.85 22.65 24.85 24.7 20.2 20.9 16.85 27.55 12.95 26.65 4.2" fill="#000000" fill-rule="evenodd" stroke="none"/>
    <path d="M8.05 10.6 L7.35 10.6 Q6.55 10.6 5.7 11.25 4.65 12.1 5.05 13.35 5.5 14.6 6.85 15.15 8.2 15.75 8.05 15.15 7.95 14.8 8.0 12.65 L8.05 10.6 M6.6 8.6 Q8.3 8.0 11.65 7.7 L10.55 10.25 Q9.5 13.1 10.05 14.45 L11.65 18.25 7.55 17.4 Q3.4 15.95 3.15 12.95 2.85 9.95 6.6 8.6" fill="#000000" fill-rule="evenodd" stroke="none"/>
    <path d="M61.2 8.15 Q60.3 6.5 59.65 6.2 L56.9 12.3 Q56.6 12.5 57.25 12.95 L57.9 13.35 59.85 13.55 Q61.85 13.45 62.05 11.85 62.3 10.15 61.2 8.15 M56.7 3.25 Q60.4 2.5 62.9 5.85 64.9 8.6 64.7 10.85 64.6 12.15 63.4 13.7 L61.95 15.15 54.95 13.95 54.65 13.6 Q54.45 13.2 54.95 12.95 55.8 12.6 56.7 3.25" fill="#000000" fill-rule="evenodd" stroke="none"/>
  </g>
</svg>
