<?xml version="1.0" encoding="UTF-8" standalone="no"?>
<svg xmlns:ffdec="https://www.free-decompiler.com/flash" xmlns:xlink="http://www.w3.org/1999/xlink" ffdec:objectType="shape" height="23.7px" width="22.8px" xmlns="http://www.w3.org/2000/svg">
  <g transform="matrix(1.0, 0.0, 0.0, 1.0, -86.4, 13.0)">
    <path d="M97.4 -9.8 Q96.55 -7.8 97.35 -5.85 L95.7 -5.9 Q93.45 -5.65 91.9 -4.2 L88.9 -6.5 Q88.9 -4.75 89.3 -3.4 87.75 -4.05 86.4 -4.9 87.15 -0.75 89.6 0.85 L89.6 1.5 Q90.0 4.8 92.7 6.55 L91.45 10.7 95.85 7.55 97.0 7.55 Q98.6 7.4 100.0 6.5 L99.95 6.65 105.7 8.4 102.3 4.0 Q103.25 2.15 103.05 0.2 102.9 -1.25 102.2 -2.5 103.75 -2.5 105.05 -3.3 106.4 -4.2 107.05 -5.65 107.45 -6.6 107.45 -7.75 L109.1 -8.6 107.4 -8.65 107.35 -8.8 109.2 -9.8 107.0 -9.85 Q106.2 -11.7 104.3 -12.55 102.3 -13.4 100.3 -12.6 98.25 -11.8 97.4 -9.8" fill="#000000" fill-rule="evenodd" stroke="none"/>
  </g>
</svg>
