<?xml version="1.0" encoding="UTF-8" standalone="no"?>
<svg xmlns:ffdec="https://www.free-decompiler.com/flash" xmlns:xlink="http://www.w3.org/1999/xlink" ffdec:objectType="shape" height="22.25px" width="21.5px" xmlns="http://www.w3.org/2000/svg">
  <g transform="matrix(1.0, 0.0, 0.0, 1.0, -116.55, 12.8)">
    <path d="M126.25 -9.6 Q125.6 -8.2 125.9 -6.6 L124.85 -6.6 Q123.1 -6.4 121.65 -5.4 L119.5 -8.35 Q119.0 -6.65 119.0 -5.25 L116.6 -7.55 Q116.15 -2.65 118.8 -0.4 L118.8 0.8 Q118.95 2.1 119.55 3.25 L117.05 8.6 122.15 5.95 Q123.9 7.0 126.05 6.85 L128.8 9.45 128.2 6.35 Q130.2 5.45 131.3 3.6 132.45 1.7 132.25 -0.5 L131.8 -2.35 Q134.7 -2.75 135.85 -5.45 136.3 -6.5 136.3 -7.55 L137.95 -8.4 136.2 -8.45 136.2 -8.6 138.05 -9.6 135.85 -9.65 Q135.05 -11.5 133.15 -12.35 131.1 -13.2 129.1 -12.4 127.1 -11.6 126.25 -9.6" fill="#000000" fill-rule="evenodd" stroke="none"/>
  </g>
</svg>
