<?xml version="1.0" encoding="UTF-8" standalone="no"?>
<svg xmlns:ffdec="https://www.free-decompiler.com/flash" xmlns:xlink="http://www.w3.org/1999/xlink" ffdec:objectType="shape" height="30.05px" width="30.5px" xmlns="http://www.w3.org/2000/svg">
  <g transform="matrix(1.0, 0.0, 0.0, 1.0, -42.35, 36.1)">
    <path d="M47.15 -11.9 Q45.85 -11.6 44.1 -10.3 L42.4 -8.75 Q42.25 -8.4 42.7 -7.95 43.15 -7.5 43.6 -7.65 46.05 -11.4 47.15 -11.9" fill="#000000" fill-rule="evenodd" stroke="none"/>
    <path d="M48.8 -6.95 L49.05 -6.2 49.6 -6.1 50.05 -6.5 Q49.95 -6.9 51.55 -9.4 49.1 -7.8 48.8 -6.95" fill="#000000" fill-rule="evenodd" stroke="none"/>
    <path d="M62.1 -28.7 L61.35 -28.75 59.8 -28.55 Q59.45 -30.05 58.3 -30.85 56.4 -32.05 54.8 -32.1 52.2 -32.25 49.15 -30.05 52.0 -29.4 53.7 -28.6 L56.45 -26.6 Q54.6 -24.65 54.6 -22.0 L54.7 -20.8 52.05 -18.2 55.55 -18.6 Q56.45 -17.05 57.95 -16.15 59.5 -15.25 61.35 -15.25 L61.4 -15.25 62.85 -12.7 63.15 -15.5 Q66.05 -16.25 67.45 -19.1 69.25 -17.55 71.05 -13.9 72.45 -17.4 71.7 -19.9 71.2 -21.45 69.6 -22.95 68.9 -23.65 67.85 -23.8 L67.05 -25.6 Q69.2 -25.65 70.65 -27.15 72.15 -28.7 72.15 -30.85 72.15 -31.85 71.75 -32.9 L72.85 -34.35 71.3 -33.7 71.2 -33.85 72.5 -35.5 70.45 -34.65 Q69.0 -36.1 66.9 -36.1 64.7 -36.1 63.2 -34.55 61.65 -33.0 61.65 -30.85 61.65 -29.85 62.1 -28.7" fill="#000000" fill-rule="evenodd" stroke="none"/>
  </g>
</svg>
