<?xml version="1.0" encoding="UTF-8" standalone="no"?>
<svg xmlns:ffdec="https://www.free-decompiler.com/flash" xmlns:xlink="http://www.w3.org/1999/xlink" ffdec:objectType="shape" height="24.6px" width="19.85px" xmlns="http://www.w3.org/2000/svg">
  <g transform="matrix(1.0, 0.0, 0.0, 1.0, -69.95, 12.2)">
    <path d="M77.75 -10.15 L79.35 -8.45 77.45 -9.0 79.3 -7.1 79.3 -6.4 79.6 -5.15 79.25 -5.15 Q77.05 -4.95 75.45 -3.5 74.05 -4.35 72.45 -5.75 72.45 -4.0 72.85 -2.65 71.65 -3.15 69.95 -4.15 70.7 -0.05 73.15 1.55 L73.15 2.25 Q73.3 3.45 73.85 4.65 L70.5 8.6 76.4 7.35 Q77.4 7.95 78.55 8.2 L79.9 12.4 81.25 8.2 Q83.8 7.65 85.3 5.6 86.85 3.5 86.6 0.9 86.45 -0.55 85.7 -1.85 87.6 -2.3 88.75 -3.9 89.95 -5.45 89.75 -7.45 89.5 -9.6 87.85 -11.0 86.15 -12.35 84.0 -12.15 81.3 -11.9 79.95 -9.5 L77.75 -10.15" fill="#000000" fill-rule="evenodd" stroke="none"/>
  </g>
</svg>
