<?xml version="1.0" encoding="UTF-8" standalone="no"?>
<svg xmlns:ffdec="https://www.free-decompiler.com/flash" xmlns:xlink="http://www.w3.org/1999/xlink" ffdec:objectType="shape" height="29.75px" width="32.15px" xmlns="http://www.w3.org/2000/svg">
  <g transform="matrix(1.0, 0.0, 0.0, 1.0, -0.05, -1.4)">
    <path d="M22.55 7.45 Q22.55 9.75 20.95 11.35 19.35 13.0 17.1 13.0 14.8 13.0 13.2 11.35 11.6 9.75 11.6 7.45 11.6 5.15 13.2 3.55 14.8 1.9 17.1 1.9 19.35 1.9 20.95 3.55 22.55 5.15 22.55 7.45" fill="#000000" fill-rule="evenodd" stroke="none"/>
    <path d="M22.55 7.45 Q22.55 9.75 20.95 11.35 19.35 13.0 17.1 13.0 14.8 13.0 13.2 11.35 11.6 9.75 11.6 7.45 11.6 5.15 13.2 3.55 14.8 1.9 17.1 1.9 19.35 1.9 20.95 3.55 22.55 5.15 22.55 7.45 Z" fill="none" stroke="#000000" stroke-linecap="butt" stroke-linejoin="round" stroke-width="1.0"/>
    <path d="M21.05 16.4 Q27.25 12.25 31.7 17.1 29.5 16.05 26.3 18.35 24.7 19.5 23.55 20.85 L20.55 23.45 19.3 25.6 Q17.9 27.65 17.2 27.1 16.5 26.55 14.9 26.7 L13.5 26.9 10.2 25.35 7.65 22.05 9.35 21.1 9.75 19.4 Q9.8 17.45 8.35 16.4 L3.6 16.2 Q1.95 16.6 0.55 17.25 L2.9 14.7 Q5.6 12.15 7.05 11.95 8.35 11.75 10.4 12.95 12.4 14.05 12.7 13.95 13.55 13.6 14.85 11.95 L18.25 11.45 Q21.45 11.1 20.55 11.9 19.8 12.55 19.85 14.4 19.85 16.3 21.05 16.4" fill="#000000" fill-rule="evenodd" stroke="none"/>
    <path d="M21.05 16.4 Q19.85 16.3 19.85 14.4 19.8 12.55 20.55 11.9 21.45 11.1 18.25 11.45 L14.85 11.95 Q13.55 13.6 12.7 13.95 12.4 14.05 10.4 12.95 8.35 11.75 7.05 11.95 5.6 12.15 2.9 14.7 L0.55 17.25 Q1.95 16.6 3.6 16.2 L8.35 16.4 Q9.8 17.45 9.75 19.4 L9.35 21.1 7.65 22.05 10.2 25.35 13.5 26.9 14.9 26.7 Q16.5 26.55 17.2 27.1 17.9 27.65 19.3 25.6 L20.55 23.45 23.55 20.85 Q24.7 19.5 26.3 18.35 29.5 16.05 31.7 17.1 27.25 12.25 21.05 16.4 Z" fill="none" stroke="#000000" stroke-linecap="butt" stroke-linejoin="round" stroke-width="1.0"/>
    <path d="M27.5 19.55 Q22.35 21.1 16.25 26.8 17.15 28.3 18.8 29.25 20.5 30.15 22.45 30.15 25.35 30.15 27.4 28.3 29.45 26.5 29.45 23.9 29.45 21.4 27.5 19.55 Z" fill="none" stroke="#000000" stroke-linecap="butt" stroke-linejoin="round" stroke-width="2.0"/>
    <path d="M8.5 21.55 Q6.7 21.75 5.5 22.85 4.3 24.0 4.3 25.5 4.3 27.15 5.7 28.35 7.1 29.5 9.1 29.5 10.6 29.5 11.8 28.8 12.95 28.15 13.5 27.05 L8.5 21.55 Z" fill="none" stroke="#000000" stroke-linecap="butt" stroke-linejoin="round" stroke-width="2.0"/>
    <path d="M23.55 2.85 L22.05 4.95 21.1 3.25 23.55 2.85" fill="#000000" fill-rule="evenodd" stroke="none"/>
    <path d="M23.85 4.45 L22.35 9.15 21.2 5.1 23.85 4.45" fill="#000000" fill-rule="evenodd" stroke="none"/>
  </g>
</svg>
