<?xml version="1.0" encoding="UTF-8" standalone="no"?>
<svg xmlns:ffdec="https://www.free-decompiler.com/flash" xmlns:xlink="http://www.w3.org/1999/xlink" ffdec:objectType="shape" height="193.55px" width="226.75px" xmlns="http://www.w3.org/2000/svg">
  <g transform="matrix(1.0, 0.0, 0.0, 1.0, 174.55, 164.8)">
    <path d="M-106.9 -46.2 L-106.65 -46.5 Q-106.0 -48.25 -102.55 -47.5 -100.4 -47.0 -98.1 -45.85 L-94.15 -47.75 Q-89.7 -49.75 -87.25 -50.4 L-82.1 -51.6 Q-79.9 -51.9 -79.35 -51.05 -77.6 -48.2 -84.5 -46.3 -88.0 -45.3 -86.9 -43.0 -86.45 -41.95 -83.95 -39.55 -83.4 -39.05 -79.8 -37.65 -77.1 -36.6 -77.5 -35.35 -78.1 -33.5 -81.8 -33.65 L-85.4 -34.15 -84.85 -33.65 Q-83.95 -33.0 -82.1 -32.45 -80.4 -31.95 -81.1 -30.85 -81.75 -29.85 -83.05 -29.65 -85.05 -29.3 -86.85 -30.1 L-88.55 -30.85 -86.9 -29.95 Q-84.8 -28.95 -85.35 -27.85 -85.85 -26.75 -89.7 -28.4 -93.3 -30.2 -93.15 -30.0 L-91.95 -28.9 Q-91.5 -28.85 -90.5 -27.9 -89.05 -26.45 -90.55 -26.05 -92.1 -25.6 -94.0 -27.15 -95.25 -28.15 -97.0 -30.85 -98.75 -33.55 -99.85 -36.1 -101.0 -38.8 -102.15 -39.6 L-105.05 -40.5 Q-107.15 -41.0 -107.45 -42.7 -107.7 -44.0 -106.9 -46.2" fill="#ffffff" fill-rule="evenodd" stroke="none"/>
    <path d="M-106.05 -47.25 Q-107.85 -45.45 -107.65 -43.35 -107.4 -41.1 -105.05 -40.5 L-102.15 -39.55 Q-101.0 -38.8 -99.85 -36.1 -98.75 -33.55 -97.0 -30.85 -95.25 -28.15 -94.0 -27.15 -92.1 -25.6 -90.55 -26.05 -89.05 -26.45 -90.5 -27.9 -91.5 -28.85 -91.95 -28.9 L-93.15 -30.0 Q-93.3 -30.2 -89.7 -28.4 -85.85 -26.75 -85.35 -27.85 -84.8 -28.95 -86.9 -29.95 L-88.55 -30.85 -86.85 -30.1 Q-85.05 -29.3 -83.05 -29.65 -81.75 -29.85 -81.1 -30.85 -80.4 -31.95 -82.1 -32.45 -83.95 -33.0 -84.85 -33.65 L-85.4 -34.15 -81.8 -33.65 Q-78.1 -33.5 -77.5 -35.35 -77.1 -36.6 -79.8 -37.65 -83.4 -39.05 -83.95 -39.55 -86.45 -41.95 -86.9 -43.0 -88.0 -45.3 -84.5 -46.3 -77.6 -48.2 -79.35 -51.05 -79.9 -51.9 -82.1 -51.6 L-87.25 -50.4 Q-89.7 -49.75 -94.15 -47.75 L-98.1 -45.85 Q-100.25 -47.15 -101.75 -47.7 -104.55 -48.75 -106.05 -47.25 Z" fill="none" stroke="#000000" stroke-linecap="butt" stroke-linejoin="round" stroke-width="1.0"/>
    <path d="M-125.8 -77.7 L-124.5 -74.1 Q-122.4 -69.5 -118.45 -64.2 -115.0 -59.6 -109.25 -55.8 -106.4 -53.9 -104.2 -52.9 L-106.1 -49.4 Q-108.4 -45.65 -110.4 -44.1 -111.35 -43.35 -115.85 -42.2 L-125.0 -51.15 Q-134.3 -60.7 -135.35 -63.5 -136.35 -66.3 -131.15 -72.3 L-125.8 -77.7" fill="#000000" fill-rule="evenodd" stroke="none"/>
    <path d="M-100.75 -49.1 Q-100.8 -45.55 -105.2 -42.3 -107.45 -40.65 -109.65 -39.75 L-113.7 -45.35 -112.35 -44.8 Q-110.65 -44.5 -108.8 -45.85 -106.95 -47.2 -105.4 -50.15 L-104.25 -52.85 -100.75 -49.1" fill="#e2e2e2" fill-rule="evenodd" stroke="none"/>
    <path d="M-100.75 -49.1 L-104.25 -52.85 -105.4 -50.15 Q-106.95 -47.2 -108.8 -45.85 -110.65 -44.5 -112.35 -44.8 L-113.7 -45.35 -109.65 -39.75 Q-107.45 -40.65 -105.2 -42.3 -100.8 -45.55 -100.75 -49.1 Z" fill="none" stroke="#000000" stroke-linecap="butt" stroke-linejoin="round" stroke-width="1.0"/>
    <path d="M-106.95 -55.4 L-106.35 -51.25 Q-105.75 -46.0 -105.55 -40.5 -104.95 -23.0 -109.1 -9.9 -109.45 -8.4 -111.6 -12.3 -113.65 -16.1 -113.8 -17.7 L-114.45 -28.95 -112.0 -51.85 -106.95 -55.4" fill="#ffffff" fill-rule="evenodd" stroke="none"/>
    <path d="M-2.2 -37.0 L-61.85 -73.7 -56.0 -84.75 -34.35 -79.4 3.15 -47.15 -2.2 -37.0" fill="#000000" fill-rule="evenodd" stroke="none"/>
    <path d="M-31.35 -80.7 L-36.85 -51.15 Q-42.2 -21.15 -41.15 -18.6 -48.2 -20.05 -57.15 -20.9 L-64.65 -21.5 -70.55 -24.4 Q-71.3 -24.6 -72.05 -25.55 -73.5 -27.45 -73.3 -31.15 L-70.8 -59.15 Q-70.55 -64.35 -67.8 -72.0 -62.2 -87.3 -49.4 -99.65 -43.4 -91.7 -36.75 -85.4 -33.45 -82.25 -31.35 -80.7" fill="#000000" fill-rule="evenodd" stroke="none"/>
    <path d="M-51.9 -17.5 Q-57.5 -16.35 -60.4 -14.55 -63.95 -12.35 -65.6 -10.4 -67.3 -8.4 -68.85 -4.5 -70.15 -1.2 -70.9 7.15 L-71.4 14.85 -75.15 14.45 -77.0 -3.8 Q-77.45 -5.8 -77.45 -8.4 -77.45 -13.65 -75.25 -16.6 -73.05 -19.55 -70.75 -23.4 L-68.9 -26.65 -46.85 -18.3 -51.9 -17.5" fill="#000000" fill-rule="evenodd" stroke="none"/>
    <path d="M-8.65 -8.4 Q-8.65 -5.8 -9.1 -3.8 L-10.95 14.45 -14.7 14.85 Q-14.8 11.35 -15.2 7.15 -16.0 -1.2 -17.3 -4.5 -18.8 -8.4 -20.5 -10.4 -22.15 -12.35 -25.7 -14.55 -28.55 -16.35 -34.2 -17.5 L-39.3 -18.3 -17.2 -26.65 -15.35 -23.4 -10.85 -16.6 Q-8.65 -13.65 -8.65 -8.4" fill="#000000" fill-rule="evenodd" stroke="none"/>
    <path d="M-24.15 -74.4 L-24.15 -81.9 -21.85 -84.75 -19.0 -64.0 Q-16.15 -42.1 -16.15 -36.4 -16.15 -30.65 -13.8 -24.7 -12.65 -21.7 -11.5 -19.9 L-19.6 -17.7 Q-20.35 -18.15 -21.45 -19.5 -23.6 -22.2 -25.15 -26.65 -26.7 -31.0 -25.6 -51.55 -24.15 -72.25 -24.15 -74.4" fill="#000000" fill-rule="evenodd" stroke="none"/>
    <path d="M-22.3 -29.9 L-20.65 -26.65 Q-20.9 -25.5 -22.2 -23.85 -24.8 -20.5 -30.05 -17.7 -33.85 -18.15 -45.5 -17.95 L-56.4 -17.7 Q-56.85 -19.4 -56.75 -21.75 -56.5 -26.5 -53.55 -29.9 -50.15 -28.5 -35.9 -29.05 L-22.3 -29.9" fill="#000000" fill-rule="evenodd" stroke="none"/>
    <path d="M3.5 -46.4 L8.0 -43.0 6.1 -39.0 Q4.1 -34.7 3.85 -33.4 2.1 -32.6 0.4 -33.4 -0.45 -33.75 -1.25 -35.05 L-1.85 -36.25 3.5 -46.4 Z" fill="none" stroke="#000000" stroke-linecap="butt" stroke-linejoin="miter-clip" stroke-miterlimit="10.0" stroke-width="1.0"/>
    <path d="M2.5 -112.15 Q4.15 -106.2 4.35 -105.85 4.5 -105.55 1.3 -99.55 -1.95 -93.4 -3.4 -91.65" fill="none" stroke="#000000" stroke-linecap="butt" stroke-linejoin="miter-clip" stroke-miterlimit="10.0" stroke-width="1.0"/>
    <path d="M-4.45 -93.85 L-2.05 -88.05 Q-2.05 -87.65 -2.75 -87.3 -4.15 -86.6 -7.55 -86.75 -12.05 -86.85 -16.9 -87.85 -22.2 -88.95 -23.3 -90.3 L-26.65 -94.95 -28.9 -98.4 Q-29.8 -99.95 -30.45 -102.45 -31.7 -107.35 -30.2 -112.7" fill="none" stroke="#000000" stroke-linecap="butt" stroke-linejoin="miter-clip" stroke-miterlimit="10.0" stroke-width="1.0"/>
    <path d="M-24.3 -90.4 L-25.0 -87.45" fill="none" stroke="#000000" stroke-linecap="butt" stroke-linejoin="miter-clip" stroke-miterlimit="10.0" stroke-width="1.0"/>
    <path d="M-42.4 -104.5 L-34.1 -118.55 Q-36.25 -120.95 -36.6 -122.35 -36.9 -123.6 -36.5 -125.55 -36.1 -127.75 -35.2 -128.3 L-31.65 -128.5 Q-29.2 -127.6 -29.5 -123.95 L-29.45 -121.55" fill="none" stroke="#000000" stroke-linecap="butt" stroke-linejoin="miter-clip" stroke-miterlimit="10.0" stroke-width="1.0"/>
    <path d="M-32.15 -128.8 Q-31.85 -130.05 -31.5 -136.05 L-31.0 -143.0 Q-30.8 -144.35 -28.15 -146.9 -25.55 -149.4 -23.35 -150.45 -21.35 -151.4 -15.7 -152.7 L-9.4 -153.75 Q-8.45 -153.45 -1.6 -149.75 L0.85 -148.4 5.25 -146.25 Q7.8 -145.2 11.9 -141.4 L12.45 -138.65 13.15 -133.9 Q13.35 -132.2 11.75 -130.3 L10.2 -128.15 Q10.3 -127.15 5.25 -119.25" fill="none" stroke="#000000" stroke-linecap="butt" stroke-linejoin="miter-clip" stroke-miterlimit="10.0" stroke-width="1.0"/>
    <path d="M10.5 -128.8 Q7.9 -133.65 6.55 -135.15 L4.1 -137.2 2.4 -138.25 0.45 -137.9 -2.05 -137.65 -9.5 -140.3 -11.25 -140.9 Q-13.3 -141.45 -14.5 -140.95 -15.85 -140.4 -17.5 -139.2 L-19.2 -137.65 -19.3 -134.7 -19.2 -132.15 Q-21.45 -131.4 -23.9 -130.3 -28.75 -128.05 -29.45 -126.2" fill="none" stroke="#000000" stroke-linecap="butt" stroke-linejoin="miter-clip" stroke-miterlimit="10.0" stroke-width="1.0"/>
    <path d="M-2.8 -101.9 Q-0.75 -104.75 -2.05 -104.95 L-5.4 -105.2 -7.75 -105.3" fill="none" stroke="#000000" stroke-linecap="butt" stroke-linejoin="miter-clip" stroke-miterlimit="10.0" stroke-width="1.0"/>
    <path d="M-4.25 -107.95 L-3.8 -105.3" fill="none" stroke="#000000" stroke-linecap="butt" stroke-linejoin="miter-clip" stroke-miterlimit="10.0" stroke-width="1.0"/>
    <path d="M-3.0 -118.55 L-2.95 -116.85 Q-2.9 -115.0 -2.65 -114.25 -2.35 -113.4 -2.8 -112.65 L-4.25 -111.25 -6.4 -110.1 Q-7.45 -109.65 -7.75 -109.65 -8.1 -109.65 -8.7 -110.0 -9.5 -110.45 -9.8 -111.25" fill="none" stroke="#000000" stroke-linecap="butt" stroke-linejoin="miter-clip" stroke-miterlimit="10.0" stroke-width="1.0"/>
    <path d="M-9.8 -114.55 Q-10.8 -114.75 -11.75 -114.55 -12.55 -114.35 -12.9 -113.55 -13.3 -112.65 -12.6 -111.85" fill="none" stroke="#000000" stroke-linecap="butt" stroke-linejoin="miter-clip" stroke-miterlimit="10.0" stroke-width="1.0"/>
    <path d="M-3.0 -115.75 L-3.0 -117.95 -5.1 -118.75 -6.75 -119.25 Q-8.75 -116.8 -9.5 -116.55 -10.25 -116.25 -18.75 -119.25 -20.0 -120.3 -20.05 -121.65 -20.1 -122.5 -19.45 -123.85 L-18.8 -125.05 -18.25 -125.7 -17.15 -126.6 Q-16.6 -126.8 -11.8 -125.25 -7.25 -123.8 -6.65 -123.4 -6.05 -122.95 -5.35 -121.65 L-1.05 -120.5 1.05 -120.5 3.35 -120.0 6.25 -119.25 7.4 -118.35 7.95 -117.2 Q7.9 -116.5 4.35 -112.15 L-1.6 -114.1 Q-2.8 -114.45 -3.0 -115.75" fill="#000000" fill-rule="evenodd" stroke="none"/>
    <path d="M-27.25 -128.8 L-17.4 -124.45 -18.35 -123.15 -23.15 -125.55 Q-28.0 -127.95 -28.3 -127.65 L-27.25 -128.8" fill="#000000" fill-rule="evenodd" stroke="none"/>
    <path d="M-33.95 -125.75 L-33.05 -125.05 Q-32.15 -124.05 -32.05 -122.7" fill="none" stroke="#000000" stroke-linecap="butt" stroke-linejoin="miter-clip" stroke-miterlimit="10.0" stroke-width="1.0"/>
    <path d="M-34.15 -122.7 Q-34.15 -123.25 -33.8 -123.6 -33.5 -124.0 -33.0 -124.0 -32.5 -124.0 -32.2 -123.6 -31.85 -123.25 -31.85 -122.7 -31.85 -122.15 -32.2 -121.8 -32.5 -121.4 -33.0 -121.4 -33.5 -121.4 -33.8 -121.8 -34.15 -122.15 -34.15 -122.7" fill="#000000" fill-rule="evenodd" stroke="none"/>
    <path d="M-9.0 -143.05 Q-9.8 -146.25 -11.45 -149.5 -9.6 -148.7 -6.05 -143.8 -5.85 -146.3 -6.8 -149.7 -5.55 -148.7 -2.55 -143.8 -2.4 -144.4 -2.6 -145.65 -2.95 -148.1 -4.6 -151.3 -2.05 -150.35 0.7 -145.45 L2.95 -140.8 3.4 -141.85 5.8 -139.4 6.35 -140.7 7.5 -138.4 Q7.95 -138.85 7.95 -140.05 8.7 -138.9 8.95 -131.6 8.8 -132.65 6.85 -134.75 L4.35 -137.05 Q2.5 -138.25 0.55 -137.95 L-1.75 -137.65 -2.55 -137.85 -10.3 -140.65 Q-12.6 -141.45 -14.8 -140.7 L-16.6 -139.8 -16.35 -142.1 -15.65 -144.0 -13.05 -143.25 -12.6 -145.1 -9.0 -143.05" fill="#000000" fill-rule="evenodd" stroke="none"/>
    <path d="M-21.95 -133.4 L-21.65 -131.25 Q-25.05 -129.95 -27.25 -128.25 -29.0 -126.95 -29.55 -125.75 -29.85 -126.7 -30.5 -127.45 L-31.95 -128.55 Q-32.3 -128.95 -32.05 -131.3 L-31.45 -136.4 Q-31.45 -135.25 -28.3 -132.9 L-26.65 -131.6 -25.2 -133.7 -24.35 -131.25 -21.95 -133.4" fill="#000000" fill-rule="evenodd" stroke="none"/>
    <path d="M-49.4 -99.65 L-42.35 -91.0 Q-34.7 -82.1 -31.8 -81.05 L-30.6 -83.6 Q-29.1 -86.25 -27.5 -86.7 -30.6 -89.8 -35.05 -95.05 L-38.9 -99.65 Q-39.7 -101.1 -40.8 -102.3 -43.05 -104.75 -44.5 -103.55 L-49.4 -99.65 Z" fill="none" stroke="#000000" stroke-linecap="butt" stroke-linejoin="miter-clip" stroke-miterlimit="10.0" stroke-width="1.0"/>
    <path d="M-27.25 -86.25 L-26.25 -84.3 -25.0 -81.5 Q-24.65 -80.4 -23.35 -81.5 -22.5 -82.05 -22.15 -83.1 -21.45 -85.25 -23.85 -87.9 L-25.85 -87.55 Q-27.1 -87.05 -27.25 -86.25 Z" fill="none" stroke="#000000" stroke-linecap="butt" stroke-linejoin="miter-clip" stroke-miterlimit="10.0" stroke-width="1.0"/>
    <path d="M9.05 -49.55 L4.05 -45.7 -19.6 -65.2 -22.0 -82.1 9.05 -49.55" fill="#000000" fill-rule="evenodd" stroke="none"/>
    <path d="M9.0 -49.25 L12.05 -46.25 8.35 -42.3" fill="none" stroke="#000000" stroke-linecap="butt" stroke-linejoin="miter-clip" stroke-miterlimit="10.0" stroke-width="1.0"/>
    <path d="M8.0 -43.0 L12.6 -40.6 13.7 -40.5 Q15.05 -40.2 16.45 -39.2 18.7 -37.6 22.5 -35.6 L25.85 -34.1 26.45 -33.0 Q26.85 -31.8 25.85 -31.2 24.85 -30.55 23.2 -30.8 L21.7 -31.2 Q21.1 -29.55 20.2 -29.45 19.65 -29.4 19.35 -29.15 L18.35 -28.55 17.65 -27.6 Q17.25 -27.15 15.0 -27.6 12.4 -28.1 9.85 -29.7 7.6 -31.1 6.85 -32.35 6.0 -33.25 4.95 -33.85 L4.05 -34.25" fill="none" stroke="#000000" stroke-linecap="butt" stroke-linejoin="miter-clip" stroke-miterlimit="10.0" stroke-width="1.0"/>
    <path d="M31.95 -42.6 L31.95 -42.3 47.9 -31.25 49.0 -31.55 49.45 -31.95 Q50.05 -31.65 50.5 -30.15 50.7 -29.65 48.6 -26.85 L45.4 -22.65 44.0 -23.65 42.45 -23.05 24.5 -35.5 13.3 -40.4 Q14.0 -41.5 13.7 -43.55 13.6 -44.2 12.85 -44.8 L12.1 -45.25 12.2 -45.65 Q12.5 -46.05 13.2 -45.9 13.95 -45.75 14.95 -46.2 L16.1 -46.8 18.6 -48.45 21.9 -49.5 23.0 -50.2 24.35 -49.15 24.05 -48.1 31.95 -42.6" fill="#000000" fill-rule="evenodd" stroke="none"/>
    <path d="M48.4 -26.6 L49.7 -25.7 51.55 -28.3 50.25 -29.2 48.4 -26.6 Z" fill="none" stroke="#000000" stroke-linecap="butt" stroke-linejoin="miter-clip" stroke-miterlimit="10.0" stroke-width="1.0"/>
    <path d="M48.0 -31.1 L45.3 -30.95 39.75 -34.5 35.1 -37.75 34.6 -37.65 31.3 -40.0 Q31.15 -40.05 31.1 -40.35 31.1 -40.95 31.8 -42.1" fill="none" stroke="#ffffff" stroke-linecap="butt" stroke-linejoin="miter-clip" stroke-miterlimit="10.0" stroke-width="1.0"/>
    <path d="M20.65 -49.1 Q19.85 -49.45 19.7 -49.75 19.3 -50.55 18.85 -50.45 18.05 -50.25 17.95 -49.75 L17.4 -47.65 19.25 -48.55 20.4 -49.0 20.65 -49.1 Z" fill="none" stroke="#000000" stroke-linecap="butt" stroke-linejoin="miter-clip" stroke-miterlimit="10.0" stroke-width="1.0"/>
    <path d="M47.1 -24.85 L25.95 -39.45" fill="none" stroke="#ffffff" stroke-linecap="butt" stroke-linejoin="miter-clip" stroke-miterlimit="10.0" stroke-width="1.0"/>
    <path d="M24.55 -45.35 Q22.2 -43.8 21.7 -43.75 20.7 -43.65 20.5 -45.05 L20.35 -46.75 20.45 -47.25 Q20.65 -47.8 21.25 -47.8 22.05 -47.85 23.65 -46.8 25.25 -45.7 24.55 -45.35 Z" fill="none" stroke="#ffffff" stroke-linecap="butt" stroke-linejoin="miter-clip" stroke-miterlimit="10.0" stroke-width="1.0"/>
    <path d="M30.5 -40.1 L26.3 -39.35 28.15 -38.05 31.85 -39.15 30.5 -40.1 Z" fill="none" stroke="#ffffff" stroke-linecap="butt" stroke-linejoin="miter-clip" stroke-miterlimit="10.0" stroke-width="1.0"/>
    <path d="M-137.1 -75.25 Q-134.55 -73.95 -130.95 -61.75 -126.95 -48.3 -126.8 -36.15 -126.6 -21.65 -126.9 -9.15 -141.7 -7.1 -158.1 -11.6 -166.35 -13.85 -171.6 -16.55 -173.15 -20.75 -174.0 -29.05 -175.7 -45.6 -172.05 -66.05 -170.35 -75.35 -162.25 -86.15 L-154.5 -95.15 Q-154.15 -94.9 -153.45 -92.75 -152.5 -90.0 -151.35 -87.95 -147.15 -80.45 -137.1 -75.25" fill="#000000" fill-rule="evenodd" stroke="none"/>
    <path d="M-113.1 -79.0 Q-110.1 -75.55 -106.1 -64.7 -101.55 -52.35 -100.15 -41.25 -99.05 -32.65 -99.75 -24.9 -100.25 -19.95 -100.85 -18.4 -101.75 -16.05 -102.8 -14.85 -104.5 -13.05 -107.65 -12.35 -106.85 -17.8 -106.2 -24.8 -104.9 -38.75 -105.8 -46.55 -106.8 -55.1 -107.45 -57.7 -108.85 -63.55 -113.8 -75.5 L-113.1 -79.0" fill="#000000" fill-rule="evenodd" stroke="none"/>
    <path d="M-119.05 -79.15 Q-118.35 -77.45 -118.0 -76.15 L-119.95 -73.85 -117.0 -66.45 Q-113.75 -57.65 -112.15 -50.45 -110.35 -42.5 -109.85 -38.8 -109.45 -36.0 -109.7 -34.65 -109.9 -33.65 -111.75 -31.65 L-114.45 -28.95 Q-115.15 -28.25 -117.9 -30.0 L-121.55 -32.5 Q-122.2 -32.9 -121.75 -36.75 -121.05 -42.65 -121.4 -47.95 L-122.55 -64.05 -123.3 -72.65 -124.9 -73.4 Q-126.55 -74.1 -127.0 -73.9 -127.9 -73.45 -126.8 -76.45 -125.7 -79.6 -123.05 -81.75 L-121.35 -81.05 Q-119.5 -80.2 -119.05 -79.15" fill="#000000" fill-rule="evenodd" stroke="none"/>
    <path d="M-32.95 -81.55 Q-31.15 -84.35 -28.05 -85.9 L-26.55 -84.85 Q-24.95 -83.55 -24.75 -82.45 -24.4 -80.65 -24.35 -79.3 L-26.75 -77.5 -25.55 -69.65 Q-24.35 -60.3 -24.35 -52.95 -24.35 -44.8 -24.65 -41.1 -24.9 -38.25 -25.45 -37.0 -25.85 -36.1 -28.1 -34.5 L-31.35 -32.45 Q-32.2 -31.9 -34.45 -34.25 L-37.45 -37.5 Q-38.0 -38.0 -36.7 -41.7 -34.75 -47.35 -33.9 -52.5 L-31.5 -68.5 -30.3 -77.05 Q-32.9 -79.25 -33.65 -79.1 -34.65 -78.85 -32.95 -81.55" fill="#000000" fill-rule="evenodd" stroke="none"/>
    <path d="M-130.5 -137.65 L-137.3 -139.3 Q-139.8 -139.9 -142.2 -137.9 -144.75 -135.7 -142.55 -133.1 -140.1 -130.15 -139.75 -129.35 -139.4 -128.4 -140.35 -126.95 -142.05 -124.35 -142.55 -123.0 -143.7 -120.05 -143.1 -116.9 -142.45 -113.5 -144.75 -113.55 -146.95 -113.55 -148.35 -115.95 -149.55 -118.05 -152.2 -117.6 -154.8 -117.15 -154.75 -114.95 L-152.2 -107.8 Q-150.35 -102.8 -152.75 -102.5 -156.55 -102.0 -158.15 -113.05 -160.6 -120.75 -161.3 -125.6 -162.65 -134.4 -157.15 -142.1 -153.75 -146.85 -144.4 -148.9 L-135.7 -150.05 Q-128.75 -150.3 -124.3 -147.85 -119.65 -145.3 -121.1 -141.6 L-121.65 -139.0 Q-121.95 -137.75 -122.7 -137.55 -125.8 -136.85 -130.5 -137.65" fill="#000000" fill-rule="evenodd" stroke="none"/>
    <path d="M-134.65 -22.4 L-115.8 -24.45 -120.05 9.45 Q-122.55 10.7 -126.15 11.35 -128.45 11.75 -130.3 11.35 L-131.7 10.85 -131.1 -17.45 -136.1 -18.5 -138.45 -18.65 -139.9 -18.65 Q-140.35 10.9 -140.85 11.9 -141.2 12.75 -143.05 13.25 L-147.25 13.55 -150.6 13.1 Q-151.55 12.9 -151.8 12.55 -152.1 12.1 -153.65 -4.1 -155.15 -20.4 -154.7 -20.35 L-134.65 -22.4" fill="#000000" fill-rule="evenodd" stroke="none"/>
    <path d="M-122.25 -138.9 L-116.9 -133.5 -110.9 -128.2 Q-109.3 -127.2 -109.25 -124.3 -109.15 -121.4 -110.65 -119.9 -111.9 -118.65 -112.1 -117.45 L-112.15 -115.1" fill="none" stroke="#000000" stroke-linecap="round" stroke-linejoin="miter-clip" stroke-miterlimit="10.0" stroke-width="1.0"/>
    <path d="M-110.85 -124.15 L-112.1 -122.95 Q-113.4 -121.45 -113.4 -119.65 -113.25 -112.55 -111.15 -111.2 -110.1 -110.55 -108.05 -110.0 -106.5 -109.35 -106.45 -107.2 -106.4 -105.0 -107.25 -104.3 L-108.85 -103.55 Q-109.55 -103.05 -109.65 -101.55 -109.8 -100.15 -109.25 -99.3 -107.75 -97.05 -109.7 -97.3 L-111.35 -97.55 -114.05 -97.05 Q-116.35 -96.45 -118.7 -95.4 -121.05 -94.35 -121.5 -93.7" fill="none" stroke="#000000" stroke-linecap="round" stroke-linejoin="miter-clip" stroke-miterlimit="10.0" stroke-width="1.0"/>
    <path d="M-109.4 -95.5 Q-108.8 -94.35 -109.3 -93.85 -109.6 -93.55 -110.4 -93.4 L-111.25 -93.2 Q-112.4 -91.8 -111.85 -89.9 -111.25 -88.0 -111.95 -86.5 -112.75 -84.85 -114.8 -84.65 -116.6 -84.5 -118.75 -85.5 L-120.55 -86.5" fill="none" stroke="#000000" stroke-linecap="round" stroke-linejoin="miter-clip" stroke-miterlimit="10.0" stroke-width="1.0"/>
    <path d="M-128.1 -119.9 L-126.6 -122.1 Q-125.0 -124.3 -124.55 -124.2 L-121.95 -124.9" fill="none" stroke="#000000" stroke-linecap="round" stroke-linejoin="miter-clip" stroke-miterlimit="10.0" stroke-width="1.0"/>
    <path d="M-121.4 -124.85 L-119.05 -124.1 Q-116.8 -124.2 -117.6 -128.45" fill="none" stroke="#000000" stroke-linecap="round" stroke-linejoin="miter-clip" stroke-miterlimit="10.0" stroke-width="1.0"/>
    <path d="M-126.8 -110.1 Q-122.65 -110.3 -121.95 -111.3" ffdec:has-small-stroke="true" ffdec:original-stroke-width="0.75" fill="none" stroke="#000000" stroke-linecap="round" stroke-linejoin="miter-clip" stroke-miterlimit="10.0" stroke-width="1.0"/>
    <path d="M-121.1 -97.65 L-120.2 -101.35 Q-119.0 -105.3 -117.8 -106.25 L-116.2 -107.1 Q-115.95 -106.9 -116.65 -106.0 -117.3 -105.2 -116.75 -104.35 -116.25 -103.45 -115.0 -103.05" fill="none" stroke="#000000" stroke-linecap="round" stroke-linejoin="miter-clip" stroke-miterlimit="10.0" stroke-width="1.0"/>
    <path d="M-111.9 -103.5 Q-112.35 -103.35 -112.4 -104.25 -112.45 -105.05 -111.8 -105.0 -110.9 -104.85 -110.7 -104.45 -110.5 -103.95 -111.9 -103.5 Z" fill="none" stroke="#000000" stroke-linecap="round" stroke-linejoin="miter-clip" stroke-miterlimit="10.0" stroke-width="1.0"/>
    <path d="M-111.4 -109.0 L-110.1 -109.75 -107.6 -109.85" fill="none" stroke="#000000" stroke-linecap="round" stroke-linejoin="miter-clip" stroke-miterlimit="10.0" stroke-width="1.0"/>
    <path d="M-145.85 -104.75 Q-147.1 -103.05 -147.65 -102.75 -149.3 -101.9 -150.95 -104.8 -156.3 -114.1 -154.9 -116.4" fill="none" stroke="#000000" stroke-linecap="round" stroke-linejoin="miter-clip" stroke-miterlimit="10.0" stroke-width="1.0"/>
    <path d="M-135.7 -86.75 Q-125.9 -82.9 -123.25 -82.3 L-120.65 -82.5 Q-117.95 -82.85 -117.6 -83.7 L-117.0 -85.05 -115.6 -83.95 Q-114.1 -82.45 -113.5 -80.15 -112.85 -77.85 -115.0 -74.7 -116.1 -73.1 -117.3 -71.95 -117.45 -74.25 -118.2 -76.6 -119.75 -81.35 -122.9 -81.65 -124.25 -81.75 -125.45 -79.85 -126.55 -78.2 -126.85 -76.25 L-127.7 -71.15 Q-131.25 -72.4 -135.5 -74.55 -144.0 -78.85 -147.5 -83.3 -150.95 -87.75 -153.1 -91.9 L-154.5 -95.15 Q-154.45 -97.45 -153.0 -99.0 L-151.55 -100.55 -147.3 -95.05 Q-141.8 -89.1 -135.7 -86.75 Z" fill="none" stroke="#000000" stroke-linecap="round" stroke-linejoin="round" stroke-width="1.0"/>
    <path d="M-148.55 15.95 L-148.05 16.6 Q-147.3 17.2 -146.15 17.15 -144.8 17.1 -144.35 15.95 L-138.65 21.2 Q-136.15 21.65 -134.55 23.75 -133.0 25.7 -133.3 27.5 -137.1 28.95 -140.8 28.7 -143.9 28.45 -145.65 27.35 -147.65 26.05 -147.25 23.9 L-147.05 23.25 -147.6 22.45 -148.05 23.55 Q-151.15 21.45 -151.25 19.7 -151.3 18.6 -149.9 17.15 L-148.55 15.95" fill="#000000" fill-rule="evenodd" stroke="none"/>
    <path d="M-115.5 17.25 Q-110.45 16.25 -108.4 17.55 -106.4 18.9 -106.45 20.5 -106.55 22.3 -109.45 23.6 -112.55 25.05 -116.25 24.85 -120.1 24.65 -121.7 22.8 L-122.05 22.15 -123.15 22.0 -123.0 23.6 Q-127.4 22.8 -128.4 22.2 -129.35 21.7 -129.7 19.75 -130.1 17.6 -128.95 16.2 L-128.3 16.65 -126.5 16.85 Q-124.7 16.4 -123.7 15.0 L-122.6 15.65 Q-121.05 16.4 -119.1 16.7 L-115.5 17.25" fill="#000000" fill-rule="evenodd" stroke="none"/>
    <path d="M4.65 20.1 Q6.55 21.6 6.3 23.2 6.05 25.0 3.05 26.05 -0.1 27.2 -3.8 26.7 -7.65 26.15 -9.05 24.2 L-9.35 23.55 -10.45 23.3 -10.4 24.9 Q-14.75 23.75 -15.7 23.1 -16.55 22.45 -16.75 20.55 -17.0 18.35 -15.7 17.1 L-15.1 17.6 Q-14.3 18.05 -13.35 17.9 -11.5 17.6 -10.4 16.25 L-9.35 17.05 Q-7.9 17.95 -5.95 18.4 L-2.4 19.25 Q2.75 18.65 4.65 20.1" fill="#000000" fill-rule="evenodd" stroke="none"/>
    <path d="M-80.65 17.7 Q-77.55 16.95 -76.25 15.6 L-75.45 16.3 Q-74.45 17.05 -73.3 17.25 -71.8 17.5 -70.9 16.4 -69.65 17.7 -69.85 19.85 -70.1 21.8 -70.95 22.4 -71.9 23.1 -76.2 24.25 L-76.2 22.65 -77.3 22.9 -77.6 23.55 Q-79.0 25.5 -82.8 26.05 -86.5 26.55 -89.7 25.4 -92.7 24.3 -92.95 22.5 -93.15 20.95 -91.25 19.45 -89.3 17.95 -84.25 18.55 L-80.65 17.7" fill="#000000" fill-rule="evenodd" stroke="none"/>
    <path d="M-129.9 -150.35 L-157.75 -142.8 -162.25 -152.4 -162.55 -152.3 -164.0 -152.5 Q-164.75 -152.9 -164.95 -153.7 -165.15 -154.5 -164.75 -155.2 -164.35 -155.85 -163.55 -156.1 L-162.05 -155.95 Q-161.35 -155.55 -161.15 -154.75 -160.95 -153.8 -161.5 -153.05 L-154.0 -148.9 -152.95 -153.15 Q-154.35 -153.35 -154.65 -154.6 -154.85 -155.4 -154.45 -156.1 -154.05 -156.75 -153.25 -157.0 L-151.75 -156.8 Q-151.1 -156.4 -150.85 -155.6 -150.45 -154.25 -151.75 -153.45 L-148.85 -150.4 -148.1 -159.35 Q-149.3 -159.6 -149.6 -160.75 -149.8 -161.55 -149.45 -162.25 -149.05 -162.9 -148.25 -163.15 L-146.75 -162.95 Q-146.05 -162.55 -145.85 -161.8 -145.45 -160.4 -146.75 -159.6 L-141.6 -152.45 -140.95 -156.45 Q-142.3 -156.65 -142.6 -157.85 -142.8 -158.65 -142.45 -159.35 -142.05 -160.05 -141.25 -160.3 L-139.75 -160.1 Q-139.05 -159.7 -138.85 -158.9 -138.45 -157.65 -139.55 -156.8 L-136.3 -154.0 -132.1 -161.0 Q-132.95 -161.3 -133.3 -162.3 -133.5 -163.1 -133.1 -163.8 -132.7 -164.5 -131.9 -164.75 L-130.4 -164.55 Q-129.7 -164.15 -129.5 -163.35 -129.3 -162.6 -129.65 -161.95 -130.05 -161.25 -130.75 -161.0 L-129.9 -150.35" fill="#050102" fill-rule="evenodd" stroke="none"/>
    <path d="M-129.75 -150.4 L-129.45 -149.3 -157.45 -141.7 -157.75 -142.8 -129.75 -150.4" fill="#e2e2e2" fill-rule="evenodd" stroke="none"/>
    <path d="M-109.2 -95.3 L-113.7 -95.75 Q-118.6 -95.85 -120.4 -94.0 -119.75 -96.05 -114.4 -96.75 L-109.15 -97.1 -109.2 -95.3" fill="#000000" fill-rule="evenodd" stroke="none"/>
    <path d="M-120.1 -116.1 Q-119.8 -116.55 -119.4 -116.55 -119.0 -116.55 -118.7 -116.1 -118.45 -115.7 -118.45 -115.1 -118.45 -114.5 -118.7 -114.05 -119.0 -113.65 -119.4 -113.65 L-120.1 -114.05 -120.4 -115.1 -120.1 -116.1" fill="#000000" fill-rule="evenodd" stroke="none"/>
    <path d="M-123.6 -116.75 Q-123.6 -114.85 -122.85 -113.5 -122.1 -112.15 -121.0 -112.15 -119.95 -112.15 -119.15 -113.5 -118.4 -114.85 -118.4 -116.75 -118.4 -118.65 -119.15 -120.05 -119.95 -121.4 -121.0 -121.4 -122.1 -121.4 -122.85 -120.05 -123.6 -118.65 -123.6 -116.75 Z" fill="none" stroke="#000000" stroke-linecap="butt" stroke-linejoin="miter-clip" stroke-miterlimit="10.0" stroke-width="1.0"/>
    <path d="M-136.25 -93.1 Q-137.55 -95.4 -136.85 -96.35 -134.5 -99.45 -129.55 -92.8 -127.05 -89.45 -124.95 -91.55 -124.05 -92.5 -122.5 -96.2 -122.15 -97.0 -122.2 -101.45 -122.25 -104.8 -120.7 -104.9 -118.45 -105.0 -117.0 -100.95 -116.3 -98.95 -116.05 -96.9 -115.35 -97.55 -115.65 -101.15 -115.8 -103.2 -114.3 -102.85 -112.95 -102.6 -112.2 -101.3 -111.0 -99.25 -111.1 -97.05 L-111.2 -94.9 Q-111.1 -94.8 -110.95 -97.05 -110.75 -99.7 -109.35 -99.6 -107.9 -99.5 -108.1 -94.65 -108.15 -92.3 -108.35 -90.25 -107.55 -91.65 -107.65 -92.0 -107.8 -92.55 -107.2 -94.0 -106.25 -96.2 -105.15 -94.75 -104.05 -93.25 -104.95 -90.55 -105.5 -88.75 -107.65 -85.75 -109.85 -82.7 -112.1 -80.5 -114.55 -78.1 -114.9 -76.5 -115.1 -75.8 -114.7 -73.0 -114.35 -70.55 -116.05 -69.5 -117.35 -68.7 -120.1 -68.65 L-120.5 -68.75 Q-122.7 -68.7 -123.3 -72.75 -123.7 -75.55 -123.35 -78.25 -130.15 -84.25 -132.85 -88.1 L-136.25 -93.1" fill="#ffffff" fill-rule="evenodd" stroke="none"/>
    <path d="M-136.25 -93.1 L-132.85 -88.1 Q-130.15 -84.25 -123.35 -78.25 L-123.9 -73.55 Q-123.8 -70.1 -121.6 -69.1 -118.9 -67.9 -116.7 -69.05 -114.4 -70.2 -114.7 -73.0 L-114.9 -76.55 Q-114.55 -78.1 -112.1 -80.5 -109.85 -82.7 -107.65 -85.75 -105.5 -88.75 -104.95 -90.55 -104.05 -93.25 -105.15 -94.75 -106.25 -96.2 -107.2 -94.0 -107.8 -92.55 -107.65 -92.0 -107.55 -91.65 -108.35 -90.25 -108.15 -92.3 -108.1 -94.65 -107.9 -99.5 -109.35 -99.6 -110.75 -99.7 -110.95 -97.05 -111.1 -94.8 -111.2 -94.9 L-111.1 -97.05 Q-111.0 -99.25 -112.2 -101.3 -112.95 -102.6 -114.3 -102.85 -115.8 -103.2 -115.65 -101.15 -115.35 -97.55 -116.05 -96.9 -116.3 -98.95 -117.0 -100.95 -118.45 -105.0 -120.7 -104.9 -122.25 -104.8 -122.2 -101.45 -122.15 -97.0 -122.5 -96.2 -124.05 -92.5 -124.95 -91.55 -127.05 -89.45 -129.55 -92.8 -134.5 -99.45 -136.85 -96.35 -137.55 -95.4 -136.25 -93.1 Z" fill="none" stroke="#000000" stroke-linecap="butt" stroke-linejoin="round" stroke-width="1.0"/>
    <path d="M-123.9 -68.1 Q-118.8 -67.25 -116.35 -65.75 -115.15 -65.0 -112.0 -60.65 L-117.85 -47.0 Q-124.2 -32.95 -126.85 -30.65 -129.45 -28.4 -138.05 -31.45 L-146.15 -35.0 Q-144.9 -35.8 -142.8 -37.9 -138.7 -42.1 -134.65 -48.6 -131.15 -54.25 -129.45 -62.05 L-128.45 -68.7 -123.9 -68.1" fill="#000000" fill-rule="evenodd" stroke="none"/>
    <path d="M-125.8 -74.05 Q-121.95 -75.5 -116.6 -72.1 -113.9 -70.35 -112.0 -68.35 L-116.3 -61.6 Q-116.05 -62.3 -116.25 -63.3 -116.7 -65.25 -118.9 -66.7 -121.1 -68.15 -124.95 -68.55 L-128.35 -68.7 -125.8 -74.05" fill="#e2e2e2" fill-rule="evenodd" stroke="none"/>
    <path d="M-125.8 -74.05 L-128.35 -68.7 -124.95 -68.55 Q-121.1 -68.15 -118.9 -66.7 -116.7 -65.25 -116.25 -63.3 -116.05 -62.3 -116.3 -61.6 L-112.0 -68.35 Q-113.9 -70.35 -116.6 -72.1 -121.95 -75.5 -125.8 -74.05 Z" fill="none" stroke="#000000" stroke-linecap="butt" stroke-linejoin="round" stroke-width="1.0"/>
    <path d="M-123.35 -55.25 L-124.05 -40.9 Q-132.15 -37.7 -146.35 -49.85 -150.75 -53.65 -155.3 -58.55 L-158.9 -62.65 -150.65 -76.4 -123.35 -55.25" fill="#000000" fill-rule="evenodd" stroke="none"/>
  </g>
</svg>
