<?xml version="1.0" encoding="UTF-8" standalone="no"?>
<svg xmlns:ffdec="https://www.free-decompiler.com/flash" xmlns:xlink="http://www.w3.org/1999/xlink" ffdec:objectType="shape" height="193.55px" width="221.85px" xmlns="http://www.w3.org/2000/svg">
  <g transform="matrix(1.0, 0.0, 0.0, 1.0, -23.7, 164.8)">
    <path d="M177.9 -46.2 Q178.7 -44.0 178.45 -42.7 178.15 -41.0 176.05 -40.5 L173.15 -39.6 Q172.0 -38.8 170.85 -36.1 169.75 -33.55 168.0 -30.85 166.25 -28.15 165.0 -27.15 163.1 -25.6 161.55 -26.05 160.05 -26.45 161.5 -27.9 162.5 -28.85 162.95 -28.9 L164.2 -30.0 160.7 -28.4 Q156.85 -26.75 156.35 -27.85 155.8 -28.95 157.9 -29.95 L159.55 -30.85 157.85 -30.1 Q156.05 -29.3 154.05 -29.65 152.75 -29.85 152.1 -30.85 151.4 -31.95 153.1 -32.45 156.1 -33.35 156.4 -34.15 L152.8 -33.65 Q149.1 -33.5 148.5 -35.35 148.1 -36.6 150.8 -37.65 154.4 -39.05 154.95 -39.55 157.45 -41.95 157.9 -43.0 159.0 -45.3 155.5 -46.3 148.6 -48.2 150.35 -51.05 150.9 -51.9 153.1 -51.6 L158.25 -50.4 Q162.15 -49.4 169.1 -45.85 171.4 -47.0 173.55 -47.5 177.0 -48.25 177.65 -46.5 L177.9 -46.2" fill="#ffffff" fill-rule="evenodd" stroke="none"/>
    <path d="M177.05 -47.25 Q178.85 -45.45 178.65 -43.35 178.4 -41.1 176.05 -40.5 L173.15 -39.55 Q172.0 -38.8 170.85 -36.1 169.75 -33.55 168.0 -30.85 166.25 -28.15 165.0 -27.15 163.1 -25.6 161.55 -26.05 160.05 -26.45 161.5 -27.9 162.5 -28.85 162.95 -28.9 L164.2 -30.0 160.7 -28.4 Q156.85 -26.75 156.35 -27.85 155.8 -28.95 157.9 -29.95 L159.55 -30.85 157.85 -30.1 Q156.05 -29.3 154.05 -29.65 152.75 -29.85 152.1 -30.85 151.4 -31.95 153.1 -32.45 156.1 -33.35 156.4 -34.15 L152.8 -33.65 Q149.1 -33.5 148.5 -35.35 148.1 -36.6 150.8 -37.65 154.4 -39.05 154.95 -39.55 157.45 -41.95 157.9 -43.0 159.0 -45.3 155.5 -46.3 148.6 -48.2 150.35 -51.05 150.9 -51.9 153.1 -51.6 L158.25 -50.4 Q162.15 -49.4 169.1 -45.85 L172.75 -47.7 Q175.55 -48.75 177.05 -47.25 Z" fill="none" stroke="#000000" stroke-linecap="butt" stroke-linejoin="round" stroke-width="1.0"/>
    <path d="M196.8 -77.7 L202.2 -72.3 Q207.35 -66.3 206.35 -63.5 205.3 -60.7 196.0 -51.15 L186.85 -42.2 Q182.35 -43.35 181.4 -44.1 179.4 -45.65 177.1 -49.4 L175.2 -52.9 180.25 -55.8 Q186.0 -59.6 189.45 -64.2 193.4 -69.5 195.5 -74.1 L196.8 -77.7" fill="#000000" fill-rule="evenodd" stroke="none"/>
    <path d="M184.7 -45.35 L180.65 -39.75 Q178.45 -40.65 176.2 -42.3 171.8 -45.55 171.75 -49.1 L175.25 -52.85 176.4 -50.15 Q177.95 -47.2 179.8 -45.85 181.7 -44.5 183.4 -44.8 184.25 -44.95 184.7 -45.35" fill="#e2e2e2" fill-rule="evenodd" stroke="none"/>
    <path d="M184.7 -45.35 L180.65 -39.75 Q178.45 -40.65 176.2 -42.3 171.8 -45.55 171.75 -49.1 L175.25 -52.85 176.4 -50.15 Q177.95 -47.2 179.8 -45.85 181.7 -44.5 183.4 -44.8 184.25 -44.95 184.7 -45.35 Z" fill="none" stroke="#000000" stroke-linecap="butt" stroke-linejoin="round" stroke-width="1.0"/>
    <path d="M183.0 -51.85 L185.45 -28.95 184.8 -17.7 Q184.65 -16.1 182.6 -12.3 180.5 -8.4 180.1 -9.9 176.0 -23.0 176.55 -40.5 L177.95 -55.4 183.0 -51.85" fill="#ffffff" fill-rule="evenodd" stroke="none"/>
    <path d="M110.35 -79.4 L132.0 -84.75 137.85 -73.7 78.2 -37.0 72.85 -47.15 110.35 -79.4" fill="#000000" fill-rule="evenodd" stroke="none"/>
    <path d="M107.35 -80.7 L112.8 -85.4 Q119.4 -91.7 125.45 -99.65 138.25 -87.3 143.8 -72.0 146.6 -64.35 146.8 -59.15 L147.9 -47.35 149.3 -31.15 Q149.55 -27.45 148.1 -25.55 147.35 -24.6 146.55 -24.4 L140.7 -21.5 Q128.45 -20.9 117.15 -18.6 118.2 -21.15 112.85 -51.15 L107.35 -80.7" fill="#000000" fill-rule="evenodd" stroke="none"/>
    <path d="M146.8 -23.4 Q149.05 -19.55 151.25 -16.6 153.45 -13.65 153.45 -8.4 153.45 -5.8 153.0 -3.8 L151.2 14.45 147.45 14.85 146.95 7.15 Q146.15 -1.2 144.85 -4.5 143.3 -8.4 141.6 -10.4 139.95 -12.35 136.45 -14.55 133.55 -16.35 127.9 -17.5 L122.85 -18.3 144.95 -26.65 146.8 -23.4" fill="#000000" fill-rule="evenodd" stroke="none"/>
    <path d="M93.2 -26.65 L115.3 -18.3 110.25 -17.5 Q104.6 -16.35 101.7 -14.55 98.15 -12.35 96.55 -10.4 94.8 -8.4 93.3 -4.5 92.0 -1.2 91.2 7.15 L90.7 14.85 86.95 14.45 85.1 -3.8 Q84.65 -5.8 84.65 -8.4 84.65 -13.65 86.85 -16.6 L91.35 -23.4 93.2 -26.65" fill="#000000" fill-rule="evenodd" stroke="none"/>
    <path d="M100.2 -74.4 L101.6 -51.55 Q102.75 -30.95 101.2 -26.65 99.65 -22.2 97.45 -19.5 96.4 -18.15 95.6 -17.7 L87.5 -19.9 Q88.7 -21.7 89.85 -24.7 92.2 -30.65 92.2 -36.4 92.2 -42.1 95.05 -64.0 L97.85 -84.75 100.2 -81.9 100.2 -74.4" fill="#000000" fill-rule="evenodd" stroke="none"/>
    <path d="M93.3 -29.9 L106.9 -29.05 Q121.2 -28.5 124.55 -29.9 127.5 -26.5 127.8 -21.75 127.9 -19.4 127.45 -17.7 107.2 -18.4 101.05 -17.7 95.85 -20.5 93.25 -23.85 L91.7 -26.65 93.3 -29.9" fill="#000000" fill-rule="evenodd" stroke="none"/>
    <path d="M72.5 -46.4 L68.0 -43.0 69.95 -39.0 Q71.9 -34.7 72.15 -33.4 73.9 -32.6 75.6 -33.4 76.95 -34.0 77.85 -36.25 L72.5 -46.4 Z" fill="none" stroke="#000000" stroke-linecap="butt" stroke-linejoin="miter-clip" stroke-miterlimit="10.0" stroke-width="1.0"/>
    <path d="M73.5 -112.15 L71.65 -105.85 Q71.5 -105.55 74.7 -99.55 78.0 -93.4 79.4 -91.65" fill="none" stroke="#000000" stroke-linecap="butt" stroke-linejoin="miter-clip" stroke-miterlimit="10.0" stroke-width="1.0"/>
    <path d="M80.45 -93.85 L78.05 -88.05 78.8 -87.3 Q80.2 -86.6 83.55 -86.75 L92.9 -87.85 Q98.2 -88.95 99.3 -90.3 L102.65 -94.95 104.9 -98.4 Q105.85 -99.95 106.45 -102.45 107.7 -107.35 106.2 -112.7" fill="none" stroke="#000000" stroke-linecap="butt" stroke-linejoin="miter-clip" stroke-miterlimit="10.0" stroke-width="1.0"/>
    <path d="M100.3 -90.4 L101.0 -87.45" fill="none" stroke="#000000" stroke-linecap="butt" stroke-linejoin="miter-clip" stroke-miterlimit="10.0" stroke-width="1.0"/>
    <path d="M118.45 -104.5 L110.1 -118.55 Q112.25 -120.95 112.6 -122.35 112.9 -123.6 112.5 -125.55 112.1 -127.75 111.2 -128.3 L107.7 -128.5 Q105.2 -127.6 105.5 -123.95 L105.45 -121.55" fill="none" stroke="#000000" stroke-linecap="butt" stroke-linejoin="miter-clip" stroke-miterlimit="10.0" stroke-width="1.0"/>
    <path d="M108.15 -128.8 Q107.85 -130.05 107.5 -136.05 L107.0 -143.0 Q106.8 -144.35 104.15 -146.9 101.55 -149.4 99.35 -150.45 97.35 -151.4 91.7 -152.7 L85.4 -153.75 81.15 -151.65 77.6 -149.75 Q73.35 -147.35 70.75 -146.25 69.1 -145.55 66.5 -143.5 L64.1 -141.4 63.55 -138.65 62.85 -133.9 Q62.65 -132.2 64.25 -130.3 L65.8 -128.15 Q65.75 -127.5 68.25 -123.3 L70.75 -119.25" fill="none" stroke="#000000" stroke-linecap="butt" stroke-linejoin="miter-clip" stroke-miterlimit="10.0" stroke-width="1.0"/>
    <path d="M65.5 -128.8 Q68.1 -133.65 69.45 -135.15 70.75 -136.65 73.6 -138.25 L75.55 -137.9 78.05 -137.65 87.25 -140.9 Q89.3 -141.45 90.5 -140.95 L93.5 -139.2 95.2 -137.65 Q95.45 -137.1 95.2 -132.15 L99.9 -130.3 Q104.75 -128.05 105.45 -126.2" fill="none" stroke="#000000" stroke-linecap="butt" stroke-linejoin="miter-clip" stroke-miterlimit="10.0" stroke-width="1.0"/>
    <path d="M78.8 -101.9 L77.95 -103.35 Q77.25 -104.8 78.05 -104.95 L83.75 -105.3" fill="none" stroke="#000000" stroke-linecap="butt" stroke-linejoin="miter-clip" stroke-miterlimit="10.0" stroke-width="1.0"/>
    <path d="M80.25 -107.95 L79.8 -105.3" fill="none" stroke="#000000" stroke-linecap="butt" stroke-linejoin="miter-clip" stroke-miterlimit="10.0" stroke-width="1.0"/>
    <path d="M79.0 -118.55 L79.0 -116.85 78.65 -114.25 Q78.15 -112.8 80.25 -111.25 L82.4 -110.1 83.75 -109.65 Q84.1 -109.65 84.7 -110.0 85.5 -110.45 85.8 -111.25" fill="none" stroke="#000000" stroke-linecap="butt" stroke-linejoin="miter-clip" stroke-miterlimit="10.0" stroke-width="1.0"/>
    <path d="M85.8 -114.55 L86.4 -114.6 87.75 -114.55 Q88.55 -114.35 88.9 -113.55 89.35 -112.65 88.6 -111.85" fill="none" stroke="#000000" stroke-linecap="butt" stroke-linejoin="miter-clip" stroke-miterlimit="10.0" stroke-width="1.0"/>
    <path d="M69.75 -119.25 L74.95 -120.5 77.05 -120.5 81.35 -121.65 81.8 -122.35 82.65 -123.4 87.85 -125.25 Q92.6 -126.8 93.15 -126.6 93.95 -126.25 94.8 -125.05 L95.45 -123.85 Q96.1 -122.5 96.05 -121.65 96.0 -120.3 94.75 -119.25 86.25 -116.25 85.5 -116.55 85.05 -116.7 83.85 -118.0 L82.75 -119.25 Q79.65 -118.35 79.0 -117.95 L79.0 -115.75 Q78.8 -114.45 77.6 -114.1 L71.65 -112.15 Q68.1 -116.5 68.05 -117.2 68.05 -117.7 68.6 -118.35 L69.75 -119.25" fill="#000000" fill-rule="evenodd" stroke="none"/>
    <path d="M103.25 -128.8 L104.3 -127.65 Q103.85 -128.1 94.35 -123.15 L93.4 -124.45 103.25 -128.8" fill="#000000" fill-rule="evenodd" stroke="none"/>
    <path d="M109.85 -125.7 L108.95 -125.0 Q108.05 -124.0 108.0 -122.65" fill="none" stroke="#000000" stroke-linecap="butt" stroke-linejoin="miter-clip" stroke-miterlimit="10.0" stroke-width="1.0"/>
    <path d="M110.05 -122.65 Q110.05 -122.1 109.7 -121.75 109.4 -121.35 108.9 -121.35 108.4 -121.35 108.1 -121.75 107.75 -122.1 107.75 -122.65 107.75 -123.2 108.1 -123.55 108.4 -123.95 108.9 -123.95 109.4 -123.95 109.7 -123.55 110.05 -123.2 110.05 -122.65" fill="#000000" fill-rule="evenodd" stroke="none"/>
    <path d="M86.3 -140.65 L78.55 -137.85 75.45 -137.95 Q73.5 -138.25 71.65 -137.05 L69.15 -134.75 Q67.2 -132.65 67.05 -131.6 L67.25 -135.4 Q67.6 -139.35 68.05 -140.05 68.05 -138.85 68.5 -138.4 L69.7 -140.7 70.2 -139.4 72.6 -141.85 73.05 -140.8 75.3 -145.45 Q78.05 -150.35 80.6 -151.3 78.95 -148.1 78.6 -145.65 78.4 -144.4 78.55 -143.8 L80.2 -146.35 Q82.0 -149.05 82.8 -149.7 81.85 -146.3 82.05 -143.8 L84.05 -146.35 Q86.3 -149.0 87.45 -149.5 86.4 -147.45 85.6 -145.05 L85.0 -143.05 88.6 -145.1 89.05 -143.25 91.65 -144.0 92.35 -142.1 92.6 -139.8 Q91.95 -140.35 90.8 -140.7 88.6 -141.45 86.3 -140.65" fill="#000000" fill-rule="evenodd" stroke="none"/>
    <path d="M105.55 -125.75 Q105.0 -126.95 103.25 -128.25 101.05 -129.95 97.65 -131.25 L97.95 -133.4 100.35 -131.25 101.2 -133.7 102.65 -131.6 104.3 -132.9 Q107.55 -135.3 107.45 -136.5 L108.05 -131.3 Q108.3 -128.95 107.95 -128.55 L106.55 -127.45 Q105.85 -126.7 105.55 -125.75" fill="#000000" fill-rule="evenodd" stroke="none"/>
    <path d="M107.8 -81.05 L106.6 -83.6 Q105.1 -86.25 103.5 -86.7 108.5 -91.7 114.95 -99.65 L116.85 -102.3 Q119.05 -104.75 120.5 -103.55 L125.45 -99.65 118.35 -91.0 Q110.7 -82.1 107.8 -81.05 Z" fill="none" stroke="#000000" stroke-linecap="butt" stroke-linejoin="miter-clip" stroke-miterlimit="10.0" stroke-width="1.0"/>
    <path d="M103.25 -86.25 L102.25 -84.3 101.0 -81.5 Q100.7 -80.4 99.35 -81.5 98.5 -82.05 98.15 -83.1 97.45 -85.25 99.85 -87.9 L101.85 -87.55 Q103.1 -87.05 103.25 -86.25 Z" fill="none" stroke="#000000" stroke-linecap="butt" stroke-linejoin="miter-clip" stroke-miterlimit="10.0" stroke-width="1.0"/>
    <path d="M71.95 -45.7 L66.95 -49.55 98.0 -82.1 95.6 -65.2 71.95 -45.7" fill="#000000" fill-rule="evenodd" stroke="none"/>
    <path d="M67.0 -49.25 L63.95 -46.25 65.55 -44.65 67.65 -42.3" fill="none" stroke="#000000" stroke-linecap="butt" stroke-linejoin="miter-clip" stroke-miterlimit="10.0" stroke-width="1.0"/>
    <path d="M68.0 -43.0 L63.4 -40.6 62.3 -40.5 Q60.95 -40.2 59.55 -39.2 L53.5 -35.6 50.15 -34.1 49.55 -33.0 Q49.15 -31.8 50.15 -31.2 51.15 -30.55 52.85 -30.8 L54.3 -31.2 54.7 -30.35 Q55.25 -29.5 55.8 -29.45 L56.65 -29.15 57.65 -28.55 Q58.2 -28.3 58.35 -27.6 58.75 -27.15 61.0 -27.6 63.6 -28.1 66.15 -29.7 68.4 -31.1 69.15 -32.35 L71.05 -33.85 71.95 -34.25" fill="none" stroke="#000000" stroke-linecap="butt" stroke-linejoin="miter-clip" stroke-miterlimit="10.0" stroke-width="1.0"/>
    <path d="M44.05 -42.6 L51.95 -48.1 51.65 -49.15 53.0 -50.2 54.1 -49.5 57.4 -48.45 59.9 -46.8 61.05 -46.2 62.8 -45.9 Q63.95 -46.15 63.9 -45.25 L63.15 -44.8 Q62.4 -44.2 62.3 -43.55 62.0 -41.5 62.7 -40.4 L51.5 -35.5 33.55 -23.05 32.0 -23.65 30.6 -22.65 27.4 -26.85 Q25.3 -29.65 25.5 -30.15 25.95 -31.65 26.55 -31.95 L27.0 -31.55 28.1 -31.25 44.05 -42.3 44.05 -42.6" fill="#000000" fill-rule="evenodd" stroke="none"/>
    <path d="M27.6 -26.6 L26.3 -25.7 24.45 -28.3 25.75 -29.2 27.6 -26.6 Z" fill="none" stroke="#000000" stroke-linecap="butt" stroke-linejoin="miter-clip" stroke-miterlimit="10.0" stroke-width="1.0"/>
    <path d="M28.0 -31.1 L30.7 -30.95 Q31.85 -31.4 40.9 -37.75 L41.4 -37.65 44.7 -40.0 44.9 -40.35 44.2 -42.1" fill="none" stroke="#ffffff" stroke-linecap="butt" stroke-linejoin="miter-clip" stroke-miterlimit="10.0" stroke-width="1.0"/>
    <path d="M55.35 -49.1 L56.3 -49.75 Q56.7 -50.55 57.15 -50.45 57.95 -50.25 58.05 -49.75 L58.6 -47.65 56.75 -48.55 55.6 -49.0 55.35 -49.1 Z" fill="none" stroke="#000000" stroke-linecap="butt" stroke-linejoin="miter-clip" stroke-miterlimit="10.0" stroke-width="1.0"/>
    <path d="M28.9 -24.85 L50.05 -39.45" fill="none" stroke="#ffffff" stroke-linecap="butt" stroke-linejoin="miter-clip" stroke-miterlimit="10.0" stroke-width="1.0"/>
    <path d="M51.45 -45.35 Q53.8 -43.8 54.3 -43.75 55.3 -43.65 55.5 -45.05 L55.65 -46.75 Q55.7 -47.8 54.75 -47.8 53.95 -47.85 52.35 -46.8 50.75 -45.7 51.45 -45.35 Z" fill="none" stroke="#ffffff" stroke-linecap="butt" stroke-linejoin="miter-clip" stroke-miterlimit="10.0" stroke-width="1.0"/>
    <path d="M47.85 -38.05 L44.15 -39.15 45.5 -40.1 49.7 -39.35 47.85 -38.05 Z" fill="none" stroke="#ffffff" stroke-linecap="butt" stroke-linejoin="miter-clip" stroke-miterlimit="10.0" stroke-width="1.0"/>
    <path d="M222.35 -87.95 Q223.5 -90.0 224.45 -92.75 225.15 -94.9 225.5 -95.15 L233.25 -86.15 Q241.35 -75.35 243.05 -66.05 246.7 -45.6 245.0 -29.05 244.2 -20.75 242.6 -16.55 237.35 -13.85 229.1 -11.6 212.7 -7.1 197.9 -9.15 197.6 -21.65 197.8 -36.15 197.95 -48.3 201.95 -61.75 205.55 -73.95 208.1 -75.25 218.15 -80.45 222.35 -87.95" fill="#000000" fill-rule="evenodd" stroke="none"/>
    <path d="M184.1 -79.0 L184.8 -75.5 Q179.85 -63.55 178.45 -57.7 177.8 -55.1 176.8 -46.55 175.95 -38.75 177.2 -24.8 177.85 -17.8 178.65 -12.35 175.5 -13.05 173.85 -14.85 172.75 -16.05 171.85 -18.4 171.25 -19.95 170.75 -24.9 170.05 -32.65 171.15 -41.25 172.55 -52.35 177.1 -64.7 181.1 -75.55 184.1 -79.0" fill="#000000" fill-rule="evenodd" stroke="none"/>
    <path d="M192.35 -81.05 L194.05 -81.75 Q196.7 -79.6 197.85 -76.45 198.9 -73.45 198.0 -73.9 197.55 -74.1 195.9 -73.4 L194.3 -72.65 193.6 -64.05 192.4 -47.95 Q192.05 -42.65 192.75 -36.75 193.2 -32.9 192.55 -32.5 L188.9 -30.0 Q186.15 -28.25 185.45 -28.95 L182.8 -31.65 Q180.9 -33.65 180.7 -34.65 180.45 -36.0 180.85 -38.8 181.35 -42.5 183.15 -50.45 184.8 -57.65 188.05 -66.45 L190.95 -73.85 189.0 -76.15 Q189.35 -77.45 190.05 -79.15 190.5 -80.2 192.35 -81.05" fill="#000000" fill-rule="evenodd" stroke="none"/>
    <path d="M108.95 -81.55 Q110.65 -78.85 109.65 -79.1 109.2 -79.2 107.7 -78.15 L106.3 -77.05 107.5 -68.5 109.9 -52.5 Q110.75 -47.35 112.7 -41.7 114.0 -38.0 113.45 -37.5 L110.5 -34.25 Q108.2 -31.9 107.35 -32.45 L104.1 -34.5 Q101.85 -36.1 101.45 -37.0 100.9 -38.25 100.65 -41.1 100.35 -44.8 100.35 -52.95 100.35 -60.3 101.55 -69.65 L102.75 -77.5 100.35 -79.3 Q100.4 -80.65 100.75 -82.45 100.95 -83.55 102.55 -84.85 L104.05 -85.9 Q107.15 -84.35 108.95 -81.55" fill="#000000" fill-rule="evenodd" stroke="none"/>
    <path d="M228.15 -142.1 Q233.65 -134.4 232.35 -125.6 231.6 -120.75 229.15 -113.05 227.55 -102.0 223.75 -102.5 221.35 -102.8 223.2 -107.8 L225.75 -114.95 Q225.85 -117.15 223.2 -117.6 220.55 -118.05 219.35 -115.95 217.95 -113.55 215.75 -113.55 213.45 -113.5 214.1 -116.9 214.7 -120.05 213.55 -123.0 213.05 -124.35 211.35 -126.95 210.4 -128.4 210.75 -129.35 211.1 -130.15 213.55 -133.1 215.75 -135.7 213.2 -137.9 210.8 -139.9 208.3 -139.3 L201.5 -137.65 Q196.8 -136.85 193.7 -137.55 192.95 -137.75 192.7 -139.0 L192.1 -141.6 Q190.65 -145.3 195.3 -147.85 199.75 -150.3 206.7 -150.05 L215.4 -148.9 Q224.75 -146.85 228.15 -142.1" fill="#000000" fill-rule="evenodd" stroke="none"/>
    <path d="M210.9 -18.65 L207.1 -18.5 202.1 -17.45 202.7 10.85 Q200.8 11.95 197.15 11.35 194.9 10.95 192.75 10.15 L191.05 9.45 186.8 -24.45 225.7 -20.35 Q226.2 -20.4 224.65 -4.1 223.1 12.1 222.8 12.55 222.55 12.9 221.6 13.1 L218.25 13.55 214.05 13.25 Q212.2 12.75 211.85 11.9 211.35 10.9 210.9 -18.65" fill="#000000" fill-rule="evenodd" stroke="none"/>
    <path d="M193.25 -138.9 L187.9 -133.5 181.9 -128.2 Q180.35 -127.2 180.25 -124.3 180.15 -121.4 181.65 -119.9 182.9 -118.65 183.1 -117.45 L183.15 -115.1" fill="none" stroke="#000000" stroke-linecap="round" stroke-linejoin="miter-clip" stroke-miterlimit="10.0" stroke-width="1.0"/>
    <path d="M181.85 -124.15 L183.15 -122.95 Q184.4 -121.45 184.4 -119.65 L184.05 -114.85 Q183.5 -112.05 182.15 -111.2 L179.05 -110.0 Q177.5 -109.35 177.45 -107.2 177.4 -105.0 178.25 -104.3 178.75 -103.95 179.85 -103.55 180.55 -103.05 180.65 -101.55 180.8 -100.15 180.25 -99.3 178.75 -97.05 180.7 -97.3 L182.35 -97.55 185.05 -97.05 189.7 -95.4 Q192.05 -94.35 192.5 -93.7" fill="none" stroke="#000000" stroke-linecap="round" stroke-linejoin="miter-clip" stroke-miterlimit="10.0" stroke-width="1.0"/>
    <path d="M180.4 -95.5 L180.15 -94.85 Q180.0 -94.15 180.3 -93.85 180.6 -93.55 181.45 -93.4 L182.25 -93.2 Q183.4 -91.8 182.85 -89.9 182.25 -88.0 182.95 -86.5 183.75 -84.85 185.8 -84.65 187.6 -84.5 189.75 -85.5 190.85 -85.95 191.55 -86.5" fill="none" stroke="#000000" stroke-linecap="round" stroke-linejoin="miter-clip" stroke-miterlimit="10.0" stroke-width="1.0"/>
    <path d="M199.1 -119.9 Q196.3 -124.35 195.55 -124.2 L192.95 -124.9" fill="none" stroke="#000000" stroke-linecap="round" stroke-linejoin="miter-clip" stroke-miterlimit="10.0" stroke-width="1.0"/>
    <path d="M192.4 -124.85 Q191.15 -124.05 190.05 -124.1 187.8 -124.2 188.6 -128.45" fill="none" stroke="#000000" stroke-linecap="round" stroke-linejoin="miter-clip" stroke-miterlimit="10.0" stroke-width="1.0"/>
    <path d="M197.8 -110.1 Q193.65 -110.3 192.95 -111.3" ffdec:has-small-stroke="true" ffdec:original-stroke-width="0.75" fill="none" stroke="#000000" stroke-linecap="round" stroke-linejoin="miter-clip" stroke-miterlimit="10.0" stroke-width="1.0"/>
    <path d="M192.1 -97.65 L191.2 -101.35 Q190.0 -105.3 188.8 -106.25 187.5 -107.3 187.2 -107.1 186.95 -106.9 187.65 -106.0 188.3 -105.2 187.75 -104.35 187.25 -103.45 186.0 -103.05" fill="none" stroke="#000000" stroke-linecap="round" stroke-linejoin="miter-clip" stroke-miterlimit="10.0" stroke-width="1.0"/>
    <path d="M182.9 -103.5 Q183.35 -103.35 183.4 -104.25 183.45 -105.05 182.8 -105.0 181.9 -104.85 181.7 -104.45 181.5 -103.95 182.9 -103.5 Z" fill="none" stroke="#000000" stroke-linecap="round" stroke-linejoin="miter-clip" stroke-miterlimit="10.0" stroke-width="1.0"/>
    <path d="M182.4 -109.0 L181.1 -109.75 178.6 -109.85" fill="none" stroke="#000000" stroke-linecap="round" stroke-linejoin="miter-clip" stroke-miterlimit="10.0" stroke-width="1.0"/>
    <path d="M216.85 -104.75 Q218.1 -103.05 218.65 -102.75 220.3 -101.9 221.95 -104.8 227.3 -114.1 225.9 -116.4" fill="none" stroke="#000000" stroke-linecap="round" stroke-linejoin="miter-clip" stroke-miterlimit="10.0" stroke-width="1.0"/>
    <path d="M196.5 -79.85 Q197.55 -78.2 197.85 -76.25 L198.7 -71.15 206.5 -74.55 Q215.0 -78.85 218.5 -83.3 221.95 -87.75 224.1 -91.9 L225.5 -95.15 Q225.45 -97.45 224.0 -99.0 L222.55 -100.55 Q221.05 -98.05 218.3 -95.05 212.85 -89.1 206.7 -86.75 200.6 -84.35 196.8 -83.1 L194.25 -82.3 191.65 -82.5 Q189.0 -82.85 188.6 -83.7 L188.0 -85.05 186.6 -83.95 Q185.1 -82.45 184.5 -80.15 183.9 -77.85 186.05 -74.7 187.15 -73.1 188.35 -71.95 188.5 -74.25 189.25 -76.6 190.8 -81.35 193.9 -81.65 195.25 -81.75 196.5 -79.85 Z" fill="none" stroke="#000000" stroke-linecap="round" stroke-linejoin="round" stroke-width="1.0"/>
    <path d="M219.55 15.95 L220.9 17.15 Q222.3 18.6 222.25 19.7 222.15 21.45 219.05 23.55 L218.6 22.45 218.05 23.25 218.25 23.9 Q218.65 26.05 216.65 27.35 214.9 28.45 211.8 28.7 L206.65 28.2 204.3 27.5 Q204.0 25.7 205.55 23.75 207.15 21.65 209.65 21.2 L215.35 15.95 215.75 16.55 Q216.3 17.1 217.15 17.15 218.3 17.2 219.05 16.6 L219.55 15.95" fill="#000000" fill-rule="evenodd" stroke="none"/>
    <path d="M199.95 16.2 Q201.1 17.6 200.7 19.75 200.35 21.7 199.4 22.2 198.4 22.8 194.0 23.6 L194.15 22.0 193.05 22.15 192.7 22.8 Q191.15 24.65 187.25 24.85 183.55 25.05 180.45 23.6 177.6 22.3 177.5 20.5 177.4 18.9 179.4 17.55 181.45 16.25 186.5 17.25 L190.1 16.7 Q193.25 16.2 194.7 15.0 L195.45 15.75 Q196.4 16.55 197.5 16.85 199.0 17.2 199.95 16.2" fill="#000000" fill-rule="evenodd" stroke="none"/>
    <path d="M78.4 19.25 L81.95 18.4 Q85.1 17.65 86.4 16.25 L87.2 16.95 Q88.2 17.7 89.35 17.9 90.85 18.15 91.7 17.1 93.0 18.35 92.75 20.55 92.6 22.45 91.7 23.1 90.75 23.75 86.45 24.9 L86.45 23.3 85.35 23.55 85.05 24.2 Q83.65 26.15 79.8 26.7 76.1 27.2 72.95 26.05 69.95 25.0 69.7 23.2 69.45 21.6 71.35 20.1 73.25 18.65 78.4 19.25" fill="#000000" fill-rule="evenodd" stroke="none"/>
    <path d="M160.25 18.55 Q165.3 17.95 167.25 19.45 169.2 20.95 168.95 22.5 168.7 24.3 165.7 25.4 162.5 26.55 158.85 26.05 155.0 25.5 153.6 23.55 L153.3 22.9 152.2 22.65 152.2 24.25 Q147.9 23.1 146.95 22.4 146.1 21.8 145.9 19.85 145.65 17.7 146.9 16.4 L147.55 16.9 Q148.35 17.4 149.3 17.25 151.15 16.95 152.25 15.6 L153.3 16.35 Q154.7 17.25 156.65 17.7 L160.25 18.55" fill="#000000" fill-rule="evenodd" stroke="none"/>
    <path d="M234.55 -156.1 Q235.35 -155.85 235.75 -155.2 236.15 -154.5 235.95 -153.7 235.75 -152.9 235.05 -152.5 L233.55 -152.3 233.25 -152.4 228.75 -142.8 200.9 -150.35 201.75 -161.0 Q201.05 -161.25 200.7 -161.95 200.3 -162.6 200.5 -163.35 200.75 -164.15 201.4 -164.55 L202.9 -164.75 Q203.7 -164.5 204.1 -163.8 204.55 -163.1 204.3 -162.3 204.05 -161.35 203.1 -161.0 L207.3 -154.0 210.55 -156.8 Q209.45 -157.65 209.85 -158.9 210.05 -159.7 210.75 -160.1 L212.25 -160.3 213.45 -159.35 Q213.85 -158.65 213.6 -157.85 213.3 -156.65 211.95 -156.45 L212.6 -152.45 217.75 -159.6 Q216.45 -160.4 216.85 -161.8 217.05 -162.55 217.75 -162.95 L219.25 -163.15 Q220.05 -162.9 220.45 -162.25 220.85 -161.55 220.6 -160.75 220.3 -159.6 219.1 -159.35 L219.85 -150.4 222.75 -153.45 Q221.5 -154.2 221.85 -155.6 222.1 -156.4 222.75 -156.8 L224.25 -157.0 Q225.05 -156.75 225.45 -156.1 225.85 -155.4 225.65 -154.6 225.35 -153.35 223.95 -153.15 L225.0 -148.9 232.5 -153.05 Q231.95 -153.8 232.15 -154.75 232.4 -155.55 233.05 -155.95 L234.55 -156.1" fill="#050102" fill-rule="evenodd" stroke="none"/>
    <path d="M228.45 -141.7 L200.45 -149.3 200.75 -150.4 228.75 -142.8 228.45 -141.7" fill="#e2e2e2" fill-rule="evenodd" stroke="none"/>
    <path d="M185.4 -96.75 Q190.75 -96.05 191.4 -94.0 189.6 -95.85 184.7 -95.75 L180.2 -95.3 180.15 -97.1 185.4 -96.75" fill="#000000" fill-rule="evenodd" stroke="none"/>
    <path d="M191.1 -116.1 L191.4 -115.1 191.1 -114.05 190.4 -113.65 Q190.0 -113.65 189.7 -114.05 189.45 -114.5 189.45 -115.1 189.45 -115.7 189.7 -116.1 190.0 -116.55 190.4 -116.55 L191.1 -116.1" fill="#000000" fill-rule="evenodd" stroke="none"/>
    <path d="M194.6 -116.75 Q194.6 -114.85 193.85 -113.5 193.1 -112.15 192.0 -112.15 190.95 -112.15 190.2 -113.5 189.45 -114.85 189.45 -116.75 189.45 -118.65 190.2 -120.05 190.95 -121.4 192.0 -121.4 193.1 -121.4 193.85 -120.05 194.6 -118.65 194.6 -116.75 Z" fill="none" stroke="#000000" stroke-linecap="butt" stroke-linejoin="miter-clip" stroke-miterlimit="10.0" stroke-width="1.0"/>
    <path d="M207.3 -93.1 L203.85 -88.1 Q202.15 -85.7 198.1 -81.75 L194.35 -78.25 Q194.7 -75.55 194.3 -72.75 193.7 -68.7 191.5 -68.75 L191.1 -68.65 Q188.35 -68.7 187.05 -69.5 185.35 -70.55 185.7 -73.0 186.1 -75.8 185.9 -76.5 185.55 -78.1 183.1 -80.5 180.85 -82.7 178.65 -85.75 176.5 -88.75 175.95 -90.55 175.1 -93.25 176.2 -94.75 177.25 -96.2 178.2 -94.0 178.8 -92.55 178.65 -92.0 178.55 -91.65 179.35 -90.25 179.15 -92.3 179.1 -94.65 178.9 -99.5 180.35 -99.6 181.75 -99.7 181.95 -97.05 L182.2 -94.9 182.1 -97.05 Q182.0 -99.25 183.2 -101.3 183.95 -102.6 185.3 -102.85 186.8 -103.2 186.65 -101.15 186.35 -97.55 187.05 -96.9 187.3 -98.95 188.05 -100.95 189.45 -105.0 191.7 -104.9 193.25 -104.8 193.2 -101.45 193.15 -97.0 193.5 -96.2 195.05 -92.5 196.0 -91.55 198.05 -89.45 200.55 -92.8 205.55 -99.45 207.85 -96.35 208.6 -95.4 207.3 -93.1" fill="#ffffff" fill-rule="evenodd" stroke="none"/>
    <path d="M207.3 -93.1 L203.85 -88.1 Q202.15 -85.7 198.1 -81.75 L194.35 -78.25 194.9 -73.55 Q194.8 -70.1 192.6 -69.1 189.9 -67.9 187.7 -69.05 185.4 -70.2 185.7 -73.0 L185.9 -76.55 Q185.55 -78.1 183.1 -80.5 180.85 -82.7 178.65 -85.75 176.5 -88.75 175.95 -90.55 175.1 -93.25 176.2 -94.75 177.25 -96.2 178.2 -94.0 178.8 -92.55 178.65 -92.0 178.55 -91.65 179.35 -90.25 179.15 -92.3 179.1 -94.65 178.9 -99.5 180.35 -99.6 181.75 -99.7 181.95 -97.05 L182.2 -94.9 182.1 -97.05 Q182.0 -99.25 183.2 -101.3 183.95 -102.6 185.3 -102.85 186.8 -103.2 186.65 -101.15 186.35 -97.55 187.05 -96.9 187.3 -98.95 188.05 -100.95 189.45 -105.0 191.7 -104.9 193.25 -104.8 193.2 -101.45 193.15 -97.0 193.5 -96.2 195.05 -92.5 196.0 -91.55 198.05 -89.45 200.55 -92.8 205.55 -99.45 207.85 -96.35 208.6 -95.4 207.3 -93.1 Z" fill="none" stroke="#000000" stroke-linecap="butt" stroke-linejoin="round" stroke-width="1.0"/>
    <path d="M194.9 -68.1 L199.45 -68.7 200.45 -62.05 Q202.15 -54.25 205.65 -48.6 209.7 -42.1 213.8 -37.9 215.9 -35.8 217.15 -35.0 213.35 -33.0 209.05 -31.45 200.45 -28.4 197.85 -30.65 195.25 -32.95 188.85 -47.0 L183.0 -60.65 184.75 -62.9 Q186.6 -65.3 187.35 -65.75 189.8 -67.25 194.9 -68.1" fill="#000000" fill-rule="evenodd" stroke="none"/>
    <path d="M196.8 -74.05 L199.35 -68.7 195.95 -68.55 Q192.1 -68.15 189.9 -66.7 187.7 -65.25 187.25 -63.3 187.05 -62.3 187.3 -61.6 L183.0 -68.35 187.6 -72.1 Q192.95 -75.5 196.8 -74.05" fill="#e2e2e2" fill-rule="evenodd" stroke="none"/>
    <path d="M196.8 -74.05 L199.35 -68.7 195.95 -68.55 Q192.1 -68.15 189.9 -66.7 187.7 -65.25 187.25 -63.3 187.05 -62.3 187.3 -61.6 L183.0 -68.35 187.6 -72.1 Q192.95 -75.5 196.8 -74.05 Z" fill="none" stroke="#000000" stroke-linecap="butt" stroke-linejoin="round" stroke-width="1.0"/>
    <path d="M194.35 -55.25 L221.65 -76.4 229.95 -62.65 Q224.45 -55.95 217.35 -49.85 203.15 -37.7 195.05 -40.9 L194.35 -55.25" fill="#000000" fill-rule="evenodd" stroke="none"/>
  </g>
</svg>
