<?xml version="1.0" encoding="UTF-8" standalone="no"?>
<svg xmlns:ffdec="https://www.free-decompiler.com/flash" xmlns:xlink="http://www.w3.org/1999/xlink" ffdec:objectType="shape" height="193.15px" width="144.1px" xmlns="http://www.w3.org/2000/svg">
  <g transform="matrix(1.0, 0.0, 0.0, 1.0, -9.3, 33.0)">
    <path d="M125.05 147.2 L125.45 147.8 Q126.05 148.35 126.9 148.35 128.7 148.35 129.2 147.0 L130.65 148.2 Q132.05 149.6 132.05 150.7 132.05 152.45 129.0 154.65 L128.5 153.55 128.0 154.4 128.2 155.05 Q128.7 157.15 126.75 158.5 125.0 159.65 121.95 160.05 L116.8 159.75 114.4 159.1 Q114.1 157.3 115.5 155.3 117.05 153.15 119.55 152.65 L125.05 147.2" fill="#000000" fill-rule="evenodd" stroke="none"/>
    <path d="M99.55 147.95 Q102.55 146.75 103.65 145.2 L104.55 145.8 Q105.65 146.4 106.8 146.4 108.35 146.4 109.0 145.2 110.45 146.3 110.6 148.5 110.7 150.4 109.9 151.15 109.0 151.95 104.95 153.75 L104.75 152.15 103.65 152.55 103.45 153.25 Q102.4 155.4 98.65 156.5 L91.75 156.85 Q88.65 156.2 88.15 154.5 87.7 152.95 89.35 151.2 91.05 149.4 96.15 149.3 L99.55 147.95" fill="#000000" fill-rule="evenodd" stroke="none"/>
    <path d="M114.65 56.25 Q124.5 50.7 128.45 43.1 129.55 41.0 130.4 38.2 131.05 36.0 131.4 35.75 L139.45 44.45 Q147.9 55.05 149.9 64.25 154.3 84.55 153.15 101.2 152.6 109.5 151.15 113.75 146.0 116.6 137.85 119.15 121.55 124.25 106.7 122.7 106.0 110.2 105.7 95.7 105.45 83.55 109.0 69.95 112.15 57.65 114.65 56.25" fill="#000000" fill-rule="evenodd" stroke="none"/>
    <path d="M90.55 53.35 L91.4 56.85 Q86.85 69.0 85.65 74.8 85.05 77.55 84.4 86.0 83.8 93.8 85.55 107.8 86.4 114.8 87.4 120.2 84.25 119.55 82.5 117.8 81.4 116.7 80.4 114.35 79.75 113.0 79.05 107.9 78.1 100.15 78.9 91.5 79.95 80.3 84.05 67.85 87.7 56.9 90.55 53.35" fill="#000000" fill-rule="evenodd" stroke="none"/>
    <path d="M98.7 51.0 Q99.6 50.55 100.4 50.25 103.15 52.35 104.35 55.45 105.5 58.35 104.6 58.0 104.15 57.8 102.5 58.55 L100.95 59.35 99.9 84.15 Q99.75 89.35 100.6 95.25 101.2 99.1 100.55 99.55 L97.0 102.2 Q94.3 104.05 93.6 103.35 L90.85 100.75 Q88.85 98.75 88.65 97.8 88.1 94.9 90.55 81.9 91.95 74.65 94.9 65.75 L97.55 58.25 95.5 56.05 Q95.8 54.7 96.5 53.0 96.95 51.95 98.7 51.0" fill="#000000" fill-rule="evenodd" stroke="none"/>
    <path d="M132.4 -11.2 Q138.2 -3.7 137.15 5.2 136.6 10.05 134.4 17.8 133.2 28.9 129.4 28.55 126.95 28.3 128.6 23.25 L130.9 16.0 Q130.9 13.8 128.3 13.45 125.65 13.05 124.5 15.25 123.2 17.7 121.0 17.75 118.7 17.85 119.25 14.45 119.75 11.3 118.5 8.4 117.9 7.0 116.15 4.55 115.1 3.1 115.45 2.15 115.75 1.25 118.15 -1.7 120.3 -4.35 117.6 -6.5 115.15 -8.45 112.65 -7.7 L105.9 -5.85 98.15 -5.45 Q97.35 -5.65 97.05 -6.9 L96.4 -9.45 Q94.8 -13.15 99.35 -15.8 103.75 -18.4 110.65 -18.4 L119.35 -17.55 Q128.8 -15.8 132.4 -11.2" fill="#000000" fill-rule="evenodd" stroke="none"/>
    <path d="M119.4 112.75 L115.65 113.0 110.65 114.25 112.2 142.5 110.85 143.05 106.7 143.2 102.25 142.15 100.55 141.5 95.15 107.75 134.15 110.5 Q134.6 110.5 133.65 126.8 132.7 143.05 132.4 143.5 132.15 143.85 131.2 144.1 L127.9 144.7 123.65 144.55 Q121.8 144.05 121.4 143.25 120.9 142.25 119.4 112.75" fill="#000000" fill-rule="evenodd" stroke="none"/>
    <path d="M97.6 -6.85 L92.45 -1.25 Q88.1 3.25 86.65 4.25 85.1 5.35 85.1 8.25 85.1 11.15 86.65 12.55 87.95 13.75 88.2 14.95 L88.35 17.3" fill="none" stroke="#000000" stroke-linecap="round" stroke-linejoin="miter-clip" stroke-miterlimit="10.0" stroke-width="1.0"/>
    <path d="M86.75 8.35 L88.05 9.45 Q89.4 10.9 89.45 12.7 L89.25 17.5 Q88.8 20.35 87.45 21.25 L84.4 22.5 Q82.9 23.25 82.95 25.4 83.0 27.6 83.8 28.25 84.3 28.6 85.4 28.95 86.15 29.45 86.35 30.95 86.5 32.35 86.0 33.2 85.4 34.25 85.35 34.7 85.35 35.35 86.5 35.2 L88.15 34.9 90.9 35.25 Q93.2 35.8 95.6 36.8 97.95 37.8 98.4 38.4" fill="none" stroke="#000000" stroke-linecap="round" stroke-linejoin="miter-clip" stroke-miterlimit="10.0" stroke-width="1.0"/>
    <path d="M87.45 35.7 L87.25 36.35 Q87.1 37.1 87.45 37.4 L88.6 37.8 89.4 37.95 Q90.6 39.4 90.1 41.2 89.55 43.2 90.3 44.65 91.15 46.3 93.2 46.4 95.05 46.5 97.15 45.45 L98.9 44.35" fill="none" stroke="#000000" stroke-linecap="round" stroke-linejoin="miter-clip" stroke-miterlimit="10.0" stroke-width="1.0"/>
    <path d="M104.95 12.0 L102.95 9.85 Q100.9 7.7 100.45 7.8 L92.95 11.4" fill="none" stroke="#000000" stroke-linecap="round" stroke-linejoin="miter-clip" stroke-miterlimit="10.0" stroke-width="1.0"/>
    <path d="M98.1 13.15 L94.45 13.45 Q90.95 12.85 91.55 8.6" fill="none" stroke="#000000" stroke-linecap="round" stroke-linejoin="miter-clip" stroke-miterlimit="10.0" stroke-width="1.0"/>
    <path d="M100.5 15.85 L98.3 15.0 Q97.0 14.55 96.15 14.45 95.8 16.2 94.75 16.0 93.85 15.8 94.05 15.15 94.2 14.45 95.4 14.4 L96.15 14.45" fill="none" stroke="#000000" stroke-linecap="round" stroke-linejoin="miter-clip" stroke-miterlimit="10.0" stroke-width="1.0"/>
    <path d="M95.9 20.35 L94.65 18.6 Q93.4 16.7 93.6 16.0" fill="none" stroke="#000000" stroke-linecap="round" stroke-linejoin="miter-clip" stroke-miterlimit="10.0" stroke-width="1.0"/>
    <path d="M97.9 34.45 L96.85 30.75 Q95.55 26.9 94.3 26.0 92.95 24.95 92.65 25.2 92.4 25.4 93.15 26.25 93.8 27.05 93.3 27.95 92.8 28.85 91.6 29.25" fill="none" stroke="#000000" stroke-linecap="round" stroke-linejoin="miter-clip" stroke-miterlimit="10.0" stroke-width="1.0"/>
    <path d="M88.5 28.9 Q88.95 29.05 88.95 28.2 89.0 27.35 88.35 27.45 87.45 27.6 87.25 28.0 87.05 28.5 88.5 28.9 Z" fill="none" stroke="#000000" stroke-linecap="round" stroke-linejoin="miter-clip" stroke-miterlimit="10.0" stroke-width="1.0"/>
    <path d="M87.8 23.45 L86.5 22.75 84.0 22.7" fill="none" stroke="#000000" stroke-linecap="round" stroke-linejoin="miter-clip" stroke-miterlimit="10.0" stroke-width="1.0"/>
    <path d="M122.4 26.5 L124.25 28.4 Q125.9 29.25 127.5 26.25 132.55 16.9 131.0 14.55" fill="none" stroke="#000000" stroke-linecap="round" stroke-linejoin="miter-clip" stroke-miterlimit="10.0" stroke-width="1.0"/>
    <path d="M124.15 36.1 Q118.95 42.25 112.9 44.85 L103.1 48.85 100.55 49.7 Q95.55 49.85 94.9 48.5 L94.2 47.2 92.85 48.3 Q91.4 49.9 90.9 52.2 90.35 54.5 92.65 57.6 93.75 59.15 95.0 60.25 95.05 57.95 95.75 55.55 97.15 50.8 100.25 50.4 101.6 50.25 102.85 52.05 103.95 53.65 104.4 55.65 L105.4 60.7 Q108.9 59.35 113.05 57.05 121.4 52.5 124.75 47.9 128.1 43.3 130.1 39.05 L131.4 35.75 Q131.2 33.5 129.7 32.0 L128.2 30.5 Q126.8 33.05 124.15 36.1 Z" fill="none" stroke="#000000" stroke-linecap="round" stroke-linejoin="round" stroke-width="1.0"/>
    <path d="M139.5 -24.55 Q139.95 -23.9 139.75 -23.1 139.55 -22.3 138.9 -21.85 138.2 -21.4 137.4 -21.6 L137.15 -21.7 132.95 -11.9 104.85 -18.55 105.35 -29.2 Q104.65 -29.45 104.25 -30.1 103.85 -30.75 104.05 -31.5 104.25 -32.3 104.95 -32.7 105.6 -33.15 106.4 -32.95 107.2 -32.75 107.6 -32.05 108.05 -31.4 107.85 -30.6 107.65 -29.65 106.7 -29.25 L111.15 -22.4 114.25 -25.35 Q113.2 -26.05 113.5 -27.4 113.7 -28.2 114.4 -28.6 L115.85 -28.85 Q116.65 -28.65 117.05 -27.95 117.5 -27.3 117.3 -26.5 117.05 -25.2 115.7 -25.0 L116.5 -21.0 121.35 -28.35 Q120.1 -29.05 120.4 -30.5 120.6 -31.3 121.3 -31.7 L122.75 -31.95 Q123.55 -31.75 123.95 -31.05 124.4 -30.4 124.2 -29.6 123.95 -28.4 122.75 -28.15 L123.85 -19.2 126.6 -22.35 Q126.05 -22.65 125.75 -23.25 125.5 -23.85 125.65 -24.5 125.85 -25.3 126.55 -25.7 L128.0 -25.95 Q128.8 -25.75 129.2 -25.05 129.65 -24.4 129.45 -23.6 129.1 -22.25 127.8 -22.1 L129.0 -17.9 136.35 -22.3 Q135.7 -23.0 135.95 -24.0 136.15 -24.8 136.85 -25.2 L138.3 -25.45 Q139.1 -25.25 139.5 -24.55" fill="#050102" fill-rule="evenodd" stroke="none"/>
    <path d="M132.7 -10.8 L104.45 -17.45 104.7 -18.55 133.0 -11.9 132.7 -10.8" fill="#ffffff" fill-rule="evenodd" stroke="none"/>
    <path d="M95.2 13.95 Q95.95 14.2 96.15 14.8 96.35 15.35 95.85 16.1 95.35 16.9 94.4 16.75 93.4 16.6 93.2 15.55 93.0 14.45 93.65 14.0 L95.2 13.95" fill="#000000" fill-rule="evenodd" stroke="none"/>
    <path d="M44.05 35.85 Q42.05 31.05 41.85 26.8 41.65 23.4 44.95 23.2 L51.9 23.95 54.25 26.15 Q57.05 29.4 59.0 34.55 61.05 39.9 55.9 41.25 52.5 42.15 48.2 41.3 46.1 40.9 44.05 35.85" fill="#000000" fill-rule="evenodd" stroke="none"/>
    <path d="M9.95 63.5 Q8.95 59.6 9.45 58.75 10.15 57.5 17.55 51.15 23.95 45.7 33.4 42.5 38.1 40.9 41.55 40.4 L49.6 38.4 53.75 36.95 Q55.9 36.05 56.95 36.05 60.0 36.0 62.35 43.25 65.4 52.5 63.8 59.75 61.9 68.25 53.2 76.85 45.35 84.65 33.95 82.85 27.9 81.9 21.45 78.3 18.75 76.8 14.95 72.1 10.85 67.05 9.95 63.5" fill="#000000" fill-rule="evenodd" stroke="none"/>
    <path d="M58.7 61.4 Q61.9 65.55 66.0 74.75 69.1 75.3 71.85 76.65 75.95 78.65 75.2 80.95 L75.2 81.45 Q74.25 84.35 73.0 85.45 71.3 86.9 68.8 85.75 65.9 84.4 65.1 84.3 63.3 84.2 59.95 86.0 56.85 87.7 52.9 89.0 48.95 90.3 46.85 90.35 43.7 90.4 42.5 88.75 41.3 87.05 43.95 86.8 L46.2 86.95 48.3 86.8 43.5 85.65 Q38.3 84.2 38.65 82.65 39.0 81.15 41.95 81.8 L44.3 82.25 42.0 81.65 Q39.55 81.0 37.8 79.05 36.65 77.8 36.8 76.25 36.95 74.55 39.1 75.45 42.8 76.95 43.75 76.4 L39.75 74.05 Q35.9 71.2 36.75 68.8 37.35 67.2 40.95 68.3 L46.65 69.75 Q51.05 69.35 52.4 68.65 55.35 67.2 52.6 63.4 47.15 55.9 51.25 54.4 52.45 53.95 54.45 56.1 L58.7 61.4" fill="#ffffff" fill-rule="evenodd" stroke="none"/>
    <path d="M58.7 61.4 Q61.9 65.55 66.0 74.75 L71.2 75.8 Q74.9 77.0 75.2 79.7 75.6 83.0 73.65 84.95 71.65 87.0 68.8 85.75 65.75 84.4 65.1 84.35 63.3 84.2 59.95 86.0 56.85 87.7 52.9 89.0 48.95 90.3 46.85 90.35 43.7 90.4 42.5 88.75 41.3 87.05 43.95 86.8 L46.2 86.95 48.3 86.8 43.5 85.65 Q38.3 84.2 38.65 82.65 39.0 81.15 41.95 81.8 L44.3 82.25 42.0 81.65 Q39.55 81.0 37.8 79.05 36.65 77.8 36.8 76.25 36.95 74.55 39.1 75.45 42.8 76.95 43.75 76.4 L39.75 74.05 Q35.9 71.2 36.75 68.8 37.35 67.2 40.95 68.3 L46.65 69.75 Q51.05 69.35 52.4 68.65 55.35 67.2 52.6 63.4 47.15 55.9 51.25 54.4 52.45 53.95 54.45 56.1 L58.7 61.4 Z" fill="none" stroke="#000000" stroke-linecap="butt" stroke-linejoin="round" stroke-width="1.0"/>
    <path d="M24.3 49.6 Q22.85 41.95 22.65 33.75 22.3 17.4 28.75 14.7 35.2 12.0 40.4 17.2 42.95 19.85 44.25 23.0" fill="none" stroke="#000000" stroke-linecap="round" stroke-linejoin="round" stroke-width="2.0"/>
    <path d="M81.05 92.7 Q77.4 87.9 77.05 86.35 76.25 83.25 77.0 77.55 L77.9 72.5 85.35 73.65 Q94.2 74.4 101.4 72.5 109.6 70.4 115.45 67.35 118.4 65.85 119.65 64.75 L120.75 74.55 Q121.2 84.7 117.9 86.75 114.6 88.8 97.5 90.95 L81.05 92.7" fill="#000000" fill-rule="evenodd" stroke="none"/>
    <path d="M71.3 73.55 L77.85 72.6 76.9 76.25 Q76.05 80.5 76.85 83.35 77.65 86.2 79.6 87.3 80.6 87.85 81.4 87.8 L72.8 90.15 Q71.3 87.45 70.35 84.05 68.5 77.2 71.3 73.55" fill="#ffffff" fill-rule="evenodd" stroke="none"/>
    <path d="M71.3 73.55 L77.85 72.6 76.9 76.25 Q76.05 80.5 76.85 83.35 77.65 86.2 79.6 87.3 80.6 87.85 81.4 87.8 L72.8 90.15 Q71.3 87.45 70.35 84.05 68.5 77.2 71.3 73.55 Z" fill="none" stroke="#000000" stroke-linecap="butt" stroke-linejoin="round" stroke-width="1.0"/>
    <path d="M38.15 21.05 Q40.8 19.3 42.85 20.8 44.75 22.25 44.15 24.45 L43.05 27.85 Q41.9 29.15 38.0 28.4 34.0 27.65 34.8 25.05 35.4 22.95 38.15 21.05" fill="#ffffff" fill-rule="evenodd" stroke="none"/>
    <path d="M38.15 21.05 Q35.4 22.95 34.8 25.05 34.0 27.65 38.0 28.4 41.9 29.15 43.05 27.85 L44.15 24.45 Q44.75 22.25 42.85 20.8 40.8 19.3 38.15 21.05 Z" fill="none" stroke="#000000" stroke-linecap="round" stroke-linejoin="round" stroke-width="1.0"/>
    <path d="M43.0 34.0 L39.9 34.05 Q38.2 33.4 38.0 31.7 37.85 30.05 39.05 29.35 39.85 28.9 41.75 28.7 45.95 28.15 45.7 31.4 45.6 33.15 44.3 33.75 L43.0 34.0" fill="#ffffff" fill-rule="evenodd" stroke="none"/>
    <path d="M43.0 34.0 L39.9 34.05 Q38.2 33.4 38.0 31.7 37.85 30.05 39.05 29.35 39.85 28.9 41.75 28.7 45.95 28.15 45.7 31.4 45.6 33.15 44.3 33.75 L43.0 34.0 Z" fill="none" stroke="#000000" stroke-linecap="round" stroke-linejoin="round" stroke-width="1.0"/>
    <path d="M41.55 38.9 Q40.6 36.95 41.5 35.85 42.25 34.9 44.9 34.0 47.25 33.2 47.75 35.05 48.15 36.7 46.95 38.3 45.85 39.75 44.05 40.0 42.2 40.25 41.55 38.9" fill="#ffffff" fill-rule="evenodd" stroke="none"/>
    <path d="M41.55 38.9 Q42.2 40.25 44.05 40.0 45.85 39.75 46.95 38.3 48.15 36.7 47.75 35.05 47.25 33.2 44.9 34.0 42.25 34.9 41.5 35.85 40.6 36.95 41.55 38.9 Z" fill="none" stroke="#000000" stroke-linecap="round" stroke-linejoin="round" stroke-width="1.0"/>
    <path d="M47.8 37.3 Q48.6 36.1 50.25 37.55 51.85 39.05 51.15 40.95 50.6 42.4 48.65 42.9 46.7 43.4 45.7 42.1 44.85 41.05 45.85 39.65 L47.8 37.3" fill="#ffffff" fill-rule="evenodd" stroke="none"/>
    <path d="M47.8 37.3 Q48.6 36.1 50.25 37.55 51.85 39.05 51.15 40.95 50.6 42.4 48.65 42.9 46.7 43.4 45.7 42.1 44.85 41.05 45.85 39.65 L47.8 37.3 Z" fill="none" stroke="#000000" stroke-linecap="round" stroke-linejoin="round" stroke-width="1.0"/>
    <path d="M44.65 26.1 Q43.9 23.95 44.95 22.75 45.55 22.1 47.45 21.3 49.95 20.2 50.5 20.05 L53.6 20.0 Q55.9 20.5 58.3 22.5 61.25 24.85 61.5 27.45 61.7 29.4 61.35 32.7 61.45 35.4 63.75 37.3 66.65 39.75 67.7 43.0 68.75 46.45 66.75 48.15 64.95 49.7 63.3 48.65 L59.5 45.25 Q56.5 42.6 55.25 40.8 53.55 38.3 54.25 36.3 55.2 33.7 55.15 32.25 55.05 30.2 53.25 28.4 52.0 27.15 48.4 27.5 45.25 27.8 44.65 26.1" fill="#ffffff" fill-rule="evenodd" stroke="none"/>
    <path d="M44.65 26.1 Q45.25 27.8 48.4 27.5 52.0 27.15 53.25 28.4 55.05 30.2 55.15 32.25 55.2 33.7 54.25 36.3 53.55 38.3 55.25 40.8 56.5 42.6 59.5 45.25 L63.3 48.65 Q64.95 49.7 66.75 48.15 68.75 46.45 67.7 43.0 66.65 39.75 63.75 37.3 61.45 35.4 61.35 32.7 61.7 29.4 61.5 27.45 61.25 24.85 58.3 22.5 55.9 20.5 53.6 20.0 L50.5 20.05 Q49.95 20.2 47.45 21.3 45.55 22.1 44.95 22.75 43.9 23.95 44.65 26.1 Z" fill="none" stroke="#000000" stroke-linecap="round" stroke-linejoin="round" stroke-width="1.0"/>
  </g>
</svg>
