<?xml version="1.0" encoding="UTF-8" standalone="no"?>
<svg xmlns:ffdec="https://www.free-decompiler.com/flash" xmlns:xlink="http://www.w3.org/1999/xlink" ffdec:objectType="shape" height="193.15px" width="145.8px" xmlns="http://www.w3.org/2000/svg">
  <g transform="matrix(1.0, 0.0, 0.0, 1.0, -107.6, 33.0)">
    <path d="M131.7 147.0 L132.2 147.7 Q132.9 148.35 134.05 148.35 135.4 148.35 135.9 147.2 L141.4 152.65 Q143.9 153.15 145.45 155.3 146.9 157.3 146.55 159.1 142.65 160.45 139.0 160.05 135.95 159.65 134.2 158.5 132.2 157.15 132.7 155.05 L132.9 154.4 132.45 153.55 131.9 154.65 130.4 153.35 Q128.9 151.8 128.9 150.7 128.9 149.6 130.3 148.2 L131.7 147.0" fill="#000000" fill-rule="evenodd" stroke="none"/>
    <path d="M164.75 149.3 Q169.95 149.4 171.6 151.2 173.3 152.95 172.8 154.5 172.3 156.2 169.15 156.85 L162.25 156.5 Q158.55 155.4 157.45 153.25 L157.25 152.55 156.2 152.15 156.0 153.75 Q151.9 151.95 151.05 151.15 150.25 150.4 150.35 148.5 150.45 146.3 151.9 145.2 L152.45 145.8 Q153.15 146.4 154.1 146.4 156.0 146.4 157.25 145.2 L158.2 146.15 Q159.5 147.2 161.35 147.95 L164.75 149.3" fill="#000000" fill-rule="evenodd" stroke="none"/>
    <path d="M146.3 56.25 Q148.75 57.65 151.95 69.95 155.45 83.55 155.2 95.7 154.95 110.2 154.2 122.7 139.35 124.25 123.1 119.15 114.95 116.6 109.8 113.75 108.35 109.5 107.8 101.2 106.7 84.55 111.05 64.25 113.05 55.05 121.5 44.45 L129.55 35.75 Q129.9 36.0 130.55 38.2 131.4 41.0 132.5 43.1 136.45 50.7 146.3 56.25" fill="#000000" fill-rule="evenodd" stroke="none"/>
    <path d="M170.4 53.35 Q173.25 56.9 176.9 67.85 181.0 80.35 182.05 91.5 182.85 100.15 181.85 107.9 181.25 112.65 180.55 114.35 179.55 116.7 178.45 117.8 176.7 119.55 173.55 120.2 L175.45 107.8 Q177.2 93.8 176.55 86.0 175.9 77.55 175.3 74.8 174.1 69.0 169.55 56.85 L170.4 53.35" fill="#000000" fill-rule="evenodd" stroke="none"/>
    <path d="M164.45 53.0 L165.4 56.05 163.4 58.25 166.05 65.75 Q169.0 74.65 170.35 81.9 171.85 89.9 172.25 93.6 172.55 96.45 172.25 97.8 172.05 98.75 170.1 100.75 L167.3 103.35 Q166.6 104.05 163.9 102.2 L160.35 99.55 Q159.75 99.1 160.3 95.25 161.2 89.35 161.05 84.15 L160.0 59.35 158.45 58.55 Q156.75 57.8 156.3 58.0 155.4 58.4 156.6 55.45 157.8 52.35 160.55 50.25 L162.25 51.0 Q164.0 51.95 164.45 53.0" fill="#000000" fill-rule="evenodd" stroke="none"/>
    <path d="M148.3 -7.7 Q145.85 -8.45 143.35 -6.5 140.7 -4.35 142.8 -1.7 145.15 1.25 145.45 2.15 145.8 3.1 144.8 4.55 143.05 7.05 142.45 8.4 141.2 11.3 141.7 14.45 142.25 17.85 139.95 17.75 137.75 17.7 136.45 15.25 135.3 13.05 132.65 13.45 130.05 13.8 130.05 16.0 L132.35 23.25 Q134.0 28.3 131.55 28.55 127.75 28.9 126.55 17.8 124.35 10.05 123.8 5.2 122.8 -3.7 128.55 -11.2 132.1 -15.8 141.55 -17.55 L150.25 -18.4 Q157.2 -18.4 161.55 -15.8 166.1 -13.15 164.55 -9.45 L163.9 -6.9 Q163.55 -5.65 162.8 -5.45 L155.05 -5.85 Q153.8 -6.1 148.3 -7.7" fill="#000000" fill-rule="evenodd" stroke="none"/>
    <path d="M146.9 109.15 L165.8 107.75 160.4 141.5 Q157.9 142.7 154.2 143.2 L150.1 143.05 148.7 142.5 150.3 114.25 145.3 113.0 141.55 112.75 Q140.05 142.25 139.55 143.25 139.15 144.05 137.3 144.55 L133.05 144.7 129.75 144.1 Q128.8 143.85 128.55 143.5 128.25 143.05 127.3 126.8 126.3 110.5 126.8 110.5 L146.9 109.15" fill="#000000" fill-rule="evenodd" stroke="none"/>
    <path d="M163.35 -6.85 L168.5 -1.25 Q172.85 3.2 174.25 4.25 175.8 5.35 175.8 8.25 175.8 11.15 174.25 12.55 172.95 13.75 172.75 14.95 172.6 15.7 172.6 17.3" fill="none" stroke="#000000" stroke-linecap="round" stroke-linejoin="miter-clip" stroke-miterlimit="10.0" stroke-width="1.0"/>
    <path d="M174.2 8.35 L172.85 9.45 Q171.55 10.9 171.5 12.7 171.45 15.8 171.7 17.5 172.15 20.35 173.45 21.25 174.5 21.95 176.5 22.5 178.05 23.25 178.0 25.4 177.95 27.6 177.1 28.25 176.05 28.65 175.5 28.95 174.75 29.45 174.6 30.95 174.4 32.35 174.95 33.2 176.3 35.5 174.45 35.2 L172.8 34.9 170.05 35.25 Q167.7 35.8 165.35 36.8 162.95 37.8 162.55 38.4" fill="none" stroke="#000000" stroke-linecap="round" stroke-linejoin="miter-clip" stroke-miterlimit="10.0" stroke-width="1.0"/>
    <path d="M173.5 35.7 Q174.05 36.9 173.5 37.4 L172.4 37.8 171.55 37.95 Q170.35 39.4 170.85 41.2 171.4 43.2 170.65 44.65 169.8 46.3 167.7 46.4 165.9 46.5 163.75 45.45 L162.0 44.35" fill="none" stroke="#000000" stroke-linecap="round" stroke-linejoin="miter-clip" stroke-miterlimit="10.0" stroke-width="1.0"/>
    <path d="M155.95 12.0 L157.95 9.85 Q160.05 7.7 160.5 7.8 L168.0 11.4" fill="none" stroke="#000000" stroke-linecap="round" stroke-linejoin="miter-clip" stroke-miterlimit="10.0" stroke-width="1.0"/>
    <path d="M162.8 13.15 L166.45 13.45 Q170.0 12.85 169.35 8.6" fill="none" stroke="#000000" stroke-linecap="round" stroke-linejoin="miter-clip" stroke-miterlimit="10.0" stroke-width="1.0"/>
    <path d="M160.4 15.85 L162.65 15.0 164.85 14.45 165.5 14.4 Q166.7 14.45 166.9 15.15 167.05 15.8 166.2 16.0 165.5 16.15 165.1 15.25 L164.85 14.45" fill="none" stroke="#000000" stroke-linecap="round" stroke-linejoin="miter-clip" stroke-miterlimit="10.0" stroke-width="1.0"/>
    <path d="M165.0 20.35 Q167.65 17.15 167.35 16.0" fill="none" stroke="#000000" stroke-linecap="round" stroke-linejoin="miter-clip" stroke-miterlimit="10.0" stroke-width="1.0"/>
    <path d="M163.05 34.45 L164.1 30.75 Q165.4 26.9 166.6 26.0 168.0 24.95 168.25 25.2 168.55 25.4 167.8 26.25 167.15 27.05 167.6 27.95 168.1 28.85 169.3 29.25" fill="none" stroke="#000000" stroke-linecap="round" stroke-linejoin="miter-clip" stroke-miterlimit="10.0" stroke-width="1.0"/>
    <path d="M172.45 28.9 Q172.0 29.05 172.0 28.2 171.95 27.35 172.6 27.45 173.5 27.6 173.65 28.0 173.85 28.5 172.45 28.9 Z" fill="none" stroke="#000000" stroke-linecap="round" stroke-linejoin="miter-clip" stroke-miterlimit="10.0" stroke-width="1.0"/>
    <path d="M173.1 23.45 L174.45 22.75 176.95 22.7" fill="none" stroke="#000000" stroke-linecap="round" stroke-linejoin="miter-clip" stroke-miterlimit="10.0" stroke-width="1.0"/>
    <path d="M138.55 26.5 L136.7 28.4 Q135.0 29.25 133.45 26.25 128.4 16.9 129.95 14.55" fill="none" stroke="#000000" stroke-linecap="round" stroke-linejoin="miter-clip" stroke-miterlimit="10.0" stroke-width="1.0"/>
    <path d="M148.05 44.85 Q157.7 49.0 160.4 49.7 165.4 49.85 166.05 48.5 L166.7 47.2 168.05 48.3 Q169.5 49.9 170.05 52.2 170.6 54.5 168.3 57.6 L165.95 60.25 Q165.9 57.95 165.2 55.55 163.85 50.8 160.7 50.4 159.35 50.25 158.05 52.05 156.95 53.7 156.55 55.65 L155.55 60.7 Q152.05 59.35 147.85 57.05 139.5 52.5 136.2 47.9 132.85 43.3 130.85 39.05 L129.55 35.75 Q129.7 33.5 131.2 32.0 L132.7 30.5 136.75 36.1 Q142.0 42.25 148.05 44.85 Z" fill="none" stroke="#000000" stroke-linecap="round" stroke-linejoin="round" stroke-width="1.0"/>
    <path d="M156.1 -18.55 L128.0 -11.9 123.8 -21.7 123.5 -21.6 Q122.7 -21.4 122.05 -21.85 121.35 -22.3 121.15 -23.1 120.95 -23.9 121.4 -24.55 121.8 -25.25 122.6 -25.45 L124.1 -25.2 Q124.8 -24.8 125.0 -24.0 125.2 -23.1 124.6 -22.3 L131.95 -17.9 133.15 -22.1 Q131.8 -22.25 131.45 -23.6 131.25 -24.4 131.7 -25.05 132.15 -25.75 132.95 -25.95 L134.45 -25.7 Q135.1 -25.3 135.3 -24.5 135.45 -23.85 135.2 -23.25 L134.35 -22.35 137.1 -19.2 138.15 -28.15 Q137.0 -28.4 136.7 -29.6 136.5 -30.4 136.95 -31.05 137.35 -31.75 138.15 -31.95 L139.65 -31.7 Q140.35 -31.3 140.55 -30.5 140.85 -29.05 139.55 -28.35 L144.45 -21.0 145.2 -25.0 Q143.9 -25.15 143.6 -26.5 143.4 -27.3 143.85 -27.95 144.25 -28.65 145.05 -28.85 L146.55 -28.6 Q147.25 -28.2 147.45 -27.4 147.7 -26.0 146.65 -25.35 L149.8 -22.4 154.25 -29.25 Q153.3 -29.65 153.1 -30.6 152.9 -31.4 153.35 -32.05 153.75 -32.75 154.55 -32.95 L156.05 -32.7 Q156.7 -32.3 156.9 -31.5 157.1 -30.75 156.7 -30.1 156.3 -29.4 155.55 -29.2 L156.1 -18.55" fill="#050102" fill-rule="evenodd" stroke="none"/>
    <path d="M156.2 -18.55 L156.5 -17.45 128.2 -10.8 127.95 -11.9 156.2 -18.55" fill="#ffffff" fill-rule="evenodd" stroke="none"/>
    <path d="M212.2 68.95 L219.2 68.55 Q222.45 68.9 222.15 72.3 221.7 76.6 219.55 81.2 217.25 86.2 215.1 86.5 L207.45 86.1 Q202.4 84.5 204.65 79.25 206.85 74.2 209.75 71.05 211.2 69.5 212.2 68.95" fill="#000000" fill-rule="evenodd" stroke="none"/>
    <path d="M252.4 110.35 Q251.3 113.85 247.0 118.7 243.0 123.2 240.25 124.6 233.8 127.95 227.6 128.6 216.1 129.9 208.6 121.8 200.25 112.8 198.75 104.2 197.45 96.95 200.9 87.8 203.6 80.65 206.65 80.85 208.6 80.95 213.9 83.5 220.15 85.2 221.85 85.85 L229.9 88.3 Q239.2 91.9 245.3 97.65 252.45 104.35 253.1 105.6 253.55 106.5 253.3 107.55 L252.4 110.35" fill="#000000" fill-rule="evenodd" stroke="none"/>
    <path d="M181.4 103.85 L181.7 103.4 Q182.35 101.1 186.85 101.75 189.8 102.2 192.75 103.45 L197.65 100.6 Q203.2 97.5 206.3 96.45 L212.75 94.4 Q215.6 93.75 216.4 94.85 218.9 98.35 210.25 101.5 205.85 103.1 207.45 106.0 208.2 107.4 211.6 110.1 212.35 110.7 217.15 112.1 220.75 113.2 220.35 114.85 219.75 117.3 214.95 117.55 L210.3 117.25 211.05 117.85 Q212.25 118.5 214.7 119.05 216.95 119.5 216.1 121.0 215.4 122.4 213.75 122.8 L208.85 122.6 206.55 121.8 208.8 122.75 Q211.55 123.85 211.0 125.3 210.4 126.75 205.35 125.05 L200.7 123.3 Q201.9 124.6 202.35 124.6 202.95 124.65 204.3 125.75 206.4 127.45 204.45 128.15 202.55 128.85 199.9 127.05 198.2 125.9 195.65 122.6 193.1 119.3 191.5 116.15 189.75 112.75 188.2 111.85 187.5 111.5 184.3 111.0 181.55 110.55 181.0 108.4 180.6 106.8 181.4 103.85" fill="#ffffff" fill-rule="evenodd" stroke="none"/>
    <path d="M182.4 102.4 Q180.25 104.9 180.75 107.6 181.25 110.4 184.3 111.0 L188.15 111.9 Q189.75 112.8 191.5 116.15 193.1 119.3 195.65 122.6 198.2 125.9 199.9 127.05 202.55 128.85 204.45 128.15 206.4 127.45 204.3 125.75 202.95 124.65 202.35 124.6 201.9 124.6 200.7 123.3 L205.35 125.05 Q210.4 126.75 211.0 125.3 211.55 123.85 208.8 122.75 L206.55 121.8 208.85 122.6 213.75 122.8 Q215.4 122.4 216.1 121.0 216.95 119.5 214.7 119.05 212.25 118.5 211.0 117.85 L210.3 117.25 214.95 117.55 Q219.75 117.3 220.35 114.85 220.75 113.2 217.15 112.1 212.35 110.7 211.6 110.1 208.2 107.4 207.45 106.0 205.85 103.1 210.25 101.5 218.9 98.35 216.4 94.85 215.6 93.75 212.75 94.4 L206.3 96.45 Q203.2 97.5 197.65 100.6 L192.75 103.45 187.85 101.4 Q184.15 100.35 182.4 102.4 Z" fill="none" stroke="#000000" stroke-linecap="butt" stroke-linejoin="round" stroke-width="1.0"/>
    <path d="M238.65 95.8 Q240.45 88.25 241.0 80.05 242.05 63.7 235.75 60.75 229.4 57.75 224.0 62.75 221.3 65.25 219.85 68.35" fill="none" stroke="#000000" stroke-linecap="round" stroke-linejoin="round" stroke-width="2.0"/>
    <path d="M160.65 100.95 Q147.5 91.9 143.05 86.75 140.5 83.85 140.65 74.0 L141.9 59.35 148.9 66.7 Q157.4 75.2 164.9 81.0 174.65 88.6 184.2 94.35 L184.0 95.65 182.9 100.7 Q182.5 102.25 172.9 109.0 L160.65 100.95" fill="#000000" fill-rule="evenodd" stroke="none"/>
    <path d="M183.95 108.7 Q181.25 111.0 178.5 112.4 L172.7 105.65 174.5 106.2 Q176.7 106.4 178.95 104.45 181.25 102.55 182.9 98.6 L184.15 95.05 189.05 99.5 Q189.35 104.05 183.95 108.7" fill="#ffffff" fill-rule="evenodd" stroke="none"/>
    <path d="M183.95 108.7 Q189.35 104.05 189.05 99.5 L184.15 95.05 182.9 98.6 Q181.25 102.55 178.95 104.45 176.7 106.4 174.5 106.2 L172.7 105.65 178.5 112.4 Q181.25 111.0 183.95 108.7 Z" fill="none" stroke="#000000" stroke-linecap="butt" stroke-linejoin="round" stroke-width="1.0"/>
    <path d="M221.4 66.25 Q223.5 64.85 226.05 66.7 228.75 68.65 229.25 70.8 229.9 73.45 225.85 74.0 221.95 74.6 220.9 73.25 L219.95 69.8 Q219.4 67.55 221.4 66.25" fill="#ffffff" fill-rule="evenodd" stroke="none"/>
    <path d="M221.4 66.25 Q223.5 64.85 226.05 66.7 228.75 68.65 229.25 70.8 229.9 73.45 225.85 74.0 221.95 74.6 220.9 73.25 L219.95 69.8 Q219.4 67.55 221.4 66.25 Z" fill="none" stroke="#000000" stroke-linecap="round" stroke-linejoin="round" stroke-width="1.0"/>
    <path d="M220.7 79.4 Q220.05 79.45 219.4 79.1 218.1 78.45 218.05 76.7 217.95 73.5 222.15 74.15 224.0 74.45 224.8 74.95 226.0 75.7 225.75 77.35 225.45 79.05 223.75 79.6 L220.7 79.4" fill="#ffffff" fill-rule="evenodd" stroke="none"/>
    <path d="M220.7 79.4 L223.75 79.6 Q225.45 79.05 225.75 77.35 226.0 75.7 224.8 74.95 224.0 74.45 222.15 74.15 217.95 73.5 218.05 76.7 218.1 78.45 219.4 79.1 220.05 79.45 220.7 79.4 Z" fill="none" stroke="#000000" stroke-linecap="round" stroke-linejoin="round" stroke-width="1.0"/>
    <path d="M221.9 84.35 Q221.2 85.7 219.35 85.35 217.6 85.05 216.55 83.55 215.4 81.85 215.9 80.2 216.45 78.4 218.75 79.3 221.4 80.35 222.1 81.35 222.9 82.5 221.9 84.35" fill="#ffffff" fill-rule="evenodd" stroke="none"/>
    <path d="M221.9 84.35 Q221.2 85.7 219.35 85.35 217.6 85.05 216.55 83.55 215.4 81.85 215.9 80.2 216.45 78.4 218.75 79.3 221.4 80.35 222.1 81.35 222.9 82.5 221.9 84.35 Z" fill="none" stroke="#000000" stroke-linecap="round" stroke-linejoin="round" stroke-width="1.0"/>
    <path d="M212.2 86.0 Q211.55 84.05 213.3 82.65 214.95 81.25 215.7 82.5 L217.55 84.9 Q218.5 86.4 217.6 87.4 216.55 88.6 214.6 88.05 212.65 87.5 212.2 86.0" fill="#ffffff" fill-rule="evenodd" stroke="none"/>
    <path d="M212.2 86.0 Q212.65 87.5 214.6 88.05 216.55 88.6 217.6 87.4 218.5 86.4 217.55 84.9 L215.7 82.5 Q214.95 81.25 213.3 82.65 211.55 84.05 212.2 86.0 Z" fill="none" stroke="#000000" stroke-linecap="round" stroke-linejoin="round" stroke-width="1.0"/>
    <path d="M213.8 65.15 Q214.5 65.35 216.8 66.5 218.65 67.45 219.2 68.1 220.2 69.35 219.35 71.45 218.7 73.05 215.6 72.65 212.0 72.1 210.65 73.35 208.75 75.1 208.6 77.1 208.45 78.55 209.3 81.2 210.0 83.45 208.25 85.6 206.45 87.8 203.3 88.5 L197.85 88.95 Q196.85 88.65 194.55 86.5 192.25 84.4 192.25 83.0 192.2 81.3 195.55 80.75 199.7 80.1 201.15 77.45 201.85 76.15 202.45 72.05 202.8 69.45 205.9 67.25 208.4 65.4 210.65 64.95 L213.8 65.15" fill="#ffffff" fill-rule="evenodd" stroke="none"/>
    <path d="M213.8 65.15 Q214.5 65.35 216.8 66.5 218.65 67.45 219.2 68.1 220.2 69.35 219.35 71.45 218.7 73.05 215.6 72.65 212.0 72.1 210.65 73.35 208.75 75.1 208.6 77.1 208.45 78.55 209.3 81.2 210.05 83.5 207.75 85.9 205.45 88.4 202.3 88.5 L197.3 88.1 Q196.7 87.75 195.55 85.0 194.35 82.15 195.75 80.55 196.85 79.25 198.8 79.25 200.9 79.25 201.65 77.1 L202.45 72.05 Q202.8 69.45 205.9 67.25 208.4 65.4 210.65 64.95 L213.8 65.15 Z" fill="none" stroke="#000000" stroke-linecap="round" stroke-linejoin="round" stroke-width="1.0"/>
    <path d="M165.7 13.95 L167.3 14.0 Q167.9 14.45 167.7 15.55 167.5 16.6 166.55 16.75 165.55 16.9 165.05 16.1 164.55 15.35 164.75 14.8 164.95 14.2 165.7 13.95" fill="#000000" fill-rule="evenodd" stroke="none"/>
  </g>
</svg>
