<?xml version="1.0" encoding="UTF-8" standalone="no"?>
<svg xmlns:ffdec="https://www.free-decompiler.com/flash" xmlns:xlink="http://www.w3.org/1999/xlink" ffdec:objectType="shape" height="193.15px" width="144.25px" xmlns="http://www.w3.org/2000/svg">
  <g transform="matrix(1.0, 0.0, 0.0, 1.0, -107.6, 33.0)">
    <path d="M131.7 147.0 L132.2 147.7 Q132.9 148.35 134.05 148.35 135.4 148.35 135.9 147.2 L141.4 152.65 Q143.9 153.15 145.45 155.3 146.9 157.3 146.55 159.1 142.65 160.45 139.0 160.05 135.95 159.65 134.2 158.5 132.2 157.15 132.7 155.05 L132.9 154.4 132.45 153.55 131.9 154.65 130.4 153.35 Q128.9 151.8 128.9 150.7 128.9 149.6 130.3 148.2 L131.7 147.0" fill="#000000" fill-rule="evenodd" stroke="none"/>
    <path d="M164.75 149.3 Q169.95 149.4 171.6 151.2 173.3 152.95 172.8 154.5 172.3 156.2 169.15 156.85 L162.25 156.5 Q158.55 155.4 157.45 153.25 L157.25 152.55 156.2 152.15 156.0 153.75 Q151.9 151.95 151.05 151.15 150.25 150.4 150.35 148.5 150.45 146.3 151.9 145.2 L152.45 145.8 Q153.15 146.4 154.1 146.4 156.0 146.4 157.25 145.2 L158.2 146.15 Q159.5 147.2 161.35 147.95 L164.75 149.3" fill="#000000" fill-rule="evenodd" stroke="none"/>
    <path d="M146.3 56.25 Q148.75 57.65 151.95 69.95 155.45 83.55 155.2 95.7 154.95 110.2 154.2 122.7 139.35 124.25 123.1 119.15 114.95 116.6 109.8 113.75 108.35 109.5 107.8 101.2 106.7 84.55 111.05 64.25 113.05 55.05 121.5 44.45 L129.55 35.75 Q129.9 36.0 130.55 38.2 131.4 41.0 132.5 43.1 136.45 50.7 146.3 56.25" fill="#000000" fill-rule="evenodd" stroke="none"/>
    <path d="M170.4 53.35 Q173.25 56.9 176.9 67.85 181.0 80.35 182.05 91.5 182.85 100.15 181.85 107.9 181.25 112.65 180.55 114.35 179.55 116.7 178.45 117.8 176.7 119.55 173.55 120.2 L175.45 107.8 Q177.2 93.8 176.55 86.0 175.9 77.55 175.3 74.8 174.1 69.0 169.55 56.85 L170.4 53.35" fill="#000000" fill-rule="evenodd" stroke="none"/>
    <path d="M164.45 53.0 L165.4 56.05 163.4 58.25 166.05 65.75 Q169.0 74.65 170.35 81.9 171.85 89.9 172.25 93.6 172.55 96.45 172.25 97.8 172.05 98.75 170.1 100.75 L167.3 103.35 Q166.6 104.05 163.9 102.2 L160.35 99.55 Q159.75 99.1 160.3 95.25 161.2 89.35 161.05 84.15 L160.0 59.35 158.45 58.55 Q156.75 57.8 156.3 58.0 155.4 58.4 156.6 55.45 157.8 52.35 160.55 50.25 L162.25 51.0 Q164.0 51.95 164.45 53.0" fill="#000000" fill-rule="evenodd" stroke="none"/>
    <path d="M148.3 -7.7 Q145.85 -8.45 143.35 -6.5 140.7 -4.35 142.8 -1.7 145.15 1.25 145.45 2.15 145.8 3.1 144.8 4.55 143.05 7.05 142.45 8.4 141.2 11.3 141.7 14.45 142.25 17.85 139.95 17.75 137.75 17.7 136.45 15.25 135.3 13.05 132.65 13.45 130.05 13.8 130.05 16.0 L132.35 23.25 Q134.0 28.3 131.55 28.55 127.75 28.9 126.55 17.8 124.35 10.05 123.8 5.2 122.8 -3.7 128.55 -11.2 132.1 -15.8 141.55 -17.55 L150.25 -18.4 Q157.2 -18.4 161.55 -15.8 166.1 -13.15 164.55 -9.45 L163.9 -6.9 Q163.55 -5.65 162.8 -5.45 L155.05 -5.85 Q153.8 -6.1 148.3 -7.7" fill="#000000" fill-rule="evenodd" stroke="none"/>
    <path d="M146.9 109.15 L165.8 107.75 160.4 141.5 Q157.9 142.7 154.2 143.2 L150.1 143.05 148.7 142.5 150.3 114.25 145.3 113.0 141.55 112.75 Q140.05 142.25 139.55 143.25 139.15 144.05 137.3 144.55 L133.05 144.7 129.75 144.1 Q128.8 143.85 128.55 143.5 128.25 143.05 127.3 126.8 126.3 110.5 126.8 110.5 L146.9 109.15" fill="#000000" fill-rule="evenodd" stroke="none"/>
    <path d="M163.35 -6.85 L168.5 -1.25 Q172.85 3.2 174.25 4.25 175.8 5.35 175.8 8.25 175.8 11.15 174.25 12.55 172.95 13.75 172.75 14.95 172.6 15.7 172.6 17.3" fill="none" stroke="#000000" stroke-linecap="round" stroke-linejoin="miter-clip" stroke-miterlimit="10.0" stroke-width="1.0"/>
    <path d="M174.2 8.35 L172.85 9.45 Q171.55 10.9 171.5 12.7 171.45 15.8 171.7 17.5 172.15 20.35 173.45 21.25 174.5 21.95 176.5 22.5 178.05 23.25 178.0 25.4 177.95 27.6 177.1 28.25 176.05 28.65 175.5 28.95 174.75 29.45 174.6 30.95 174.4 32.35 174.95 33.2 176.3 35.5 174.45 35.2 L172.8 34.9 170.05 35.25 Q167.7 35.8 165.35 36.8 162.95 37.8 162.55 38.4" fill="none" stroke="#000000" stroke-linecap="round" stroke-linejoin="miter-clip" stroke-miterlimit="10.0" stroke-width="1.0"/>
    <path d="M173.5 35.7 Q174.05 36.9 173.5 37.4 L172.4 37.8 171.55 37.95 Q170.35 39.4 170.85 41.2 171.4 43.2 170.65 44.65 169.8 46.3 167.7 46.4 165.9 46.5 163.75 45.45 L162.0 44.35" fill="none" stroke="#000000" stroke-linecap="round" stroke-linejoin="miter-clip" stroke-miterlimit="10.0" stroke-width="1.0"/>
    <path d="M155.95 12.0 L157.95 9.85 Q160.05 7.7 160.5 7.8 L168.0 11.4" fill="none" stroke="#000000" stroke-linecap="round" stroke-linejoin="miter-clip" stroke-miterlimit="10.0" stroke-width="1.0"/>
    <path d="M162.8 13.15 L166.45 13.45 Q170.0 12.85 169.35 8.6" fill="none" stroke="#000000" stroke-linecap="round" stroke-linejoin="miter-clip" stroke-miterlimit="10.0" stroke-width="1.0"/>
    <path d="M160.4 15.85 L162.65 15.0 164.85 14.45 165.5 14.4 Q166.7 14.45 166.9 15.15 167.05 15.8 166.2 16.0 165.5 16.15 165.1 15.25 L164.85 14.45" fill="none" stroke="#000000" stroke-linecap="round" stroke-linejoin="miter-clip" stroke-miterlimit="10.0" stroke-width="1.0"/>
    <path d="M165.0 20.35 Q167.65 17.15 167.35 16.0" fill="none" stroke="#000000" stroke-linecap="round" stroke-linejoin="miter-clip" stroke-miterlimit="10.0" stroke-width="1.0"/>
    <path d="M163.05 34.45 L164.1 30.75 Q165.4 26.9 166.6 26.0 168.0 24.95 168.25 25.2 168.55 25.4 167.8 26.25 167.15 27.05 167.6 27.95 168.1 28.85 169.3 29.25" fill="none" stroke="#000000" stroke-linecap="round" stroke-linejoin="miter-clip" stroke-miterlimit="10.0" stroke-width="1.0"/>
    <path d="M172.45 28.9 Q172.0 29.05 172.0 28.2 171.95 27.35 172.6 27.45 173.5 27.6 173.65 28.0 173.85 28.5 172.45 28.9 Z" fill="none" stroke="#000000" stroke-linecap="round" stroke-linejoin="miter-clip" stroke-miterlimit="10.0" stroke-width="1.0"/>
    <path d="M173.1 23.45 L174.45 22.75 176.95 22.7" fill="none" stroke="#000000" stroke-linecap="round" stroke-linejoin="miter-clip" stroke-miterlimit="10.0" stroke-width="1.0"/>
    <path d="M138.55 26.5 L136.7 28.4 Q135.0 29.25 133.45 26.25 128.4 16.9 129.95 14.55" fill="none" stroke="#000000" stroke-linecap="round" stroke-linejoin="miter-clip" stroke-miterlimit="10.0" stroke-width="1.0"/>
    <path d="M148.05 44.85 Q157.7 49.0 160.4 49.7 165.4 49.85 166.05 48.5 L166.7 47.2 168.05 48.3 Q169.5 49.9 170.05 52.2 170.6 54.5 168.3 57.6 L165.95 60.25 Q165.9 57.95 165.2 55.55 163.85 50.8 160.7 50.4 159.35 50.25 158.05 52.05 156.95 53.7 156.55 55.65 L155.55 60.7 Q152.05 59.35 147.85 57.05 139.5 52.5 136.2 47.9 132.85 43.3 130.85 39.05 L129.55 35.75 Q129.7 33.5 131.2 32.0 L132.7 30.5 136.75 36.1 Q142.0 42.25 148.05 44.85 Z" fill="none" stroke="#000000" stroke-linecap="round" stroke-linejoin="round" stroke-width="1.0"/>
    <path d="M156.1 -18.55 L128.0 -11.9 123.8 -21.7 123.5 -21.6 Q122.7 -21.4 122.05 -21.85 121.35 -22.3 121.15 -23.1 120.95 -23.9 121.4 -24.55 121.8 -25.25 122.6 -25.45 L124.1 -25.2 Q124.8 -24.8 125.0 -24.0 125.2 -23.1 124.6 -22.3 L131.95 -17.9 133.15 -22.1 Q131.8 -22.25 131.45 -23.6 131.25 -24.4 131.7 -25.05 132.15 -25.75 132.95 -25.95 L134.45 -25.7 Q135.1 -25.3 135.3 -24.5 135.45 -23.85 135.2 -23.25 L134.35 -22.35 137.1 -19.2 138.15 -28.15 Q137.0 -28.4 136.7 -29.6 136.5 -30.4 136.95 -31.05 137.35 -31.75 138.15 -31.95 L139.65 -31.7 Q140.35 -31.3 140.55 -30.5 140.85 -29.05 139.55 -28.35 L144.45 -21.0 145.2 -25.0 Q143.9 -25.15 143.6 -26.5 143.4 -27.3 143.85 -27.95 144.25 -28.65 145.05 -28.85 L146.55 -28.6 Q147.25 -28.2 147.45 -27.4 147.7 -26.0 146.65 -25.35 L149.8 -22.4 154.25 -29.25 Q153.3 -29.65 153.1 -30.6 152.9 -31.4 153.35 -32.05 153.75 -32.75 154.55 -32.95 L156.05 -32.7 Q156.7 -32.3 156.9 -31.5 157.1 -30.75 156.7 -30.1 156.3 -29.4 155.55 -29.2 L156.1 -18.55" fill="#050102" fill-rule="evenodd" stroke="none"/>
    <path d="M156.2 -18.55 L156.5 -17.45 128.2 -10.8 127.95 -11.9 156.2 -18.55" fill="#ffffff" fill-rule="evenodd" stroke="none"/>
    <path d="M165.7 13.95 L167.3 14.0 Q167.9 14.45 167.7 15.55 167.5 16.6 166.55 16.75 165.55 16.9 165.05 16.1 164.55 15.35 164.75 14.8 164.95 14.2 165.7 13.95" fill="#000000" fill-rule="evenodd" stroke="none"/>
    <path d="M209.05 23.95 L216.05 23.2 Q219.3 23.4 219.1 26.8 218.85 31.1 216.9 35.85 214.8 40.9 212.7 41.3 208.45 42.15 205.05 41.25 199.9 39.9 201.95 34.55 203.9 29.4 206.7 26.15 208.05 24.55 209.05 23.95" fill="#000000" fill-rule="evenodd" stroke="none"/>
    <path d="M219.4 40.4 L227.55 42.5 Q237.0 45.7 243.35 51.15 250.8 57.55 251.5 58.75 252.0 59.6 251.8 60.7 L251.0 63.5 Q250.1 67.05 246.0 72.1 242.2 76.8 239.5 78.3 233.05 81.9 227.0 82.85 215.6 84.65 207.75 76.85 199.05 68.25 197.15 59.75 195.55 52.55 198.55 43.25 200.95 36.0 204.0 36.05 205.95 36.05 211.35 38.4 L219.4 40.4" fill="#000000" fill-rule="evenodd" stroke="none"/>
    <path d="M202.25 61.4 L206.45 56.1 Q208.45 53.95 209.7 54.4 213.75 55.95 208.35 63.4 205.6 67.15 208.55 68.65 209.85 69.35 214.25 69.75 L220.0 68.3 Q223.55 67.2 224.15 68.8 225.05 71.2 221.2 74.05 219.3 75.45 217.2 76.4 L218.1 76.5 Q219.5 76.4 221.85 75.45 223.95 74.55 224.1 76.25 224.25 77.8 223.15 79.05 221.4 81.0 218.95 81.65 L216.65 82.25 219.0 81.8 Q221.9 81.15 222.25 82.65 222.6 84.2 217.4 85.65 L212.6 86.8 214.7 86.95 216.95 86.8 Q219.65 87.05 218.45 88.75 217.25 90.4 214.05 90.35 211.95 90.3 208.05 89.0 204.1 87.7 201.0 86.0 197.65 84.2 195.85 84.3 195.05 84.4 192.15 85.75 189.6 86.9 187.95 85.45 186.7 84.35 185.7 81.45 L185.7 80.95 Q184.95 78.65 189.1 76.65 191.85 75.35 194.9 74.75 199.05 65.55 202.25 61.4" fill="#ffffff" fill-rule="evenodd" stroke="none"/>
    <path d="M202.25 61.4 Q199.05 65.55 194.9 74.75 L189.7 75.8 Q186.0 77.0 185.7 79.7 185.3 83.0 187.25 84.95 189.25 87.0 192.15 85.75 195.15 84.4 195.85 84.35 197.65 84.2 201.0 86.0 204.1 87.7 208.05 89.0 211.95 90.3 214.05 90.35 217.25 90.4 218.45 88.75 219.65 87.05 216.95 86.8 L214.7 86.95 212.6 86.8 217.4 85.65 Q222.6 84.2 222.25 82.65 221.9 81.15 219.0 81.8 L216.65 82.25 218.95 81.65 Q221.4 81.0 223.15 79.05 224.25 77.8 224.1 76.25 223.95 74.55 221.85 75.45 219.5 76.4 218.1 76.5 L217.2 76.4 Q219.3 75.45 221.2 74.05 225.05 71.2 224.15 68.8 223.55 67.2 220.0 68.3 L214.25 69.75 Q209.85 69.35 208.55 68.65 205.6 67.15 208.35 63.4 213.75 55.95 209.7 54.4 208.45 53.95 206.45 56.1 L202.25 61.4 Z" fill="none" stroke="#000000" stroke-linecap="butt" stroke-linejoin="round" stroke-width="1.0"/>
    <path d="M236.6 49.6 Q238.1 41.95 238.25 33.75 238.6 17.4 232.15 14.7 225.7 12.0 220.55 17.2 218.9 18.85 217.6 21.1 L216.65 23.0" fill="none" stroke="#000000" stroke-linecap="round" stroke-linejoin="round" stroke-width="2.0"/>
    <path d="M163.45 90.95 Q146.35 88.8 143.05 86.75 139.75 84.7 140.2 74.55 L141.3 64.75 145.5 67.35 Q151.35 70.4 159.55 72.5 166.75 74.4 175.6 73.65 L183.05 72.5 183.95 77.55 Q184.7 83.25 183.9 86.35 183.5 87.9 179.9 92.7 L163.45 90.95" fill="#000000" fill-rule="evenodd" stroke="none"/>
    <path d="M188.1 90.15 L179.5 87.8 Q180.3 87.85 181.3 87.3 183.25 86.2 184.05 83.35 184.85 80.5 184.05 76.25 L183.05 72.6 189.6 73.55 Q192.45 77.2 190.55 84.05 189.6 87.45 188.1 90.15" fill="#ffffff" fill-rule="evenodd" stroke="none"/>
    <path d="M188.1 90.15 Q189.6 87.45 190.55 84.05 192.45 77.2 189.6 73.55 L183.05 72.6 184.05 76.25 Q184.85 80.5 184.05 83.35 183.25 86.2 181.3 87.3 180.3 87.85 179.5 87.8 L188.1 90.15 Z" fill="none" stroke="#000000" stroke-linecap="butt" stroke-linejoin="round" stroke-width="1.0"/>
    <path d="M222.75 21.05 Q225.55 22.95 226.15 25.05 226.9 27.65 222.9 28.4 219.05 29.15 217.9 27.85 L216.8 24.45 Q216.15 22.25 218.1 20.8 220.15 19.3 222.75 21.05" fill="#ffffff" fill-rule="evenodd" stroke="none"/>
    <path d="M222.75 21.05 Q225.55 22.95 226.15 25.05 226.9 27.65 222.9 28.4 219.05 29.15 217.9 27.85 L216.8 24.45 Q216.15 22.25 218.1 20.8 220.15 19.3 222.75 21.05 Z" fill="none" stroke="#000000" stroke-linecap="round" stroke-linejoin="round" stroke-width="1.0"/>
    <path d="M217.95 34.0 L216.65 33.75 Q215.35 33.15 215.2 31.4 214.95 28.15 219.15 28.7 221.05 28.9 221.85 29.35 223.1 30.05 222.9 31.7 222.7 33.4 221.0 34.05 L217.95 34.0" fill="#ffffff" fill-rule="evenodd" stroke="none"/>
    <path d="M217.95 34.0 L221.0 34.05 Q222.7 33.4 222.9 31.7 223.1 30.05 221.85 29.35 221.05 28.9 219.15 28.7 214.95 28.15 215.2 31.4 215.35 33.15 216.65 33.75 L217.95 34.0 Z" fill="none" stroke="#000000" stroke-linecap="round" stroke-linejoin="round" stroke-width="1.0"/>
    <path d="M219.4 38.9 Q218.75 40.25 216.9 40.0 215.15 39.75 214.0 38.3 212.75 36.7 213.2 35.05 213.7 33.2 216.0 34.0 218.7 34.9 219.45 35.85 220.35 36.95 219.4 38.9" fill="#ffffff" fill-rule="evenodd" stroke="none"/>
    <path d="M219.4 38.9 Q218.75 40.25 216.9 40.0 215.15 39.75 214.0 38.3 212.75 36.7 213.2 35.05 213.7 33.2 216.0 34.0 218.7 34.9 219.45 35.85 220.35 36.95 219.4 38.9 Z" fill="none" stroke="#000000" stroke-linecap="round" stroke-linejoin="round" stroke-width="1.0"/>
    <path d="M209.75 40.95 Q209.05 39.05 210.7 37.55 212.35 36.1 213.15 37.3 L215.1 39.65 Q216.05 41.05 215.2 42.1 214.2 43.4 212.25 42.9 210.3 42.4 209.75 40.95" fill="#ffffff" fill-rule="evenodd" stroke="none"/>
    <path d="M209.75 40.95 Q210.3 42.4 212.25 42.9 214.2 43.4 215.2 42.1 216.05 41.05 215.1 39.65 L213.15 37.3 Q212.35 36.1 210.7 37.55 209.05 39.05 209.75 40.95 Z" fill="none" stroke="#000000" stroke-linecap="round" stroke-linejoin="round" stroke-width="1.0"/>
    <path d="M213.5 21.3 Q215.4 22.15 215.95 22.75 217.05 23.95 216.3 26.1 215.7 27.8 212.55 27.5 208.95 27.15 207.7 28.4 205.85 30.2 205.8 32.25 205.7 33.65 206.7 36.3 207.4 38.3 205.65 40.8 204.45 42.6 201.45 45.25 L197.65 48.65 Q196.05 49.7 194.2 48.15 192.2 46.45 193.25 43.0 194.25 39.75 197.2 37.3 199.5 35.4 199.6 32.7 199.25 29.4 199.4 27.45 199.65 24.85 202.6 22.5 205.05 20.55 207.3 20.0 L210.45 20.05 213.5 21.3" fill="#ffffff" fill-rule="evenodd" stroke="none"/>
    <path d="M213.5 21.3 Q215.4 22.15 215.95 22.75 217.05 23.95 216.3 26.1 215.7 27.8 212.55 27.5 208.95 27.15 207.7 28.4 205.85 30.2 205.8 32.25 205.7 33.65 206.7 36.3 207.4 38.3 205.65 40.8 204.45 42.6 201.45 45.25 L197.65 48.65 Q196.05 49.7 194.2 48.15 192.2 46.45 193.25 43.0 194.25 39.75 197.2 37.3 199.5 35.4 199.6 32.7 199.25 29.4 199.4 27.45 199.65 24.85 202.6 22.5 205.05 20.55 207.3 20.0 L210.45 20.05 213.5 21.3 Z" fill="none" stroke="#000000" stroke-linecap="round" stroke-linejoin="round" stroke-width="1.0"/>
  </g>
</svg>
