<?xml version="1.0" encoding="UTF-8" standalone="no"?>
<svg xmlns:ffdec="https://www.free-decompiler.com/flash" xmlns:xlink="http://www.w3.org/1999/xlink" ffdec:objectType="shape" height="193.15px" width="145.7px" xmlns="http://www.w3.org/2000/svg">
  <g transform="matrix(1.0, 0.0, 0.0, 1.0, -7.7, 33.0)">
    <path d="M125.05 147.2 L125.45 147.8 Q126.05 148.35 126.9 148.35 128.7 148.35 129.2 147.0 L130.65 148.2 Q132.05 149.6 132.05 150.7 132.05 152.45 129.0 154.65 L128.5 153.55 128.0 154.4 128.2 155.05 Q128.7 157.15 126.75 158.5 125.0 159.65 121.95 160.05 L116.8 159.75 114.4 159.1 Q114.1 157.3 115.5 155.3 117.05 153.15 119.55 152.65 L125.05 147.2" fill="#000000" fill-rule="evenodd" stroke="none"/>
    <path d="M99.55 147.95 Q102.55 146.75 103.65 145.2 L104.55 145.8 Q105.65 146.4 106.8 146.4 108.35 146.4 109.0 145.2 110.45 146.3 110.6 148.5 110.7 150.4 109.9 151.15 109.0 151.95 104.95 153.75 L104.75 152.15 103.65 152.55 103.45 153.25 Q102.4 155.4 98.65 156.5 L91.75 156.85 Q88.65 156.2 88.15 154.5 87.7 152.95 89.35 151.2 91.05 149.4 96.15 149.3 L99.55 147.95" fill="#000000" fill-rule="evenodd" stroke="none"/>
    <path d="M114.65 56.25 Q124.5 50.7 128.45 43.1 129.55 41.0 130.4 38.2 131.05 36.0 131.4 35.75 L139.45 44.45 Q147.9 55.05 149.9 64.25 154.3 84.55 153.15 101.2 152.6 109.5 151.15 113.75 146.0 116.6 137.85 119.15 121.55 124.25 106.7 122.7 106.0 110.2 105.7 95.7 105.45 83.55 109.0 69.95 112.15 57.65 114.65 56.25" fill="#000000" fill-rule="evenodd" stroke="none"/>
    <path d="M90.55 53.35 L91.4 56.85 Q86.85 69.0 85.65 74.8 85.05 77.55 84.4 86.0 83.8 93.8 85.55 107.8 86.4 114.8 87.4 120.2 84.25 119.55 82.5 117.8 81.4 116.7 80.4 114.35 79.75 113.0 79.05 107.9 78.1 100.15 78.9 91.5 79.95 80.3 84.05 67.85 87.7 56.9 90.55 53.35" fill="#000000" fill-rule="evenodd" stroke="none"/>
    <path d="M98.7 51.0 Q99.6 50.55 100.4 50.25 103.15 52.35 104.35 55.45 105.5 58.35 104.6 58.0 104.15 57.8 102.5 58.55 L100.95 59.35 99.9 84.15 Q99.75 89.35 100.6 95.25 101.2 99.1 100.55 99.55 L97.0 102.2 Q94.3 104.05 93.6 103.35 L90.85 100.75 Q88.85 98.75 88.65 97.8 88.1 94.9 90.55 81.9 91.95 74.65 94.9 65.75 L97.55 58.25 95.5 56.05 Q95.8 54.7 96.5 53.0 96.95 51.95 98.7 51.0" fill="#000000" fill-rule="evenodd" stroke="none"/>
    <path d="M132.4 -11.2 Q138.2 -3.7 137.15 5.2 136.6 10.05 134.4 17.8 133.2 28.9 129.4 28.55 126.95 28.3 128.6 23.25 L130.9 16.0 Q130.9 13.8 128.3 13.45 125.65 13.05 124.5 15.25 123.2 17.7 121.0 17.75 118.7 17.85 119.25 14.45 119.75 11.3 118.5 8.4 117.9 7.0 116.15 4.55 115.1 3.1 115.45 2.15 115.75 1.25 118.15 -1.7 120.3 -4.35 117.6 -6.5 115.15 -8.45 112.65 -7.7 L105.9 -5.85 98.15 -5.45 Q97.35 -5.65 97.05 -6.9 L96.4 -9.45 Q94.8 -13.15 99.35 -15.8 103.75 -18.4 110.65 -18.4 L119.35 -17.55 Q128.8 -15.8 132.4 -11.2" fill="#000000" fill-rule="evenodd" stroke="none"/>
    <path d="M119.4 112.75 L115.65 113.0 110.65 114.25 112.2 142.5 110.85 143.05 106.7 143.2 102.25 142.15 100.55 141.5 95.15 107.75 134.15 110.5 Q134.6 110.5 133.65 126.8 132.7 143.05 132.4 143.5 132.15 143.85 131.2 144.1 L127.9 144.7 123.65 144.55 Q121.8 144.05 121.4 143.25 120.9 142.25 119.4 112.75" fill="#000000" fill-rule="evenodd" stroke="none"/>
    <path d="M97.6 -6.85 L92.45 -1.25 Q88.1 3.25 86.65 4.25 85.1 5.35 85.1 8.25 85.1 11.15 86.65 12.55 87.95 13.75 88.2 14.95 L88.35 17.3" fill="none" stroke="#000000" stroke-linecap="round" stroke-linejoin="miter-clip" stroke-miterlimit="10.0" stroke-width="1.0"/>
    <path d="M86.75 8.35 L88.05 9.45 Q89.4 10.9 89.45 12.7 L89.25 17.5 Q88.8 20.35 87.45 21.25 L84.4 22.5 Q82.9 23.25 82.95 25.4 83.0 27.6 83.8 28.25 84.3 28.6 85.4 28.95 86.15 29.45 86.35 30.95 86.5 32.35 86.0 33.2 85.4 34.25 85.35 34.7 85.35 35.35 86.5 35.2 L88.15 34.9 90.9 35.25 Q93.2 35.8 95.6 36.8 97.95 37.8 98.4 38.4" fill="none" stroke="#000000" stroke-linecap="round" stroke-linejoin="miter-clip" stroke-miterlimit="10.0" stroke-width="1.0"/>
    <path d="M87.45 35.7 L87.25 36.35 Q87.1 37.1 87.45 37.4 L88.6 37.8 89.4 37.95 Q90.6 39.4 90.1 41.2 89.55 43.2 90.3 44.65 91.15 46.3 93.2 46.4 95.05 46.5 97.15 45.45 L98.9 44.35" fill="none" stroke="#000000" stroke-linecap="round" stroke-linejoin="miter-clip" stroke-miterlimit="10.0" stroke-width="1.0"/>
    <path d="M104.95 12.0 L102.95 9.85 Q100.9 7.7 100.45 7.8 L92.95 11.4" fill="none" stroke="#000000" stroke-linecap="round" stroke-linejoin="miter-clip" stroke-miterlimit="10.0" stroke-width="1.0"/>
    <path d="M98.1 13.15 L94.45 13.45 Q90.95 12.85 91.55 8.6" fill="none" stroke="#000000" stroke-linecap="round" stroke-linejoin="miter-clip" stroke-miterlimit="10.0" stroke-width="1.0"/>
    <path d="M100.5 15.85 L98.3 15.0 Q97.0 14.55 96.15 14.45 95.8 16.2 94.75 16.0 93.85 15.8 94.05 15.15 94.2 14.45 95.4 14.4 L96.15 14.45" fill="none" stroke="#000000" stroke-linecap="round" stroke-linejoin="miter-clip" stroke-miterlimit="10.0" stroke-width="1.0"/>
    <path d="M95.9 20.35 L94.65 18.6 Q93.4 16.7 93.6 16.0" fill="none" stroke="#000000" stroke-linecap="round" stroke-linejoin="miter-clip" stroke-miterlimit="10.0" stroke-width="1.0"/>
    <path d="M97.9 34.45 L96.85 30.75 Q95.55 26.9 94.3 26.0 92.95 24.95 92.65 25.2 92.4 25.4 93.15 26.25 93.8 27.05 93.3 27.95 92.8 28.85 91.6 29.25" fill="none" stroke="#000000" stroke-linecap="round" stroke-linejoin="miter-clip" stroke-miterlimit="10.0" stroke-width="1.0"/>
    <path d="M88.5 28.9 Q88.95 29.05 88.95 28.2 89.0 27.35 88.35 27.45 87.45 27.6 87.25 28.0 87.05 28.5 88.5 28.9 Z" fill="none" stroke="#000000" stroke-linecap="round" stroke-linejoin="miter-clip" stroke-miterlimit="10.0" stroke-width="1.0"/>
    <path d="M87.8 23.45 L86.5 22.75 84.0 22.7" fill="none" stroke="#000000" stroke-linecap="round" stroke-linejoin="miter-clip" stroke-miterlimit="10.0" stroke-width="1.0"/>
    <path d="M122.4 26.5 L124.25 28.4 Q125.9 29.25 127.5 26.25 132.55 16.9 131.0 14.55" fill="none" stroke="#000000" stroke-linecap="round" stroke-linejoin="miter-clip" stroke-miterlimit="10.0" stroke-width="1.0"/>
    <path d="M124.15 36.1 Q118.95 42.25 112.9 44.85 L103.1 48.85 100.55 49.7 Q95.55 49.85 94.9 48.5 L94.2 47.2 92.85 48.3 Q91.4 49.9 90.9 52.2 90.35 54.5 92.65 57.6 93.75 59.15 95.0 60.25 95.05 57.95 95.75 55.55 97.15 50.8 100.25 50.4 101.6 50.25 102.85 52.05 103.95 53.65 104.4 55.65 L105.4 60.7 Q108.9 59.35 113.05 57.05 121.4 52.5 124.75 47.9 128.1 43.3 130.1 39.05 L131.4 35.75 Q131.2 33.5 129.7 32.0 L128.2 30.5 Q126.8 33.05 124.15 36.1 Z" fill="none" stroke="#000000" stroke-linecap="round" stroke-linejoin="round" stroke-width="1.0"/>
    <path d="M139.5 -24.55 Q139.95 -23.9 139.75 -23.1 139.55 -22.3 138.9 -21.85 138.2 -21.4 137.4 -21.6 L137.15 -21.7 132.95 -11.9 104.85 -18.55 105.35 -29.2 Q104.65 -29.45 104.25 -30.1 103.85 -30.75 104.05 -31.5 104.25 -32.3 104.95 -32.7 105.6 -33.15 106.4 -32.95 107.2 -32.75 107.6 -32.05 108.05 -31.4 107.85 -30.6 107.65 -29.65 106.7 -29.25 L111.15 -22.4 114.25 -25.35 Q113.2 -26.05 113.5 -27.4 113.7 -28.2 114.4 -28.6 L115.85 -28.85 Q116.65 -28.65 117.05 -27.95 117.5 -27.3 117.3 -26.5 117.05 -25.2 115.7 -25.0 L116.5 -21.0 121.35 -28.35 Q120.1 -29.05 120.4 -30.5 120.6 -31.3 121.3 -31.7 L122.75 -31.95 Q123.55 -31.75 123.95 -31.05 124.4 -30.4 124.2 -29.6 123.95 -28.4 122.75 -28.15 L123.85 -19.2 126.6 -22.35 Q126.05 -22.65 125.75 -23.25 125.5 -23.85 125.65 -24.5 125.85 -25.3 126.55 -25.7 L128.0 -25.95 Q128.8 -25.75 129.2 -25.05 129.65 -24.4 129.45 -23.6 129.1 -22.25 127.8 -22.1 L129.0 -17.9 136.35 -22.3 Q135.7 -23.0 135.95 -24.0 136.15 -24.8 136.85 -25.2 L138.3 -25.45 Q139.1 -25.25 139.5 -24.55" fill="#050102" fill-rule="evenodd" stroke="none"/>
    <path d="M132.7 -10.8 L104.45 -17.45 104.7 -18.55 133.0 -11.9 132.7 -10.8" fill="#ffffff" fill-rule="evenodd" stroke="none"/>
    <path d="M48.7 68.95 L51.15 71.05 Q54.1 74.2 56.3 79.25 58.55 84.5 53.5 86.1 L45.8 86.5 Q43.7 86.2 41.4 81.2 39.2 76.55 38.8 72.3 38.45 68.9 41.7 68.55 L48.7 68.95" fill="#000000" fill-rule="evenodd" stroke="none"/>
    <path d="M51.1 81.9 Q53.25 80.9 54.3 80.85 57.35 80.65 60.05 87.8 63.5 96.95 62.2 104.2 60.7 112.8 52.35 121.8 44.8 129.9 33.35 128.6 27.05 127.9 20.7 124.6 17.95 123.2 13.9 118.7 9.6 113.85 8.55 110.35 7.4 106.5 7.85 105.6 8.5 104.3 15.6 97.65 21.75 91.9 31.05 88.3 35.7 86.5 39.1 85.85 40.8 85.2 47.05 83.5 L51.1 81.9" fill="#000000" fill-rule="evenodd" stroke="none"/>
    <path d="M53.5 106.0 Q55.1 103.1 50.7 101.5 41.95 98.3 44.55 94.85 45.35 93.75 48.2 94.4 49.3 94.65 54.65 96.45 59.6 98.15 68.2 103.45 71.05 102.2 74.1 101.75 78.6 101.1 79.25 103.4 L79.55 103.85 Q80.35 106.8 79.9 108.4 79.35 110.55 76.6 111.0 L72.75 111.85 Q71.2 112.75 69.45 116.15 67.8 119.35 65.25 122.6 62.7 125.9 61.0 127.05 58.4 128.85 56.5 128.15 54.55 127.45 56.6 125.75 57.95 124.65 58.55 124.6 59.0 124.6 60.25 123.3 L55.65 125.05 Q50.55 126.75 49.95 125.3 49.35 123.85 52.15 122.75 L54.35 121.8 52.1 122.6 47.2 122.8 Q45.55 122.4 44.8 121.0 44.0 119.55 46.25 119.05 50.15 118.2 50.65 117.25 L46.0 117.55 Q41.2 117.3 40.6 114.85 40.2 113.2 43.8 112.1 48.6 110.7 49.35 110.1 52.7 107.35 53.5 106.0" fill="#ffffff" fill-rule="evenodd" stroke="none"/>
    <path d="M68.2 103.45 L73.05 101.4 Q76.8 100.35 78.55 102.4 80.7 104.9 80.2 107.6 79.65 110.4 76.6 111.0 73.3 111.6 72.75 111.9 71.2 112.8 69.45 116.15 67.8 119.35 65.25 122.6 62.7 125.9 61.0 127.05 58.4 128.85 56.5 128.15 54.55 127.45 56.6 125.75 57.95 124.65 58.55 124.6 59.0 124.6 60.25 123.3 L55.65 125.05 Q50.55 126.75 49.95 125.3 49.35 123.85 52.15 122.75 L54.35 121.8 52.1 122.6 47.2 122.8 Q45.55 122.4 44.8 121.0 44.0 119.55 46.25 119.05 50.15 118.2 50.65 117.25 L46.0 117.55 Q41.2 117.3 40.6 114.85 40.2 113.2 43.8 112.1 48.6 110.7 49.35 110.1 52.7 107.35 53.5 106.0 55.1 103.1 50.7 101.5 41.95 98.3 44.55 94.85 45.35 93.75 48.2 94.4 49.3 94.65 54.65 96.45 59.6 98.15 68.2 103.45 Z" fill="none" stroke="#000000" stroke-linecap="butt" stroke-linejoin="round" stroke-width="1.0"/>
    <path d="M22.3 95.8 Q20.5 88.25 19.95 80.05 18.85 63.7 25.2 60.75 31.55 57.75 36.95 62.75 39.65 65.25 41.05 68.35" fill="none" stroke="#000000" stroke-linecap="round" stroke-linejoin="round" stroke-width="2.0"/>
    <path d="M88.05 109.0 Q78.4 102.25 78.05 100.7 L76.9 95.65 76.7 94.35 Q86.25 88.6 96.05 81.0 103.55 75.2 112.05 66.7 L119.05 59.35 120.3 74.0 Q120.4 83.85 117.9 86.75 113.4 91.9 100.3 100.95 L88.05 109.0" fill="#000000" fill-rule="evenodd" stroke="none"/>
    <path d="M71.9 99.5 L76.8 95.05 78.05 98.6 Q79.7 102.55 81.95 104.45 84.25 106.4 86.45 106.2 87.6 106.15 88.25 105.65 L82.4 112.4 Q79.65 111.0 76.95 108.7 71.6 104.05 71.9 99.5" fill="#ffffff" fill-rule="evenodd" stroke="none"/>
    <path d="M71.9 99.5 L76.8 95.05 78.05 98.6 Q79.7 102.55 81.95 104.45 84.25 106.4 86.45 106.2 87.6 106.15 88.25 105.65 L82.4 112.4 Q79.65 111.0 76.95 108.7 71.6 104.05 71.9 99.5 Z" fill="none" stroke="#000000" stroke-linecap="butt" stroke-linejoin="round" stroke-width="1.0"/>
    <path d="M39.55 66.25 Q41.55 67.55 41.0 69.8 L40.0 73.25 Q38.95 74.6 35.05 74.0 31.0 73.45 31.7 70.8 32.2 68.7 34.9 66.7 37.45 64.85 39.55 66.25" fill="#ffffff" fill-rule="evenodd" stroke="none"/>
    <path d="M39.55 66.25 Q37.45 64.85 34.9 66.7 32.2 68.7 31.7 70.8 31.0 73.45 35.05 74.0 38.95 74.6 40.0 73.25 L41.0 69.8 Q41.55 67.55 39.55 66.25 Z" fill="none" stroke="#000000" stroke-linecap="round" stroke-linejoin="round" stroke-width="1.0"/>
    <path d="M40.25 79.4 L37.2 79.6 Q35.5 79.05 35.2 77.35 34.95 75.7 36.1 74.95 36.9 74.45 38.8 74.15 42.95 73.5 42.85 76.7 42.8 78.45 41.55 79.1 L40.25 79.4" fill="#ffffff" fill-rule="evenodd" stroke="none"/>
    <path d="M40.25 79.4 L37.2 79.6 Q35.5 79.05 35.2 77.35 34.95 75.7 36.1 74.95 36.9 74.45 38.8 74.15 42.95 73.5 42.85 76.7 42.8 78.45 41.55 79.1 L40.25 79.4 Z" fill="none" stroke="#000000" stroke-linecap="round" stroke-linejoin="round" stroke-width="1.0"/>
    <path d="M39.05 84.35 Q38.05 82.5 38.85 81.35 39.55 80.35 42.2 79.3 44.5 78.4 45.05 80.2 45.55 81.85 44.4 83.55 43.35 85.05 41.6 85.35 39.8 85.7 39.05 84.35" fill="#ffffff" fill-rule="evenodd" stroke="none"/>
    <path d="M39.05 84.35 Q39.8 85.7 41.6 85.35 43.35 85.05 44.4 83.55 45.55 81.85 45.05 80.2 44.5 78.4 42.2 79.3 39.55 80.35 38.85 81.35 38.05 82.5 39.05 84.35 Z" fill="none" stroke="#000000" stroke-linecap="round" stroke-linejoin="round" stroke-width="1.0"/>
    <path d="M47.65 82.65 Q49.35 84.05 48.75 86.0 48.25 87.5 46.35 88.05 44.4 88.6 43.35 87.4 42.45 86.35 43.4 84.9 L45.2 82.5 Q45.95 81.25 47.65 82.65" fill="#ffffff" fill-rule="evenodd" stroke="none"/>
    <path d="M47.65 82.65 Q49.35 84.05 48.75 86.0 48.25 87.5 46.35 88.05 44.4 88.6 43.35 87.4 42.45 86.35 43.4 84.9 L45.2 82.5 Q45.95 81.25 47.65 82.65 Z" fill="none" stroke="#000000" stroke-linecap="round" stroke-linejoin="round" stroke-width="1.0"/>
    <path d="M47.15 65.15 L50.25 64.95 Q52.55 65.4 55.05 67.25 58.15 69.45 58.5 72.05 59.05 76.15 59.75 77.45 61.2 80.1 65.35 80.75 68.7 81.3 68.65 83.0 68.65 84.4 66.35 86.5 64.1 88.65 63.1 88.95 L57.6 88.5 Q54.45 87.8 52.65 85.6 50.9 83.45 51.6 81.2 52.45 78.5 52.35 77.1 52.15 75.1 50.25 73.35 48.9 72.1 45.35 72.65 42.2 73.05 41.55 71.45 40.7 69.35 41.75 68.1 42.25 67.45 44.15 66.5 46.5 65.35 47.15 65.15" fill="#ffffff" fill-rule="evenodd" stroke="none"/>
    <path d="M47.15 65.15 Q46.5 65.35 44.15 66.5 42.25 67.45 41.75 68.1 40.7 69.35 41.55 71.45 42.2 73.05 45.35 72.65 48.9 72.1 50.25 73.35 52.15 75.1 52.35 77.1 52.45 78.5 51.6 81.2 50.9 83.5 53.15 85.9 55.45 88.4 58.6 88.5 L63.65 88.1 Q64.25 87.75 65.35 85.0 66.55 82.15 65.15 80.55 64.1 79.25 62.1 79.25 60.0 79.25 59.25 77.1 L58.5 72.05 Q58.15 69.45 55.05 67.25 52.55 65.4 50.25 64.95 L47.15 65.15 Z" fill="none" stroke="#000000" stroke-linecap="round" stroke-linejoin="round" stroke-width="1.0"/>
    <path d="M95.2 13.95 Q95.95 14.2 96.15 14.8 96.35 15.35 95.85 16.1 95.35 16.9 94.4 16.75 93.4 16.6 93.2 15.55 93.0 14.45 93.65 14.0 L95.2 13.95" fill="#000000" fill-rule="evenodd" stroke="none"/>
  </g>
</svg>
