<?xml version="1.0" encoding="UTF-8" standalone="no"?>
<svg xmlns:ffdec="https://www.free-decompiler.com/flash" xmlns:xlink="http://www.w3.org/1999/xlink" ffdec:objectType="shape" height="81.15px" width="83.75px" xmlns="http://www.w3.org/2000/svg">
  <g transform="matrix(1.0, 0.0, 0.0, 1.0, -13.15, -7.9)">
    <path d="M71.25 17.6 Q85.1 16.25 90.95 27.7 93.0 31.6 93.7 36.35 94.25 40.15 93.8 41.85 L92.2 46.3 Q91.15 49.2 90.75 52.5 90.3 56.35 84.55 60.7 79.25 64.7 76.8 64.55 72.9 64.25 66.9 59.45 58.7 53.0 57.15 43.55 54.95 30.2 60.45 23.3 64.45 18.3 71.25 17.6" fill="#ffffff" fill-rule="evenodd" stroke="none"/>
    <path d="M71.25 17.6 Q64.45 18.3 60.45 23.3 54.95 30.2 57.15 43.55 58.7 53.0 66.9 59.45 72.9 64.25 76.8 64.55 79.25 64.7 84.55 60.7 90.3 56.35 90.75 52.5 91.15 49.2 92.2 46.3 L93.8 41.85 Q94.25 40.15 93.7 36.35 93.0 31.6 90.95 27.7 85.1 16.25 71.25 17.6 Z" fill="none" stroke="#000000" stroke-linecap="butt" stroke-linejoin="round" stroke-width="1.0"/>
    <path d="M13.15 44.55 Q16.05 46.25 19.65 48.0 26.85 51.55 30.3 51.85 33.1 52.1 39.4 49.95 46.05 47.7 49.15 47.7 55.5 47.7 58.0 49.8 61.85 52.9 59.5 61.35 55.9 74.35 54.4 76.85 50.9 82.6 43.1 80.6 38.3 79.4 32.9 72.95 27.55 66.5 23.0 65.35 17.25 63.9 14.65 54.1 13.8 51.05 13.4 47.5 L13.15 44.55" fill="#000000" fill-rule="evenodd" stroke="none"/>
    <path d="M93.75 39.3 Q92.25 39.1 90.65 39.65 87.45 40.75 87.15 44.35 L87.95 48.95 Q88.45 51.5 86.5 51.7 L84.3 51.85" fill="none" stroke="#000000" stroke-linecap="round" stroke-linejoin="miter-clip" stroke-miterlimit="10.0" stroke-width="1.0"/>
    <path d="M73.25 40.65 Q75.25 43.8 78.2 44.9 L80.75 45.35" fill="none" stroke="#000000" stroke-linecap="round" stroke-linejoin="miter-clip" stroke-miterlimit="10.0" stroke-width="1.0"/>
    <path d="M83.5 37.55 Q81.9 35.25 79.5 34.1 77.8 33.3 75.75 33.15 L74.05 33.1" fill="none" stroke="#000000" stroke-linecap="round" stroke-linejoin="miter-clip" stroke-miterlimit="10.0" stroke-width="1.0"/>
    <path d="M73.75 38.95 L76.6 38.9 Q79.85 39.35 81.65 41.55" fill="none" stroke="#000000" stroke-linecap="round" stroke-linejoin="miter-clip" stroke-miterlimit="10.0" stroke-width="1.0"/>
    <path d="M92.8 47.7 L90.45 47.7 88.8 47.4 87.5 47.05" fill="none" stroke="#000000" stroke-linecap="round" stroke-linejoin="miter-clip" stroke-miterlimit="10.0" stroke-width="1.0"/>
    <path d="M96.4 41.8 Q94.9 43.25 93.5 43.3 91.6 43.3 89.5 44.25 88.55 44.65 87.85 45.45 L87.3 46.2" fill="none" stroke="#000000" stroke-linecap="round" stroke-linejoin="miter-clip" stroke-miterlimit="10.0" stroke-width="1.0"/>
    <path d="M73.8 52.7 L74.0 53.1 75.05 54.2 77.05 55.65 79.35 56.75 Q81.45 57.8 84.35 57.85 L86.8 57.7" fill="none" stroke="#000000" stroke-linecap="round" stroke-linejoin="miter-clip" stroke-miterlimit="10.0" stroke-width="1.0"/>
    <path d="M76.25 56.85 L77.4 58.05 Q78.9 59.3 80.5 59.85 L82.55 60.15 Q83.5 60.05 84.0 59.65" fill="none" stroke="#000000" stroke-linecap="round" stroke-linejoin="miter-clip" stroke-miterlimit="10.0" stroke-width="1.0"/>
    <path d="M75.3 54.3 Q77.3 55.15 79.85 55.6 L82.35 56.15 Q83.2 56.75 84.8 56.65 85.85 56.55 86.55 57.5" fill="none" stroke="#000000" stroke-linecap="round" stroke-linejoin="miter-clip" stroke-miterlimit="10.0" stroke-width="1.0"/>
    <path d="M76.6 23.5 L79.1 26.6 81.5 26.65 Q84.35 26.9 87.35 28.6 90.4 30.3 92.3 33.7 93.25 35.4 93.6 36.75" fill="none" stroke="#000000" stroke-linecap="round" stroke-linejoin="miter-clip" stroke-miterlimit="10.0" stroke-width="1.0"/>
    <path d="M76.5 25.25 L76.8 26.55 Q76.75 27.8 75.1 27.75 72.9 27.6 70.2 28.8 67.2 30.15 66.25 32.25 65.95 32.95 65.0 36.7 64.55 38.45 63.75 36.85 62.6 34.6 61.3 34.25 59.8 33.85 59.1 36.25 58.3 39.0 58.95 41.8 59.7 44.8 61.65 44.8" fill="none" stroke="#000000" stroke-linecap="round" stroke-linejoin="miter-clip" stroke-miterlimit="10.0" stroke-width="1.0"/>
    <path d="M94.65 28.5 Q94.4 30.2 93.3 31.6 93.25 32.15 92.4 30.4 90.95 27.35 88.75 25.5 85.95 23.2 84.75 22.7 L81.2 22.25 76.9 21.8 73.35 21.35 Q71.4 21.25 68.8 22.2 65.85 23.3 64.35 25.1 63.35 26.35 61.15 30.3 59.2 33.8 58.35 34.6 57.3 35.55 57.0 37.85 56.85 38.8 56.85 41.0 L57.3 44.3 Q57.2 45.85 54.7 41.75 51.8 37.05 51.45 33.5 51.15 30.3 52.85 25.75 54.35 21.5 56.6 19.05 58.6 16.8 62.35 14.85 65.95 12.95 67.9 12.5 L74.5 12.1 81.9 12.05 Q85.2 12.25 87.5 14.25 L92.05 18.35 Q93.95 20.25 94.1 21.5 L94.05 23.65 94.4 26.05 94.65 28.5" fill="#000000" fill-rule="evenodd" stroke="none"/>
    <path d="M76.3 43.6 Q76.35 42.5 76.7 41.5 77.35 39.55 78.8 40.1 80.5 40.8 80.7 42.35 80.85 43.85 79.45 44.3 L77.05 44.2 76.3 43.6" fill="#000000" fill-rule="evenodd" stroke="none"/>
    <path d="M76.3 43.6 Q76.35 42.5 76.7 41.5 77.35 39.55 78.8 40.1 80.5 40.8 80.7 42.35 80.85 43.85 79.45 44.3 L77.05 44.2 76.3 43.6 Z" fill="none" stroke="#000000" stroke-linecap="round" stroke-linejoin="miter-clip" stroke-miterlimit="10.0" stroke-width="1.0"/>
    <path d="M90.65 47.4 Q90.0 47.35 90.0 46.2 90.05 45.0 90.8 44.55 92.8 43.25 92.75 44.8 92.65 45.8 92.1 46.55 91.45 47.45 90.65 47.4" fill="#000000" fill-rule="evenodd" stroke="none"/>
    <path d="M66.6 59.25 Q66.85 59.25 68.35 60.4 L69.75 61.5 68.35 66.1 Q66.2 71.4 62.6 74.85 58.85 78.45 55.05 79.45 L50.4 79.8 Q51.2 79.8 53.75 78.65 59.7 75.95 63.5 68.5 65.95 63.65 66.55 60.95 L66.6 59.25" fill="#000000" fill-rule="evenodd" stroke="none"/>
    <path d="M46.4 73.3 Q46.25 74.55 46.65 76.0 47.1 77.7 48.15 78.8 49.1 79.8 54.7 79.5 L61.4 78.8 Q62.1 78.65 65.0 74.85 67.7 71.25 69.05 71.55 70.35 71.8 69.65 73.7 68.75 76.05 69.25 76.95 70.5 79.3 73.5 77.75 76.65 76.15 77.4 77.05 78.55 78.4 75.95 80.5 L73.15 82.35 75.45 81.65 Q77.85 81.15 78.3 82.35 78.75 83.55 75.85 84.45 L72.8 85.05 74.2 85.5 Q75.6 86.2 75.75 87.3 76.1 90.1 65.4 86.7 L57.2 86.0 Q50.55 85.9 46.25 84.85 41.05 83.65 39.5 77.55 38.45 73.45 39.15 70.2 39.3 69.5 40.8 69.45 42.3 69.45 43.65 70.2 45.4 71.2 46.4 73.3" fill="#ffffff" fill-rule="evenodd" stroke="none"/>
    <path d="M46.4 73.3 Q45.4 71.2 43.65 70.2 42.3 69.45 40.8 69.45 39.3 69.5 39.15 70.2 38.45 73.45 39.5 77.55 41.05 83.65 46.25 84.85 50.55 85.9 57.2 86.0 L65.4 86.7 Q76.1 90.1 75.75 87.3 75.6 86.2 74.2 85.5 L72.8 85.05 75.85 84.45 Q78.75 83.55 78.3 82.35 77.85 81.15 75.45 81.65 L73.15 82.35 75.95 80.5 Q78.55 78.4 77.4 77.05 76.65 76.15 73.5 77.75 70.5 79.3 69.25 76.95 68.75 76.05 69.65 73.7 70.35 71.8 69.05 71.55 67.7 71.25 65.0 74.85 62.1 78.65 61.4 78.8 L54.7 79.5 Q49.1 79.8 48.15 78.8 47.1 77.7 46.65 76.0 46.25 74.55 46.4 73.3 Z" fill="none" stroke="#000000" stroke-linecap="butt" stroke-linejoin="round" stroke-width="1.0"/>
    <path d="M90.9 24.65 Q87.95 25.2 86.2 21.7 84.4 18.3 86.1 17.7 87.8 17.15 90.95 20.6 94.05 24.05 90.9 24.65" fill="#ffffff" fill-rule="evenodd" stroke="none"/>
    <path d="M90.9 24.65 Q94.05 24.05 90.95 20.6 87.8 17.15 86.1 17.7 84.4 18.3 86.2 21.7 87.95 25.2 90.9 24.65 Z" fill="none" stroke="#000000" stroke-linecap="butt" stroke-linejoin="round" stroke-width="1.0"/>
    <path d="M80.15 15.8 Q80.0 14.5 80.95 13.8 L84.15 12.2 Q86.2 11.2 88.35 13.35 90.4 15.45 90.0 17.45 89.65 19.2 84.95 18.1 80.3 17.0 80.15 15.8" fill="#ffffff" fill-rule="evenodd" stroke="none"/>
    <path d="M80.15 15.8 Q80.3 17.0 84.95 18.1 89.65 19.2 90.0 17.45 90.4 15.45 88.35 13.35 86.2 11.2 84.15 12.2 L80.95 13.8 Q80.0 14.5 80.15 15.8 Z" fill="none" stroke="#000000" stroke-linecap="butt" stroke-linejoin="round" stroke-width="1.0"/>
    <path d="M85.0 20.45 Q83.0 22.4 80.25 20.75 77.45 19.1 78.5 16.05 78.8 15.15 80.3 15.25 81.75 15.3 83.3 16.1 87.3 18.2 85.0 20.45" fill="#ffffff" fill-rule="evenodd" stroke="none"/>
    <path d="M85.0 20.45 Q83.0 22.4 80.25 20.75 77.45 19.1 78.5 16.05 78.8 15.15 80.3 15.25 81.75 15.3 83.3 16.1 87.3 18.2 85.0 20.45 Z" fill="none" stroke="#000000" stroke-linecap="butt" stroke-linejoin="round" stroke-width="1.0"/>
    <path d="M75.65 15.35 Q71.75 15.15 75.25 12.1 78.8 9.0 81.5 9.55 83.9 10.05 84.1 11.45 84.25 12.8 82.3 14.7 80.75 16.25 78.05 15.95 L75.65 15.35" fill="#ffffff" fill-rule="evenodd" stroke="none"/>
    <path d="M75.65 15.35 L78.05 15.95 Q80.75 16.25 82.3 14.7 84.25 12.8 84.1 11.45 83.9 10.05 81.5 9.55 78.8 9.0 75.25 12.1 71.75 15.15 75.65 15.35 Z" fill="none" stroke="#000000" stroke-linecap="butt" stroke-linejoin="round" stroke-width="1.0"/>
    <path d="M73.8 19.35 Q69.7 15.7 71.0 14.6 72.2 13.6 76.65 15.35 80.6 16.95 78.45 19.25 L73.8 19.35" fill="#ffffff" fill-rule="evenodd" stroke="none"/>
    <path d="M73.8 19.35 L78.45 19.25 Q80.6 16.95 76.65 15.35 72.2 13.6 71.0 14.6 69.7 15.7 73.8 19.35 Z" fill="none" stroke="#000000" stroke-linecap="butt" stroke-linejoin="round" stroke-width="1.0"/>
    <path d="M74.3 8.55 Q77.4 9.2 75.35 11.85 73.35 14.4 69.3 15.55 65.85 16.55 65.85 14.65 65.9 13.1 67.8 11.05 70.75 7.8 74.3 8.55" fill="#ffffff" fill-rule="evenodd" stroke="none"/>
    <path d="M74.3 8.55 Q77.4 9.2 75.35 11.85 73.35 14.4 69.3 15.55 65.85 16.55 65.85 14.65 65.9 13.1 67.8 11.05 70.75 7.8 74.3 8.55 Z" fill="none" stroke="#000000" stroke-linecap="butt" stroke-linejoin="round" stroke-width="1.0"/>
    <path d="M72.15 20.85 Q71.2 22.9 66.15 20.35 60.9 17.7 62.5 16.85 64.7 15.6 69.0 16.3 73.9 17.1 72.15 20.85" fill="#ffffff" fill-rule="evenodd" stroke="none"/>
    <path d="M72.15 20.85 Q71.2 22.9 66.15 20.35 60.9 17.7 62.5 16.85 64.7 15.6 69.0 16.3 73.9 17.1 72.15 20.85 Z" fill="none" stroke="#000000" stroke-linecap="butt" stroke-linejoin="round" stroke-width="1.0"/>
    <path d="M65.3 11.35 Q67.4 11.9 65.1 15.15 L61.15 19.85 Q59.9 21.35 59.15 18.75 58.4 16.1 59.65 14.35 61.05 12.35 62.05 11.75 63.4 10.9 65.3 11.35" fill="#ffffff" fill-rule="evenodd" stroke="none"/>
    <path d="M65.3 11.35 Q67.4 11.9 65.1 15.15 L61.15 19.85 Q59.9 21.35 59.15 18.75 58.4 16.1 59.65 14.35 61.05 12.35 62.05 11.75 63.4 10.9 65.3 11.35 Z" fill="none" stroke="#000000" stroke-linecap="butt" stroke-linejoin="round" stroke-width="1.0"/>
    <path d="M65.3 23.05 Q65.55 25.15 61.1 25.6 56.65 26.0 56.65 24.7 56.65 24.1 57.9 22.8 59.2 21.4 60.7 20.6 64.8 18.35 65.3 23.05" fill="#ffffff" fill-rule="evenodd" stroke="none"/>
    <path d="M65.3 23.05 Q65.55 25.15 61.1 25.6 56.65 26.0 56.65 24.7 56.65 24.1 57.9 22.8 59.2 21.4 60.7 20.6 64.8 18.35 65.3 23.05 Z" fill="none" stroke="#000000" stroke-linecap="butt" stroke-linejoin="round" stroke-width="1.0"/>
    <path d="M56.65 16.55 Q59.55 15.45 59.05 20.3 58.55 25.0 57.15 26.2 56.65 26.65 55.65 25.5 54.65 24.35 54.1 22.7 52.6 18.1 56.65 16.55" fill="#ffffff" fill-rule="evenodd" stroke="none"/>
    <path d="M56.65 16.55 Q59.55 15.45 59.05 20.3 58.55 25.0 57.15 26.2 56.65 26.65 55.65 25.5 54.65 24.35 54.1 22.7 52.6 18.1 56.65 16.55 Z" fill="none" stroke="#000000" stroke-linecap="butt" stroke-linejoin="round" stroke-width="1.0"/>
    <path d="M61.0 27.85 Q61.7 29.15 57.6 30.95 L53.65 31.05 Q53.8 28.7 56.35 26.75 59.2 24.65 61.0 27.85" fill="#ffffff" fill-rule="evenodd" stroke="none"/>
    <path d="M61.0 27.85 Q61.7 29.15 57.6 30.95 L53.65 31.05 Q53.8 28.7 56.35 26.75 59.2 24.65 61.0 27.85 Z" fill="none" stroke="#000000" stroke-linecap="butt" stroke-linejoin="round" stroke-width="1.0"/>
    <path d="M53.5 34.35 Q52.1 34.75 51.25 30.0 50.45 25.25 52.0 24.85 55.55 24.0 55.4 28.95 55.3 33.85 53.5 34.35" fill="#ffffff" fill-rule="evenodd" stroke="none"/>
    <path d="M53.5 34.35 Q55.3 33.85 55.4 28.95 55.55 24.0 52.0 24.85 50.45 25.25 51.25 30.0 52.1 34.75 53.5 34.35 Z" fill="none" stroke="#000000" stroke-linecap="butt" stroke-linejoin="round" stroke-width="1.0"/>
    <path d="M55.15 40.85 Q53.9 40.4 53.2 35.95 52.5 31.9 56.5 35.55 57.45 36.4 56.65 38.8 55.9 41.15 55.15 40.85" fill="#ffffff" fill-rule="evenodd" stroke="none"/>
    <path d="M55.15 40.85 Q53.9 40.4 53.2 35.95 52.5 31.9 56.5 35.55 57.45 36.4 56.65 38.8 55.9 41.15 55.15 40.85 Z" fill="none" stroke="#000000" stroke-linecap="butt" stroke-linejoin="round" stroke-width="1.0"/>
    <path d="M62.15 42.85 Q62.15 43.45 61.6 43.45 61.05 43.45 61.05 42.85 61.05 42.3 61.6 42.3 62.15 42.3 62.15 42.85" fill="#000000" fill-rule="evenodd" stroke="none"/>
    <path d="M83.5 40.5 Q83.15 40.9 82.35 40.95 80.8 41.05 78.75 39.5" fill="none" stroke="#000000" stroke-linecap="round" stroke-linejoin="miter-clip" stroke-miterlimit="10.0" stroke-width="1.0"/>
    <path d="M84.3 42.8 Q83.0 42.55 81.2 41.25" fill="none" stroke="#000000" stroke-linecap="round" stroke-linejoin="miter-clip" stroke-miterlimit="10.0" stroke-width="1.0"/>
    <path d="M95.85 44.85 L93.25 43.85" fill="none" stroke="#000000" stroke-linecap="round" stroke-linejoin="miter-clip" stroke-miterlimit="10.0" stroke-width="1.0"/>
    <path d="M75.8 51.8 L72.7 52.55 Q73.6 51.35 75.8 51.8" fill="#ffffff" fill-rule="evenodd" stroke="none"/>
    <path d="M75.8 51.8 Q73.6 51.35 72.7 52.55" fill="none" stroke="#000000" stroke-linecap="round" stroke-linejoin="miter-clip" stroke-miterlimit="10.0" stroke-width="1.0"/>
  </g>
</svg>
