<?xml version="1.0" encoding="UTF-8" standalone="no"?>
<svg xmlns:ffdec="https://www.free-decompiler.com/flash" xmlns:xlink="http://www.w3.org/1999/xlink" ffdec:objectType="shape" height="315.05px" width="495.0px" xmlns="http://www.w3.org/2000/svg">
  <g transform="matrix(1.0, 0.0, 0.0, 1.0, 8.05, 11.55)">
    <path d="M27.1 169.7 L-2.05 169.7 -2.05 165.7 28.95 165.7 109.95 214.5 109.95 219.8 70.95 196.5 70.95 227.7 65.95 227.7 65.95 193.45 27.1 169.7" fill="#9c0605" fill-rule="evenodd" stroke="none"/>
    <path d="M167.25 269.9 L168.55 271.5 Q170.0 273.05 170.8 273.05 171.3 273.05 172.55 271.55 173.8 270.05 174.95 270.05 175.95 270.05 177.15 271.15 178.3 272.2 179.45 272.2 180.65 272.2 181.65 271.15 182.7 270.05 183.55 270.05 184.45 270.05 184.9 271.6 185.4 273.15 186.55 273.15 187.7 273.15 189.2 271.55 190.65 270.0 191.5 270.1 192.35 270.2 193.1 271.7 193.8 273.15 194.7 273.15 195.6 273.15 196.7 271.6 197.8 270.1 198.55 270.05 199.4 270.0 200.05 272.0 200.8 274.15 201.3 274.35 202.0 274.6 204.0 272.65 L206.45 270.25 Q206.9 269.95 206.6 271.75 206.1 274.35 206.1 274.9 206.1 275.75 207.35 277.85 208.6 279.95 208.6 280.55 208.6 281.65 206.95 282.45 205.15 283.3 201.95 283.4 199.35 283.5 197.1 281.5 194.7 279.45 194.1 279.4 193.1 279.35 191.7 280.2 190.2 281.15 188.95 281.25 187.65 281.35 186.4 279.45 185.2 277.55 184.25 277.55 183.2 277.55 180.8 280.55 178.45 283.55 177.75 283.55 177.15 283.55 176.2 282.2 175.25 280.85 173.75 280.75 172.25 280.65 170.75 281.5 169.1 282.5 168.6 282.55 165.85 282.85 165.45 276.75 165.2 273.25 165.6 271.7 166.0 270.15 167.25 269.9" fill="#215600" fill-rule="evenodd" stroke="none"/>
    <path d="M245.2 268.1 L246.85 268.0 Q247.35 268.75 246.8 269.7 246.3 270.65 246.25 271.3 246.2 272.1 246.7 273.1 247.25 274.05 246.4 274.8 245.65 275.4 244.05 275.7 243.1 275.9 241.85 278.75 240.55 281.6 239.3 281.85 238.05 282.1 236.35 280.3 234.45 278.25 233.45 278.1 232.3 277.9 230.4 279.95 228.4 282.0 227.3 281.95 226.2 281.9 224.1 279.0 222.0 276.1 220.8 275.95 219.5 275.8 217.9 277.6 216.25 279.45 215.8 279.45 215.05 279.45 214.75 277.15 L214.2 273.35 Q213.85 272.3 212.4 271.05 211.1 270.0 211.2 269.6 211.25 269.2 213.75 269.15 L217.55 269.2 Q218.45 269.2 219.3 271.1 220.2 273.05 221.05 273.1 222.05 273.15 223.45 271.75 225.1 270.15 225.7 269.95 226.45 269.7 227.45 271.25 228.55 272.95 229.3 272.95 230.1 272.95 231.3 271.15 232.55 269.35 233.55 269.2 234.65 269.05 235.45 270.55 236.25 272.0 236.7 271.95 237.25 271.9 237.75 270.35 238.25 268.75 238.8 268.6 239.35 268.5 240.1 269.75 240.95 271.1 241.7 271.1 242.55 271.1 243.4 270.05 244.65 268.5 245.2 268.1" fill="#215600" fill-rule="evenodd" stroke="none"/>
    <path d="M251.8 269.85 Q252.4 267.25 253.55 266.7 254.45 266.3 256.9 269.7 259.45 273.3 259.95 273.35 260.4 273.4 262.45 271.8 264.55 270.2 266.2 270.2 267.75 270.2 268.5 271.65 269.3 273.15 270.2 273.2 271.25 273.3 273.05 271.25 274.8 269.2 275.55 269.2 276.1 269.2 276.9 271.95 277.7 274.7 280.05 274.85 282.4 275.0 284.65 272.2 287.0 269.2 287.8 269.1 289.05 268.9 291.35 270.2 294.2 271.9 295.3 272.2 L298.5 272.1 Q299.3 271.8 300.55 270.95 302.5 270.1 303.05 270.0 304.65 269.65 305.45 270.6 L307.35 272.15 310.05 273.6 Q311.85 274.6 310.3 276.05 308.8 277.5 305.95 277.7 303.95 277.85 301.2 280.05 298.5 282.3 297.3 282.35 296.0 282.4 292.85 280.75 289.8 279.15 288.8 279.35 288.2 279.45 286.1 280.5 L283.8 280.7 Q282.0 279.65 281.15 279.4 279.45 278.85 278.3 279.6 L275.35 282.0 Q273.4 283.55 272.2 283.45 271.25 283.4 270.15 280.85 269.05 278.3 267.8 278.2 266.55 278.15 265.95 278.65 265.3 279.2 264.45 279.2 L261.6 278.8 258.95 278.35 Q258.05 278.35 257.1 279.25 256.15 280.1 255.8 280.1 254.9 280.1 254.4 279.6 253.45 278.75 252.3 275.85 251.1 272.9 251.8 269.85" fill="#215600" fill-rule="evenodd" stroke="none"/>
    <path d="M226.3 289.9 Q230.0 289.85 230.05 290.45 230.1 290.9 227.75 292.3 225.35 293.7 225.45 294.35 225.5 295.25 226.95 295.85 L230.45 296.45 Q232.45 296.55 231.9 297.45 231.45 298.35 229.45 298.85 228.0 299.2 227.3 300.55 226.55 302.05 226.2 302.2 225.55 302.5 224.35 301.7 222.8 300.7 222.45 300.6 221.8 300.4 220.4 301.15 218.9 301.95 218.3 301.85 217.8 301.75 215.85 300.6 213.95 299.55 213.05 299.45 212.2 299.4 210.25 300.75 208.1 302.25 207.3 302.35 206.35 302.5 204.55 301.65 202.3 300.55 201.3 300.35 200.0 300.05 198.45 300.9 196.8 301.85 196.2 301.85 195.45 301.85 194.7 300.1 193.95 298.35 192.7 298.2 191.35 298.05 189.35 300.6 L186.7 303.45 Q185.7 303.7 184.9 302.45 L183.05 298.95 Q182.2 297.3 179.45 296.6 176.95 295.95 176.95 295.6 176.95 295.15 178.35 294.4 180.1 293.45 180.95 292.35 181.85 291.1 183.1 291.4 L185.7 291.7 Q186.75 291.45 187.95 288.6 189.1 285.75 190.55 285.35 192.05 284.95 193.55 287.05 195.15 289.25 195.95 289.2 196.95 289.15 198.0 287.4 199.0 285.65 199.55 285.6 200.25 285.5 201.1 286.95 L202.55 289.1 Q203.4 289.75 206.65 290.0 L211.7 289.85 Q212.9 289.5 215.0 287.65 217.0 285.9 217.7 285.85 218.5 285.75 219.9 287.8 221.35 289.9 221.8 289.95 L226.3 289.9" fill="#215600" fill-rule="evenodd" stroke="none"/>
    <path d="M298.05 290.35 Q298.35 291.2 300.0 291.3 L305.55 291.45 Q309.05 291.7 307.75 293.15 306.6 294.45 304.45 294.85 303.2 295.05 302.9 296.3 302.55 297.7 302.2 297.85 L299.7 298.1 Q297.85 298.2 297.3 299.1 L295.75 301.25 Q294.55 302.2 292.55 301.7 L289.0 300.95 285.7 301.35 Q280.7 302.75 278.45 300.35 277.05 298.9 275.75 298.85 274.55 298.75 273.05 299.85 271.5 300.95 269.95 300.95 268.1 300.95 266.7 299.35 265.3 297.8 264.35 298.1 263.6 298.3 262.45 300.1 261.45 301.6 260.2 301.9 259.05 302.2 258.55 301.2 258.05 300.2 256.95 299.75 L252.95 299.45 Q250.25 299.65 249.35 298.8 248.6 298.1 248.7 295.85 248.75 294.25 246.55 293.25 244.4 292.3 244.55 291.7 244.7 291.15 247.05 290.85 249.4 290.6 249.8 288.95 250.35 286.95 252.2 287.3 253.9 287.65 255.3 289.6 256.6 291.35 257.8 291.35 259.0 291.35 259.7 289.7 260.9 286.8 263.55 287.7 L265.5 288.5 Q266.45 288.65 268.05 287.6 270.15 286.2 270.75 286.1 271.65 286.0 272.7 287.45 L274.45 289.4 Q275.25 289.7 277.05 288.45 L280.4 285.9 Q281.85 285.0 282.3 286.45 282.9 288.3 283.8 288.65 284.75 289.0 286.7 287.95 288.95 286.8 289.75 286.75 290.85 286.7 291.55 288.35 292.3 290.1 292.85 290.35 293.4 290.55 294.7 289.7 297.25 288.1 298.05 290.35" fill="#215600" fill-rule="evenodd" stroke="none"/>
    <path d="M36.75 204.55 Q37.95 204.6 39.95 207.35 41.8 209.9 43.6 209.55 L48.05 208.35 Q50.3 207.6 51.1 207.7 51.75 207.8 52.3 210.35 53.0 213.55 54.75 215.4 L60.0 219.95 Q62.35 222.75 59.6 226.7 57.7 229.5 55.2 234.65 53.5 238.0 52.25 238.55 51.05 239.05 47.35 237.55 43.2 235.8 41.45 235.9 39.85 235.95 38.1 237.25 36.7 238.35 34.45 237.9 33.25 237.65 30.25 235.8 28.55 234.75 26.45 236.2 24.6 237.45 22.5 239.55 20.85 240.95 18.95 240.55 18.15 240.4 14.05 236.9 10.65 234.05 7.75 235.2 2.75 237.2 -1.55 239.7 L-2.7 206.2 Q-0.4 206.1 3.4 207.85 8.3 210.15 9.25 210.4 11.6 211.05 14.0 209.3 L17.95 205.7 Q19.75 204.1 23.6 204.85 26.85 205.45 29.6 207.2 31.35 208.3 33.35 206.55 35.75 204.5 36.75 204.55" fill="#215600" fill-rule="evenodd" stroke="none"/>
    <path d="M73.6 276.9 Q75.75 275.95 77.95 276.35 80.3 276.75 80.45 278.55 80.55 280.2 75.8 280.6 L68.95 280.4 64.0 279.65 58.45 279.9 Q56.7 280.3 54.8 282.35 53.05 284.3 50.95 284.55 48.65 284.85 48.0 282.7 47.3 280.45 46.75 280.4 45.85 280.3 44.95 281.5 44.05 282.7 43.45 282.7 43.05 282.7 42.05 281.35 41.05 280.05 39.1 280.2 37.2 280.4 34.95 281.8 32.7 283.15 32.1 283.2 31.35 283.3 30.95 281.9 30.5 280.4 29.25 280.2 28.05 280.05 26.85 282.2 25.65 284.35 24.75 284.2 24.1 284.1 22.65 282.2 21.35 280.5 19.75 280.9 17.55 281.4 13.65 280.2 9.65 279.0 9.75 277.55 9.9 276.3 13.5 276.5 L18.6 276.9 Q19.7 276.9 20.9 275.55 22.15 274.1 22.6 274.05 23.1 274.0 24.0 275.45 25.0 277.05 26.25 277.2 27.5 277.4 29.55 275.45 31.85 273.35 33.1 273.2 34.45 273.05 35.9 274.85 37.4 276.7 38.6 276.7 L42.35 276.15 45.75 275.55 Q46.95 275.55 47.55 275.9 L48.6 276.55 Q49.1 276.75 50.3 275.9 51.7 274.85 52.6 274.7 53.55 274.55 54.75 275.45 56.05 276.5 57.1 276.55 58.3 276.65 59.4 275.15 60.55 273.6 61.1 273.55 61.85 273.45 62.2 274.7 62.6 276.1 62.95 276.2 63.3 276.35 64.95 275.55 66.65 274.8 67.45 275.05 68.2 275.3 70.1 276.6 72.0 277.6 73.6 276.9" fill="#215600" fill-rule="evenodd" stroke="none"/>
    <path d="M398.6 284.05 Q398.1 283.7 395.2 282.95 392.95 282.4 392.75 281.25 392.5 279.5 393.85 277.8 395.35 275.9 396.95 277.05 402.1 280.85 403.25 278.25 404.0 276.5 405.1 276.3 406.2 276.1 407.25 277.4 408.15 278.5 409.25 277.9 L410.95 276.25 Q411.55 275.55 412.7 276.0 L415.1 277.05 Q416.0 277.3 416.9 276.35 417.9 275.25 419.25 275.25 420.75 275.25 422.25 276.8 423.65 278.2 424.1 278.05 424.6 277.95 425.2 276.65 425.8 275.55 426.6 275.75 427.25 275.9 428.85 277.35 430.35 278.65 431.25 278.55 432.1 278.5 433.45 277.6 434.75 276.75 435.6 276.75 436.4 276.75 437.6 278.2 438.75 279.55 439.6 279.4 440.4 279.25 440.85 278.1 441.3 277.0 442.25 276.9 443.2 276.8 444.25 278.25 445.25 279.65 445.95 279.55 446.6 279.5 447.4 278.65 448.0 278.0 448.95 278.25 449.5 278.4 450.4 279.65 451.05 280.45 452.25 279.9 L454.5 278.35 Q455.45 277.65 456.95 278.05 459.25 278.7 460.0 280.15 460.85 281.85 457.95 282.75 455.85 283.35 453.15 284.6 451.15 285.45 450.1 285.55 449.0 285.65 447.05 284.35 444.9 282.9 444.1 282.75 443.25 282.6 442.15 283.65 441.0 284.75 439.6 284.55 438.35 284.4 437.35 282.9 436.4 281.55 434.95 281.75 433.55 281.9 431.25 283.95 429.2 285.8 428.1 285.55 427.1 285.3 424.8 283.15 422.75 281.15 421.75 281.25 420.95 281.3 419.65 282.1 418.55 282.75 417.75 282.55 L416.15 281.9 Q415.25 281.4 414.25 281.25 413.35 281.1 411.5 282.55 409.45 284.15 408.1 284.25 L403.0 284.65 Q399.65 284.8 398.6 284.05" fill="#215600" fill-rule="evenodd" stroke="none"/>
    <path d="M439.75 216.4 Q441.25 216.95 441.2 219.5 441.15 222.45 442.75 223.9 444.95 225.85 444.6 227.25 444.4 228.3 442.25 229.75 440.9 230.65 441.3 234.25 441.65 237.8 440.95 238.25 440.2 238.7 438.5 236.95 436.5 234.95 434.45 235.05 433.2 235.1 432.8 235.8 L432.5 237.35 Q432.05 239.7 428.25 240.25 423.45 240.95 420.1 234.65 417.0 228.75 418.25 223.9 419.15 220.35 420.6 220.45 L422.3 220.9 424.6 221.05 Q426.65 220.75 427.8 217.9 429.0 215.0 429.75 214.9 430.8 214.7 431.75 215.65 432.9 216.8 434.1 217.05 435.2 217.25 436.75 216.5 L439.75 216.4" fill="#215600" fill-rule="evenodd" stroke="none"/>
    <path d="M469.95 200.25 Q470.8 202.4 473.5 202.75 L478.6 202.55 483.1 237.75 Q481.75 236.65 479.5 236.2 475.05 235.3 470.75 238.75 466.25 242.35 463.2 241.05 461.55 240.35 459.25 237.05 458.2 235.55 454.3 236.1 450.35 236.65 449.6 235.75 448.7 234.65 451.05 231.55 453.75 228.05 453.75 226.9 453.75 225.4 451.15 224.9 447.65 224.2 446.6 223.4 445.2 222.35 445.95 221.1 447.25 219.0 447.25 217.05 447.25 214.85 444.1 212.3 440.85 209.7 440.75 207.75 440.65 204.75 445.3 203.4 449.95 202.0 452.95 204.25 455.7 206.3 456.75 205.6 457.4 205.15 458.45 202.05 459.35 199.3 460.2 198.9 461.15 198.45 462.1 200.75 463.2 203.3 463.9 203.45 464.75 203.7 465.95 201.05 467.2 198.25 468.05 198.05 468.95 197.8 469.95 200.25" fill="#215600" fill-rule="evenodd" stroke="none"/>
    <path d="M483.7 -11.55 L482.4 11.35 Q480.9 34.3 479.95 34.45 479.3 34.55 476.8 32.4 473.95 30.0 471.95 29.45 469.85 28.9 468.65 31.15 467.45 33.55 466.7 33.45 465.75 33.35 464.6 31.25 463.4 29.1 461.95 28.7 460.4 28.3 459.45 30.0 458.35 32.0 457.7 32.2 456.8 32.45 455.6 31.3 454.3 30.1 453.45 30.2 452.55 30.35 452.75 32.25 452.95 34.7 452.2 35.95 451.35 37.35 448.8 36.0 445.15 34.05 443.7 33.95 441.75 33.8 440.6 37.5 439.35 41.6 437.7 42.2 435.8 42.85 433.95 40.9 431.75 38.55 430.2 38.45 428.3 38.3 425.95 41.35 423.55 44.45 422.45 44.45 421.15 44.45 420.65 42.85 419.85 40.35 418.45 38.95 415.35 35.85 414.65 34.25 413.3 31.2 414.95 26.7 416.5 22.55 418.7 22.9 419.9 23.1 421.7 23.95 422.3 23.85 424.7 21.7 427.05 19.6 428.45 19.45 L431.5 19.8 Q433.05 19.95 434.7 18.45 439.25 14.3 443.2 16.45 445.2 17.55 446.15 17.0 447.0 16.5 447.95 13.95 448.9 11.45 449.65 11.05 450.45 10.6 451.2 12.45 L452.6 15.55 Q453.5 16.3 454.95 13.2 456.35 10.3 458.25 11.2 459.25 11.7 460.95 12.95 462.25 13.15 462.8 11.65 463.4 9.95 462.2 7.7 460.95 5.4 461.85 4.1 462.6 2.95 465.45 1.95 468.05 1.0 467.4 -1.5 466.7 -4.0 463.7 -4.55 461.3 -5.0 458.9 -0.35 L455.2 6.45 Q453.75 8.05 451.05 6.85 447.35 5.2 446.7 5.2 445.1 5.2 442.0 7.85 L437.7 11.45 Q436.5 12.15 434.65 11.2 432.4 10.1 431.2 10.2 429.75 10.35 427.65 13.35 425.5 16.35 424.45 16.45 423.25 16.6 422.2 14.6 421.0 12.3 419.95 11.95 418.9 11.6 416.7 12.9 414.65 14.1 413.45 13.45 412.45 12.9 413.35 10.65 414.2 8.5 412.45 7.7 410.2 6.65 410.25 5.35 410.25 4.3 411.95 2.2 413.25 0.6 412.95 -2.05 L411.7 -9.3 483.7 -11.55" fill="#215600" fill-rule="evenodd" stroke="none"/>
    <path d="M14.95 176.7 L14.95 198.7 8.95 198.7 8.95 176.7 14.95 176.7" fill="#9c0605" fill-rule="evenodd" stroke="none"/>
    <path d="M28.95 181.7 L28.95 197.7 22.95 194.7 22.95 177.7 28.95 181.7" fill="#9c0605" fill-rule="evenodd" stroke="none"/>
    <path d="M42.95 199.9 L36.95 196.7 36.95 184.4 42.95 188.7 42.95 199.9" fill="#9c0605" fill-rule="evenodd" stroke="none"/>
    <path d="M56.95 204.2 L50.95 200.7 50.95 191.7 56.95 195.7 56.95 204.2" fill="#9c0605" fill-rule="evenodd" stroke="none"/>
    <path d="M70.95 152.7 L65.95 152.7 65.95 122.45 32.1 101.7 -8.05 101.7 -8.05 97.7 33.95 97.7 118.5 148.2 118.5 153.5 70.95 125.5 70.95 152.7" fill="#9c0605" fill-rule="evenodd" stroke="none"/>
    <path d="M71.95 50.05 L64.95 49.7 64.95 65.7 71.95 68.7 71.95 50.05 M71.95 23.7 L64.95 27.7 64.95 42.7 71.95 42.7 71.95 23.7 M60.95 28.7 L54.95 28.7 54.95 55.05 60.95 62.7 60.95 28.7 M74.95 16.7 L74.95 74.05 69.35 71.4 Q63.6 68.7 62.95 68.7 61.7 68.7 62.2 71.3 62.45 72.6 62.95 73.9 L68.4 81.95 60.0 87.4 20.95 7.2 19.75 7.55 4.95 27.7 -4.05 27.7 -4.05 14.7 3.6 14.7 19.95 -10.6 23.25 -10.3 32.95 10.7 54.95 10.7 54.95 24.7 61.75 24.7 74.95 16.7" fill="#9c0605" fill-rule="evenodd" stroke="none"/>
    <path d="M5.7 66.95 L9.05 68.15 13.7 68.35 Q15.4 67.0 15.75 65.0 16.2 62.3 13.95 59.2 L9.1 52.55 Q7.1 48.95 9.2 46.6 11.8 43.7 15.2 43.45 18.95 43.1 22.55 46.1 28.8 51.25 33.85 57.8 41.3 67.6 40.8 74.95 40.3 82.4 37.5 86.3 36.0 88.35 32.55 90.45 29.7 92.2 28.05 92.2" fill="none" stroke="#000000" stroke-linecap="round" stroke-linejoin="miter-clip" stroke-miterlimit="10.0" stroke-width="4.0"/>
    <path d="M22.8 69.85 L24.6 73.2 Q26.25 77.5 25.3 82.35 24.2 88.0 21.55 90.9 19.05 93.6 15.7 93.35 12.95 93.1 8.3 90.75 L4.2 88.45" fill="none" stroke="#000000" stroke-linecap="round" stroke-linejoin="miter-clip" stroke-miterlimit="10.0" stroke-width="4.0"/>
    <path d="M3.8 81.2 L4.85 81.95 7.7 83.45 Q10.05 84.45 11.7 84.85" fill="none" stroke="#000000" stroke-linecap="round" stroke-linejoin="miter-clip" stroke-miterlimit="10.0" stroke-width="4.0"/>
    <path d="M4.45 74.85 L6.65 74.85 10.3 75.1 Q12.3 75.45 13.3 77.2 L4.45 74.85" fill="#000000" fill-rule="evenodd" stroke="none"/>
    <path d="M19.95 44.2 L22.3 37.6 24.55 43.95 30.3 43.85 25.8 48.1 19.95 44.2" fill="#000000" fill-rule="evenodd" stroke="none"/>
    <path d="M19.95 49.6 Q21.1 51.8 21.0 53.65 20.85 55.4 19.7 56.1 18.75 56.65 16.7 55.35 L14.8 53.95 16.8 51.45 13.05 51.35 12.65 50.05 Q12.4 48.6 13.2 47.95 14.35 47.0 16.45 47.3 18.85 47.55 19.95 49.6" fill="#000000" fill-rule="evenodd" stroke="none"/>
    <path d="M10.9 36.75 Q12.15 38.9 11.2 39.85 10.55 40.55 9.2 40.9 8.0 41.25 7.8 41.6 L6.75 43.55 Q5.9 44.9 5.2 44.6 4.05 44.1 2.9 42.75 1.55 41.2 2.3 40.35 3.0 39.55 4.65 39.5 L6.55 39.6 6.75 37.6 Q7.2 35.5 8.3 35.1 9.6 34.6 10.9 36.75" fill="#9c0605" fill-rule="evenodd" stroke="none"/>
    <path d="M30.7 49.2 L33.4 49.25 Q36.2 49.6 36.8 51.2 37.55 53.2 36.5 53.85 35.4 54.45 34.2 52.6 33.15 51.05 31.85 49.95 L30.7 49.2" fill="#9c0605" fill-rule="evenodd" stroke="none"/>
    <path d="M6.05 115.95 Q8.25 115.85 10.25 117.55 12.75 119.6 10.05 122.45 6.45 126.35 6.1 127.1 5.5 128.55 8.05 129.85 11.45 131.55 14.85 131.8 19.1 132.15 21.3 129.95 L27.0 123.15 Q30.8 118.75 33.3 118.85 37.0 118.95 39.45 121.2 42.4 123.95 41.55 128.45 40.75 132.6 36.45 137.25 L32.3 141.1 32.3 145.7 Q32.1 150.8 31.05 153.2 29.95 155.85 27.3 157.5 25.15 158.85 23.05 159.1 L20.8 159.35" fill="none" stroke="#000000" stroke-linecap="round" stroke-linejoin="miter-clip" stroke-miterlimit="10.0" stroke-width="4.0"/>
    <path d="M3.55 138.85 L5.0 140.05 Q6.6 141.4 7.55 141.85 9.05 142.6 11.55 143.2" fill="none" stroke="#000000" stroke-linecap="round" stroke-linejoin="miter-clip" stroke-miterlimit="10.0" stroke-width="4.0"/>
    <path d="M3.7 147.7 L6.95 149.95 Q8.2 150.7 10.05 151.2" fill="none" stroke="#000000" stroke-linecap="round" stroke-linejoin="miter-clip" stroke-miterlimit="10.0" stroke-width="4.0"/>
    <path d="M4.8 157.1 L8.6 158.05 Q12.85 158.65 14.95 156.6 19.9 151.8 18.7 145.95 18.25 143.6 17.65 142.15 L17.2 141.2" fill="none" stroke="#000000" stroke-linecap="round" stroke-linejoin="miter-clip" stroke-miterlimit="10.0" stroke-width="4.0"/>
    <path d="M42.05 128.95 L47.3 131.2 42.05 133.85 41.95 139.95 38.55 136.6 42.05 128.95" fill="#000000" fill-rule="evenodd" stroke="none"/>
    <path d="M34.05 126.6 Q32.3 125.2 32.7 124.7 33.0 124.25 34.2 124.25 35.5 124.25 36.7 124.95 37.95 125.65 37.8 127.4 37.65 129.0 36.45 130.7 35.3 132.35 33.15 132.9 30.9 133.5 29.8 132.2 28.85 131.1 29.75 128.8 L30.8 126.7 34.05 126.6" fill="#000000" fill-rule="evenodd" stroke="none"/>
    <path d="M43.05 116.95 L45.7 117.25 Q48.3 117.75 48.05 118.6 47.75 119.75 46.4 121.15 45.0 122.6 44.3 122.1 43.7 121.65 43.05 120.0 L42.2 117.95 Q42.0 117.7 41.0 117.4 39.9 117.05 39.05 116.35 37.95 115.45 38.8 114.0 39.6 112.6 41.2 112.1 42.45 111.7 42.9 114.3 L43.05 116.95" fill="#9c0605" fill-rule="evenodd" stroke="none"/>
    <path d="M35.3 143.2 L35.9 143.75 Q36.6 144.75 37.3 146.85 38.05 149.05 36.95 150.0 36.15 150.7 35.05 150.6 34.2 150.45 35.3 143.2" fill="#9c0605" fill-rule="evenodd" stroke="none"/>
    <path d="M480.95 170.7 L451.75 170.7 412.95 194.45 412.95 228.7 407.95 228.7 407.95 197.5 371.5 219.8 371.5 214.5 449.95 166.7 480.95 166.7 480.95 170.7" fill="#9c0605" fill-rule="evenodd" stroke="none"/>
    <path d="M457.95 179.7 L463.95 179.7 463.95 195.35 457.95 188.7 457.95 179.7" fill="#9c0605" fill-rule="evenodd" stroke="none"/>
    <path d="M451.95 179.7 L451.95 195.7 445.95 195.7 445.95 179.7 451.95 179.7" fill="#9c0605" fill-rule="evenodd" stroke="none"/>
    <path d="M432.95 204.9 L432.95 192.7 438.95 186.4 438.95 199.7 432.95 204.9" fill="#9c0605" fill-rule="evenodd" stroke="none"/>
    <path d="M421.95 213.2 L421.95 196.7 426.95 192.7 426.95 209.7 421.95 213.2" fill="#9c0605" fill-rule="evenodd" stroke="none"/>
    <path d="M486.95 102.7 L446.75 102.7 412.95 123.45 412.95 155.7 407.95 155.7 407.95 126.5 365.0 151.3 365.0 146.0 444.95 98.7 486.95 98.7 486.95 102.7" fill="#9c0605" fill-rule="evenodd" stroke="none"/>
    <path d="M477.95 195.7 L471.95 195.7 471.95 179.7 477.95 179.7 477.95 195.7" fill="#9c0605" fill-rule="evenodd" stroke="none"/>
    <path d="M476.45 43.55 L474.0 43.8 Q472.35 44.35 471.45 45.4 470.6 46.35 468.85 46.3 L465.75 46.05 Q464.05 46.05 463.3 47.75 462.4 49.65 463.45 52.55 464.8 56.3 465.15 59.45 465.55 63.25 464.1 63.75 460.9 64.7 447.45 58.9 440.65 55.95 434.9 55.45 429.0 54.95 427.25 57.4 425.1 60.55 424.7 64.05 424.15 68.45 427.1 70.25 429.15 71.5 435.2 72.2 440.55 72.75 441.75 74.25 442.95 75.65 446.15 83.0 449.8 90.2 454.1 92.75 458.55 95.35 462.05 95.2 463.75 95.15 464.6 94.55" fill="none" stroke="#010504" stroke-linecap="round" stroke-linejoin="miter-clip" stroke-miterlimit="10.0" stroke-width="3.0"/>
    <path d="M475.45 85.9 Q473.2 87.4 470.25 88.4 464.4 90.45 460.95 88.05 457.5 85.7 456.8 81.95 L456.75 78.7" fill="none" stroke="#010504" stroke-linecap="round" stroke-linejoin="miter-clip" stroke-miterlimit="10.0" stroke-width="3.0"/>
    <path d="M464.45 74.05 L465.5 72.65 Q467.2 71.2 470.45 71.05 L475.65 70.35 476.95 69.75" fill="none" stroke="#010504" stroke-linecap="round" stroke-linejoin="miter-clip" stroke-miterlimit="10.0" stroke-width="3.0"/>
    <path d="M468.1 80.7 L469.85 79.8 473.45 78.4 Q475.95 77.7 476.1 77.05" fill="none" stroke="#010504" stroke-linecap="round" stroke-linejoin="miter-clip" stroke-miterlimit="10.0" stroke-width="3.0"/>
    <path d="M431.05 60.25 L433.25 60.55 Q432.8 60.4 432.1 61.35 L431.45 62.4 434.95 62.55 435.6 64.6 Q436.05 66.8 435.1 67.75 433.7 69.15 431.05 68.05 428.1 66.85 428.45 63.55 428.75 60.55 431.05 60.25" fill="#010504" fill-rule="evenodd" stroke="none"/>
    <path d="M426.45 53.4 Q425.55 53.85 424.5 54.7 422.45 56.3 421.95 58.05 421.1 60.9 420.95 62.2 L418.25 62.0 Q415.7 61.45 416.45 59.9 417.1 58.55 417.95 57.7 L418.6 56.7 417.35 55.35 Q416.35 54.25 417.45 53.05 418.5 51.9 419.4 52.15 L420.75 52.4 Q421.05 52.25 421.15 50.5 421.25 49.05 422.6 49.2 424.3 49.45 425.4 50.75 426.45 51.95 426.45 53.4" fill="#9c0605" fill-rule="evenodd" stroke="none"/>
    <path d="M429.45 75.7 Q431.6 75.9 433.5 77.6 435.8 79.55 433.95 81.55 432.15 83.45 430.65 79.75 L429.45 75.7" fill="#9c0605" fill-rule="evenodd" stroke="none"/>
    <path d="M418.25 68.55 L424.25 65.4 424.95 67.25 Q425.85 69.3 427.1 70.25 L429.1 71.75 425.25 77.25 424.45 70.55 418.25 68.55" fill="#010504" fill-rule="evenodd" stroke="none"/>
    <path d="M476.1 123.9 Q475.55 122.75 474.6 121.7 472.65 119.65 470.45 120.4 467.65 121.3 466.65 123.35 465.55 125.65 466.25 130.05 467.95 140.5 464.25 139.2 462.5 138.55 458.95 134.2 L452.6 126.05 Q449.45 122.15 446.25 121.7 442.95 121.2 440.6 124.55 438.35 127.8 438.3 130.85 438.25 133.55 440.1 137.7 441.3 140.5 441.5 144.55 441.65 148.75 442.6 151.05 444.05 154.6 446.7 157.25 449.15 159.8 452.25 161.2 L457.6 163.55" fill="none" stroke="#000000" stroke-linecap="round" stroke-linejoin="miter-clip" stroke-miterlimit="10.0" stroke-width="4.0"/>
    <path d="M456.45 151.55 L457.3 154.35 Q458.55 157.5 460.75 159.05 463.1 160.75 466.9 161.45 L472.75 161.9 476.75 161.4" fill="none" stroke="#000000" stroke-linecap="round" stroke-linejoin="miter-clip" stroke-miterlimit="10.0" stroke-width="4.0"/>
    <path d="M465.45 151.4 L466.0 152.8 Q467.15 154.3 469.95 154.7 472.75 155.15 475.3 154.8 L477.25 154.4" fill="none" stroke="#000000" stroke-linecap="round" stroke-linejoin="miter-clip" stroke-miterlimit="10.0" stroke-width="4.0"/>
    <path d="M469.1 144.9 L470.45 145.1 474.6 144.9 478.25 144.4" fill="none" stroke="#000000" stroke-linecap="round" stroke-linejoin="miter-clip" stroke-miterlimit="10.0" stroke-width="4.0"/>
    <path d="M439.1 134.9 L434.45 137.4 436.75 131.7 432.95 127.7 438.6 128.2 438.35 129.75 Q438.15 131.5 438.6 132.55 439.25 134.2 439.1 134.9" fill="#010504" fill-rule="evenodd" stroke="none"/>
    <path d="M445.75 132.05 L446.4 132.05 Q447.2 131.9 447.95 131.25 448.85 130.5 449.15 131.35 449.45 132.3 449.1 134.75 448.75 137.15 446.7 137.25 444.7 137.35 443.25 135.4 441.95 133.55 442.35 130.65 442.7 127.75 444.25 126.75 445.5 125.9 446.6 127.25 L447.45 128.75 446.4 129.9 Q445.45 131.25 445.75 132.05" fill="#010504" fill-rule="evenodd" stroke="none"/>
    <path d="M438.7 113.8 L439.1 114.9 441.45 113.9 Q442.9 113.3 443.2 115.7 443.4 116.9 443.25 118.2 L440.6 119.4 Q438.9 120.1 436.9 122.0 L435.25 123.7 433.9 122.45 Q432.65 120.95 432.95 119.7 433.25 118.45 434.15 118.7 L434.95 119.2 Q434.8 118.4 434.9 117.3 435.15 115.2 436.6 114.05 438.05 112.9 438.7 113.8" fill="#9c0605" fill-rule="evenodd" stroke="none"/>
    <path d="M435.95 141.05 Q434.8 142.65 434.9 144.2 435.05 145.9 434.25 147.25 433.05 149.3 431.8 147.4 430.6 145.45 431.75 143.55 432.7 142.0 434.4 141.35 L435.95 141.05" fill="#9c0605" fill-rule="evenodd" stroke="none"/>
  </g>
</svg>
